<svg id="레이어_1" data-name="레이어 1" xmlns="http://www.w3.org/2000/svg" viewBox="0 0 1897 870"><defs><style>.cls-1{fill:#e6e6e6;}.cls-13,.cls-2{fill:#4897ff;}.cls-15,.cls-2,.cls-9{opacity:0.1;}.cls-2,.cls-9{isolation:isolate;}.cls-3{fill:#aaabb0;}.cls-4{fill:#33323d;}.cls-5{fill:#444053;}.cls-6{fill:#4c4981;}.cls-7{fill:#ffb9b9;}.cls-8{fill:#504f60;}.cls-10{fill:#ae6e79;}.cls-11{fill:#767d9f;}.cls-12{fill:#fff;}.cls-14{fill:#b96b6b;}.cls-16{fill:#464a5f;}.cls-17{fill:#9c9ca1;}.cls-18{fill:#939498;}</style></defs><rect class="cls-1" width="1897" height="870"/><path class="cls-2" d="M341.75,235.78c-32-11.65-65.72-21-99.42-17.79-49.55,4.72-95.55,38.54-116.44,85.69-17.72,40-17.72,85.68-23.94,129.29C94.3,486.71,76.86,538.33,58,588.9c-10.13,27.17-20.87,55-21.2,84.15C36.34,713.59,57,752.86,87.33,778.18s69.58,37.44,108.32,38.46c20.61.55,42-2.13,59.68-13.11,18.72-11.61,31.76-31.48,50.57-42.95,17.42-10.63,38.35-13.11,58.57-12.93a254.88,254.88,0,0,1,78.07,13c28.76,9.55,55.81,24.18,84.47,33.9s60.44,14.29,88.66,3.39c26.53-10.25,46.7-32.76,64.75-55.43a901.21,901.21,0,0,0,80-118.59c15.88-28.13,30.49-57.68,36.45-89.78,11.42-61.38-12.43-128.66-59.4-167.63C698.56,334.24,648,322,598.8,315.62c-44.86-5.85-96.25-3.61-138.29-22.87C420.41,274.35,383.57,251,341.75,235.78Z"/><polygon class="cls-3" points="467.25 452.85 482.34 434.3 476.5 429.55 461.43 450.39 467.25 452.85"/><polygon class="cls-3" points="551.85 527.9 566.95 509.35 561.1 504.6 546.03 525.44 551.85 527.9"/><path class="cls-3" d="M428.73,478.66h0a4.64,4.64,0,0,1-1-6.47L449.06,446a4.65,4.65,0,0,1,6.54-.34h0a4.64,4.64,0,0,1,1,6.47l-21.33,26.21A4.63,4.63,0,0,1,428.73,478.66Z"/><path class="cls-3" d="M519.36,564.57h0a4.64,4.64,0,0,1-1-6.47l27.28-33.53a4.64,4.64,0,0,1,6.54-.35h0a4.65,4.65,0,0,1,1,6.47L525.9,564.22A4.65,4.65,0,0,1,519.36,564.57Z"/><path class="cls-3" d="M254.56,665.41s-9.88-3.23-8.66-7,21-29.3,21-29.3l7.16,5.82Z"/><path class="cls-3" d="M337,732.51s5.18,9,8.67,7S370.11,713,370.11,713L363,707.2Z"/><polygon class="cls-3" points="315.69 756.45 333.72 736.6 328.63 732.46 311.32 753.74 315.69 756.45"/><path class="cls-4" d="M363,707.2l-25.88,28.73s-4.84,7.1-21.06-9.49-65.25-63.27-65.25-63.27l23.13-28.43Z"/><path class="cls-4" d="M419.78,491.18l40.08-43.49s58.32,12.94,92.53,73.59l-43.71,44.49Z"/><polygon class="cls-5" points="312.47 703.48 335.63 673.09 277.25 625.6 248.79 667.51 312.47 703.48"/><rect class="cls-6" x="449.79" y="493.39" width="81.19" height="70.88" transform="translate(-229.31 575.49) rotate(-50.87)"/><path class="cls-7" d="M478.43,528.71S466,527.89,466,525.12s12-5.2,13.8-2.35S478.43,528.71,478.43,528.71Z"/><rect class="cls-8" x="265.8" y="348.24" width="210.67" height="465.3" transform="translate(-313.69 502.18) rotate(-50.87)"/><path class="cls-4" d="M318.86,761s-16.56,26.13-21.74,26.72-74.93-10.59-92.63-78.46c0,0-4-3.54,3.68-11.44a119.31,119.31,0,0,0,13.06-16.25S320.64,752.27,318.86,761Z"/><path class="cls-9" d="M318.86,761s-16.56,26.13-21.74,26.72-74.93-10.59-92.63-78.46c0,0-4-3.54,3.68-11.44a119.31,119.31,0,0,0,13.06-16.25S320.64,752.27,318.86,761Z"/><path class="cls-4" d="M321.35,757.94s-16.56,26.14-21.74,26.73S224.68,774.07,207,706.2c0,0-4-3.54,3.68-11.44a119.44,119.44,0,0,0,13.07-16.24S323.14,749.21,321.35,757.94Z"/><path class="cls-6" d="M213.26,688.11s5.3-12.67,7.62-13.61,6-5.84,6-5.84,2.29-3.23,4.07-2.34,3.24,1.79,2.86-.23,2.07-2.55,2.07-2.55,2.6-1.85,3.19-3.92,5.63,1,6.8-1.25,4.31-8.66,6.1-7.49,5-7.27,6.46-6.06S270.69,635,270.69,635s3.95,16.5,12.71,20c0,0-6,6.17-10.17,6.72s-8.49,7.23-8.49,7.23l-36,21.35Z"/><path class="cls-10" d="M383.76,592.77c4.44-.46-3.55,14.75-3.55,14.75s14-3,13.84,6.45c-.13,6.55-11.84,15.9-19,21-3.18,2.28-5.48,3.72-5.48,3.72L358.16,632s1.59-2,3.34-4.65c2.37-3.53,5-8.14,4.41-10.26C364.81,613.37,379.31,593.24,383.76,592.77Z"/><path class="cls-9" d="M264.62,750s17.56,14.57,28.81,9.58,13.8-7.73,16.6-7.71-11.52-23.52-11.52-23.52l22.88-30.05s-6.9.41-12-6.44-14.5-11.8-14.5-11.8-.12.93-4.9-4-28-10.55-28-10.55-10.7,12.59-12.54,15.62-30.48,13-30.48,13-16.39.53-8.77,11.54c0,0-.38,7.68,8.74,15S264.62,750,264.62,750Z"/><path class="cls-6" d="M264.2,750.49s17.57,14.57,28.82,9.58,13.8-7.73,16.6-7.71-11.52-23.52-11.52-23.52L321,698.79s-6.9.41-12-6.44-14.5-11.8-14.5-11.8-.13.93-4.9-4-28-10.54-28-10.54-14.48,4.34-16.32,7.36S213.1,686,213.1,686s-10.94,9.2-3.31,20.22c0,0-.38,7.68,8.74,15S264.2,750.49,264.2,750.49Z"/><path class="cls-9" d="M361.44,627.32c3,4.25,11.05,6.79,13.57,7.64-3.18,2.28-5.48,3.72-5.48,3.72l-11.42-6.74S359.73,629.93,361.44,627.32Z"/><path class="cls-6" d="M304.16,747.92l5.46,4.44s9.58-9.47,10.94-13.45.44-4,2.66-6,2-7.89,2-7.89,6.6-8.86,7.3-13.58,16.29-15.79,16.29-15.79a26.25,26.25,0,0,0,.7-10.47c-.85-5.49,6.18-17.6,10.44-20.91a6.22,6.22,0,0,0,1.94-7.77s14-20.29,13.44-20.75-15.64-4.24-15.43-11.42L348.3,644.05l-27.75,33.72s.12,7.17-4.81,9.38S307,701,307,701L295.83,724.7Z"/><path class="cls-4" d="M557,506.36s6.66,8,8.1,6.59,23.4-9.53,15.65-23.48-30.4-48.78-90.69-76.61c0,0-2.36-3.62-6.74,3.29A169.71,169.71,0,0,1,473.28,430s6,8,12.22,11.91S548.19,476.83,557,506.36Z"/><path class="cls-9" d="M557,506.36s6.66,8,8.1,6.59,23.4-9.53,15.65-23.48-30.4-48.78-90.69-76.61c0,0-2.36-3.62-6.74,3.29A169.71,169.71,0,0,1,473.28,430s6,8,12.22,11.91S548.19,476.83,557,506.36Z"/><path class="cls-4" d="M555.35,508.41s6.66,8,8.1,6.58,23.4-9.53,15.65-23.48-30.4-48.77-90.69-76.61c0,0-2.37-3.62-6.74,3.29a167.71,167.71,0,0,1-10.05,13.89s6,8,12.22,11.91S546.52,478.87,555.35,508.41Z"/><path class="cls-5" d="M296.92,731.86c2.51-2.1,5.57-3.61,7.79-6s3.49-6.14,1.71-9.23a16.59,16.59,0,0,1-1.46-2.46,5.22,5.22,0,0,1,.69-4.14,18.1,18.1,0,0,1,3.22-4.36c1.29-1.29,2.85-2.54,3.09-4.39.42-3.28-3.36-5.82-6.54-7.39l6.17-5.7c.49-.45,1-1,.88-1.67a2.48,2.48,0,0,0-1.14-1.37c-2.44-1.76-5.07-3.42-8-3.93s-6.06.34-7.37,2.72c-1.52,2.77-.32,6.93-2.66,9-1.82,1.64-4.81,1.18-7.32,1.53a10.3,10.3,0,0,0-8.47,9.1c-.54,4.52,1.61,9.34,5.1,12.74,1.93,1.88,4.29,3.42,5.72,5.66a5.79,5.79,0,0,1,.64,5.1"/><path class="cls-11" d="M547.37,558.21l-5.13,2.28s-17.93.3-20.89-1.06-15.16-6.75-16.67-8-30.11-22.23-30.11-22.23l2.34-9.42L517,541l17.86,1.81Z"/><path class="cls-7" d="M379.44,595.29l12-11.07,4.62-4.26,8.93,5.56s-.51,2.41-1.39,6c-2.67,11-8.86,33-15.25,32.49-8.5-.68.28-14.19.28-14.19l-8.43-2.33Z"/><rect class="cls-12" x="406.93" y="535.43" width="71.98" height="52.7" transform="translate(-272.38 550.82) rotate(-50.87)"/><rect class="cls-9" x="406.93" y="535.43" width="71.98" height="52.7" transform="translate(-272.38 550.82) rotate(-50.87)"/><polygon class="cls-12" points="419.89 593.4 383.85 555.09 437.82 507.21 473.86 545.52 419.89 593.4"/><polygon class="cls-13" points="420.37 585.03 401.82 565.32 429.6 540.67 448.15 560.39 420.37 585.03"/><polygon class="cls-13" points="456.96 554.12 434.49 530.23 440.52 524.88 462.99 548.76 456.96 554.12"/><ellipse class="cls-9" cx="257.06" cy="726.58" rx="27.54" ry="30.46" transform="translate(-468.78 467.44) rotate(-50.87)"/><ellipse class="cls-10" cx="256.65" cy="727.09" rx="27.54" ry="30.46" transform="translate(-469.33 467.31) rotate(-50.87)"/><path class="cls-5" d="M289,727.11a2.86,2.86,0,0,1-1.51,1.51c-2.27,1-4.95-1-6.95-2.75-4.71-4.17-10-8.54-16.12-8.86-2.51-.14-6.62,1.29-8.47-1.12-1.65-2.15-.46-5.36-2.14-7.64-1.21-1.66-3.34-2.32-5.13-3.33-2.58-1.43-4.63-3.65-6.91-5.53s-5.09-3.52-7.89-3.27c-3.77.32-6,3.79-8.11,6.74a50.44,50.44,0,0,1-9.6,10.14c-3.64,2.91-8,5.9-8.34,10.69-.29,4.55,3.32,8.81,4.43,13.39,1.06,4.26-.16,8.7,1.17,12.94,1.68,5.33,6.88,9,11.67,12.19l10.42,6.93c2.68,1.79,5.5,3.63,8.64,4,5.67.59,10.27-4,15.93-3.82,2.51.09,5,1.13,7.47,1.7s5.35.58,7-1.08c1.41-1.39,1.65-3.55,2.4-5.39,1.81-4.38,6.41-6.67,10.36-9.36s7.65-6.83,6.5-11.68c-.23-1-.65-1.94-.85-2.93-.68-3.4,1.38-6.52,3.89-8.62"/><ellipse class="cls-5" cx="275.39" cy="700.11" rx="1.65" ry="0.73" transform="translate(-441.49 471.9) rotate(-50.87)"/><ellipse class="cls-5" cx="279.72" cy="694.79" rx="1.65" ry="0.73" transform="translate(-435.76 473.29) rotate(-50.87)"/><path class="cls-10" d="M383.61,592.7c-1.12.13-2.83,1.42-4.8,3.36l.56,13.07S388.49,592.09,383.61,592.7Z"/><path class="cls-9" d="M478.06,461.08s23.62-6.45,56.79,23.29c31.27,28,35.38,55.37,30.46,59.86s-12.19,19.22-22.06,17.13c-5.73-1.21-10-6.77-12.66-11.22a10.31,10.31,0,0,0-8.8-5.06c-5.7,0-14.66-2.06-22.73-12.74a10.31,10.31,0,0,0-4-3.16c-5.15-2.26-16.79-8.38-20.41-18.76a10.33,10.33,0,0,0-7.65-6.66l-.14,0c-4.92-.88-6.33-31.46-6.33-31.46S470.84,458,478.06,461.08Z"/><path class="cls-11" d="M478.48,460.57s23.61-6.45,56.79,23.29c31.27,28,35.37,55.37,30.46,59.86s-12.19,19.22-22.07,17.13c-5.72-1.22-10-6.77-12.65-11.22a10.32,10.32,0,0,0-8.8-5.06c-5.71,0-14.66-2.06-22.74-12.75a10.14,10.14,0,0,0-4-3.15c-5.14-2.26-16.78-8.38-20.41-18.76a10.3,10.3,0,0,0-7.64-6.66l-.15,0c-4.91-.88-6.32-31.46-6.32-31.46S471.26,457.53,478.48,460.57Z"/><ellipse class="cls-9" cx="512.41" cy="511.95" rx="26.23" ry="29.01" transform="translate(-208.09 586.34) rotate(-50.87)"/><ellipse class="cls-7" cx="512.83" cy="511.44" rx="26.23" ry="29.01" transform="translate(-207.54 586.48) rotate(-50.87)"/><path class="cls-14" d="M505,534.27c2.83,1.35,6.06,2.14,8.68,1.26,1.59-.53,2.9-1.64,4.64-1.73,2.48-.14,4.9,1.79,7.42,2.63s5.86-.67,4.63-3a5.18,5.18,0,0,0,6.4-.37c1.57-1.44,2.21-3.62,2.81-5.71,1.93-6.78,3.87-13.91,2-21.35-3-12.14-14.91-21.38-25.82-29.23a7,7,0,0,0-2.87-1.48c-1.67-.24-2.87.94-4,1.92-4.73,4.2-11.21,6.24-16.87,9.31s-10.85,7.87-11,14.57C480.84,511,495.47,529.77,505,534.27Z"/><path class="cls-9" d="M391.44,584.22l4.62-4.26,8.93,5.56s-.51,2.41-1.39,6l-12.26-6.94Z"/><path class="cls-11" d="M469.66,470.65l-8.73,1.11-21.21,28a52,52,0,0,0-5.8,5.19c-2.54,2.75-5.26,11.28-5.26,11.28a25,25,0,0,1-4.64,2.45c-2.8,1.12-3.81,7.93-3.81,7.93s-5.64,15.22-12.18,19.8-7.21,9.69-7.21,9.69-3.74,8-6.14,10.56-.53,8.35-.53,8.35l-2.39,9.08,13.71,7.76,18.7-23s17.11-22.57,21.33-26.22,5.28-9.56,5.28-9.56,6.44-5.22,7.25-8.53,3.26-10.93,3.26-10.93a15.52,15.52,0,0,0,4.67-6.51c1.3-3.91,3.81-4.69,3.81-4.69Z"/><g class="cls-15"><path d="M214.8,714.67a50.64,50.64,0,0,0,8.24-8.38,51.36,51.36,0,0,1-7,6.82c-2.34,1.86-5,3.79-6.67,6.16A49.74,49.74,0,0,1,214.8,714.67Z"/><path d="M291.65,742.16c.19,1,.62,2,.85,2.94a8.66,8.66,0,0,1-1.67,7.12c2.24-2.42,3.67-5.36,2.92-8.66-.23-1-.65-1.94-.85-2.93a7.74,7.74,0,0,1,1.42-5.93C292.42,736.71,291.08,739.33,291.65,742.16Z"/><path d="M277.94,762.69a11.22,11.22,0,0,0-2.31,3.46c-.56,1.36-.84,2.91-1.52,4.18.1-.12.24-.2.36-.32,1.41-1.4,1.65-3.56,2.41-5.39A10.05,10.05,0,0,1,277.94,762.69Z"/><path d="M232.51,697.78c2.81-.26,5.61,1.39,7.89,3.27s4.33,4.11,6.91,5.53c1.81,1,3.92,1.66,5.13,3.33,1.68,2.29.49,5.49,2.13,7.63,1.88,2.44,6,1,8.47,1.13,6.06.34,11.39,4.72,16.12,8.87,2,1.77,4.68,3.7,6.95,2.73a2.79,2.79,0,0,0,1.51-1.51l7.7,4.63a14.36,14.36,0,0,1,1.43-1.38l-7.92-4.74a2.78,2.78,0,0,1-1.5,1.51c-2.28,1-5-1-7-2.73-4.71-4.17-10-8.55-16.11-8.87-2.51-.14-6.62,1.29-8.47-1.13-1.65-2.14-.46-5.35-2.14-7.63-1.21-1.66-3.33-2.32-5.12-3.33-2.59-1.43-4.64-3.65-6.92-5.53s-5.09-3.51-7.89-3.27-4.86,2.32-6.56,4.61A8.11,8.11,0,0,1,232.51,697.78Z"/></g><g class="cls-15"><path d="M304.75,715.8a15.83,15.83,0,0,0,1.47,2.46,6.66,6.66,0,0,1,.67,4.74,7.16,7.16,0,0,0,0-6.73,14.71,14.71,0,0,1-1.46-2.47,3.62,3.62,0,0,1-.14-1.87A5,5,0,0,0,304.75,715.8Z"/><path d="M305.22,695.52c3.09,1.52,6.74,4,6.54,7.14a4.16,4.16,0,0,0,.67-1.74c.38-3-2.66-5.32-5.59-6.9Z"/><path d="M295.8,685.54c1.33-2.37,4.5-3.23,7.36-2.7s5.52,2.18,8,3.93a3.29,3.29,0,0,1,1,1,1.51,1.51,0,0,0,.62-2.16,1.9,1.9,0,0,0-.94-.83c-2.44-1.76-5.07-3.42-8-3.94s-6.06.34-7.37,2.73A7.06,7.06,0,0,0,295.8,685.54Z"/><path d="M278.25,702a10,10,0,0,1,7.58-5.84c2.52-.38,5.5.1,7.31-1.54a5,5,0,0,0,1.46-3,4,4,0,0,1-.78,1c-1.81,1.64-4.81,1.18-7.31,1.53A10.24,10.24,0,0,0,278.25,702Z"/></g><g class="cls-15"><path d="M526.34,535.64c-2.51-.84-4.93-2.77-7.41-2.63-1.75.09-3.06,1.2-4.64,1.72-2.61.9-5.84.09-8.67-1.25-9.49-4.49-24.15-23.31-24-33.14a13.48,13.48,0,0,1,2.86-7.93,13.81,13.81,0,0,0-3.69,8.94c-.19,9.83,14.45,28.63,23.95,33.14,2.83,1.35,6.05,2.14,8.68,1.26,1.58-.53,2.89-1.64,4.64-1.73,2.48-.13,4.9,1.8,7.41,2.63,1.91.65,4.3-.08,4.79-1.49A4.7,4.7,0,0,1,526.34,535.64Z"/><path d="M537.35,532.27a5.15,5.15,0,0,1-6.4.37,1.81,1.81,0,0,1,.15,1.58,5.26,5.26,0,0,0,5.44-.91,6.86,6.86,0,0,0,1-1.26A.87.87,0,0,0,537.35,532.27Z"/></g><rect class="cls-12" x="278.42" y="577.46" width="78.13" height="66.27" transform="translate(-356.52 471.52) rotate(-50.87)"/><rect class="cls-9" x="278.42" y="577.46" width="78.13" height="66.27" transform="translate(-356.52 471.52) rotate(-50.87)"/><polygon class="cls-12" points="307.45 633.79 250.38 600.45 287.61 531.48 344.67 564.82 307.45 633.79"/><polygon class="cls-13" points="328.29 583.08 314.88 575.25 323.63 559.05 337.04 566.88 328.29 583.08"/><polygon class="cls-13" points="309.74 572.25 296.33 564.41 305.07 548.21 318.48 556.04 309.74 572.25"/><polygon class="cls-13" points="314.98 602.98 267.96 575.5 276.75 559.23 323.77 586.71 314.98 602.98"/><polygon class="cls-13" points="304.77 622.63 257.76 595.16 259.72 591.53 306.73 619 304.77 622.63"/><polygon class="cls-13" points="308.11 615.74 261.1 588.26 263.06 584.63 310.07 612.11 308.11 615.74"/><path class="cls-10" d="M276.23,654.75s41.08-2.22,33.65-17.32-34.34,2.19-34.34,2.19l-6.23,3.84Z"/><path class="cls-9" d="M276.75,658.33l7.67-3.46s-12.92-13.54-12.72-19.93l-6.59,11.74-1.46,6.12Z"/><path class="cls-6" d="M275.77,658.38l7.67-3.46S270.52,641.38,270.71,635l-6.58,11.74-1.46,6.12Z"/><polygon class="cls-16" points="275.82 480.21 276.29 480.27 276 479.75 275.51 479.41 275.21 479.65 275.82 480.21"/><polygon class="cls-9" points="275.82 480.21 276.29 480.27 276 479.75 275.51 479.41 275.21 479.65 275.82 480.21"/><polygon class="cls-17" points="275.82 480.21 276.28 480.29 276.31 480.76 275.97 480.86 275.8 480.79 275.82 480.21"/><polygon class="cls-9" points="275.82 480.21 276.28 480.29 276.31 480.76 275.97 480.86 275.8 480.79 275.82 480.21"/><path class="cls-17" d="M191.5,470.27l-1.44,49a3.81,3.81,0,0,0,3.31,3.76h0L271,533a3,3,0,0,0,3.54-2.89l1.81-49.34Z"/><path class="cls-9" d="M191.5,470.27l-1.44,49a3.81,3.81,0,0,0,3.31,3.76h0L271,533a3,3,0,0,0,3.54-2.89l1.81-49.34Z"/><path class="cls-17" d="M191,469.74l-1.44,49a3.79,3.79,0,0,0,3.31,3.76h0l77.59,9.93a3,3,0,0,0,3.54-2.88l1.83-49.36Z"/><path class="cls-16" d="M176.52,448l14.67,21.21L276,479.74,261.19,458.1a4.15,4.15,0,0,0-2.91-1.77L177.13,447a.63.63,0,0,0-.78.52A.75.75,0,0,0,176.52,448Z"/><path class="cls-9" d="M176.52,448l14.67,21.21L276,479.74,261.19,458.1a4.15,4.15,0,0,0-2.91-1.77L177.13,447a.63.63,0,0,0-.78.52A.75.75,0,0,0,176.52,448Z"/><path class="cls-16" d="M176.36,448.49,191,469.7l84.81,10.5L261,458.56a4.13,4.13,0,0,0-2.91-1.77L177,447.43a.63.63,0,0,0-.77.54A.73.73,0,0,0,176.36,448.49Z"/><g class="cls-15"><path d="M199,478.47l-.08,3a.77.77,0,0,0,.67.75l3.14.45a.62.62,0,0,0,.71-.57l.17-2.87a.76.76,0,0,0-.64-.77l-3.24-.55A.63.63,0,0,0,199,478.47Z"/><path d="M204.68,479.18l-.06,3a.77.77,0,0,0,.66.75l3.15.43a.61.61,0,0,0,.71-.56l.17-2.88a.77.77,0,0,0-.63-.77l-3.26-.55a.62.62,0,0,0-.73.57Z"/><path d="M210.68,479.93l-.06,3a.78.78,0,0,0,.66.75l3.15.43a.62.62,0,0,0,.72-.57l.17-2.87a.78.78,0,0,0-.64-.77l-3.25-.55a.62.62,0,0,0-.74.57Z"/><path d="M216.77,480.68l-.08,3a.77.77,0,0,0,.66.74l3.16.43a.61.61,0,0,0,.71-.56l.17-2.88a.78.78,0,0,0-.63-.77l-3.26-.54a.61.61,0,0,0-.73.58Z"/><path d="M222.84,481.43l-.07,3a.78.78,0,0,0,.66.75l3.15.43a.61.61,0,0,0,.71-.56l.17-2.88a.77.77,0,0,0-.63-.77l-3.26-.55a.62.62,0,0,0-.73.58Z"/><path d="M228.92,481.82l-.09,3.71a.35.35,0,0,0,.3.35h0l3.87.53a.28.28,0,0,0,.33-.26h0l.22-3.57a.36.36,0,0,0-.3-.36l-4-.7a.29.29,0,0,0-.36.24Z"/><path d="M235,482.57l-.08,3.73a.36.36,0,0,0,.31.35h0l3.87.53a.29.29,0,0,0,.33-.27l.21-3.57a.35.35,0,0,0-.28-.36h0l-4-.69a.28.28,0,0,0-.37.21Z"/><path d="M240.37,483.24l-.07,3.69a.36.36,0,0,0,.31.35l3.87.53a.29.29,0,0,0,.34-.26L245,484a.38.38,0,0,0-.3-.36l-4-.69a.29.29,0,0,0-.38.21A.21.21,0,0,0,240.37,483.24Z"/><path d="M246.38,484l-.08,3.72a.35.35,0,0,0,.31.34l3.87.54a.29.29,0,0,0,.33-.27h0l.22-3.57a.37.37,0,0,0-.3-.36l-4-.7a.31.31,0,0,0-.37.25Z"/><path d="M252.2,484.73l-.09,3.72a.36.36,0,0,0,.31.35h0l3.87.53a.28.28,0,0,0,.34-.26h0l.21-3.57a.36.36,0,0,0-.3-.37l-4-.69a.29.29,0,0,0-.36.24Z"/><path d="M258.05,485.44l-.11,3.7a.36.36,0,0,0,.31.35l3.87.53a.28.28,0,0,0,.34-.26h0l.21-3.58a.36.36,0,0,0-.3-.36l-4-.69a.28.28,0,0,0-.34.26Z"/><path d="M263.88,486.17l-.09,3.71a.35.35,0,0,0,.3.35h0l3.86.54a.28.28,0,0,0,.34-.26h0l.21-3.57a.36.36,0,0,0-.3-.37l-4-.69a.29.29,0,0,0-.35.25Z"/><path d="M198.81,483.86l-.07,3a.78.78,0,0,0,.66.75l3.13.41a.62.62,0,0,0,.72-.56l.17-2.88a.76.76,0,0,0-.64-.76l-3.25-.55A.62.62,0,0,0,198.81,483.86Z"/><path d="M198.46,495.65l-.08,3a.79.79,0,0,0,.66.75l3.15.43a.62.62,0,0,0,.72-.56l.17-2.87a.78.78,0,0,0-.64-.78l-3.25-.55A.63.63,0,0,0,198.46,495.65Z"/><path d="M204.53,484.57l-.07,3a.77.77,0,0,0,.66.74l3.15.44a.62.62,0,0,0,.71-.57l.18-2.87a.79.79,0,0,0-.64-.77l-3.25-.55a.62.62,0,0,0-.74.57Z"/><path d="M210.53,485.32l-.07,3a.79.79,0,0,0,.66.76l3.14.44a.62.62,0,0,0,.72-.57l.17-2.87a.79.79,0,0,0-.64-.77l-3.25-.55A.62.62,0,0,0,210.53,485.32Z"/><path d="M216.61,486.08l-.08,3a.78.78,0,0,0,.66.75l3.17.41a.61.61,0,0,0,.71-.56l.17-2.88a.75.75,0,0,0-.64-.76l-3.24-.55a.63.63,0,0,0-.75.56Z"/><path d="M204.18,496.18l-.06,3a.78.78,0,0,0,.66.75l3.15.43a.61.61,0,0,0,.71-.56l.17-2.88a.77.77,0,0,0-.63-.77l-3.26-.55a.62.62,0,0,0-.73.57Z"/><path d="M210.19,496.92l-.07,3a.78.78,0,0,0,.66.75l3.13.44a.62.62,0,0,0,.72-.56l.17-2.87a.77.77,0,0,0-.64-.77l-3.25-.55A.62.62,0,0,0,210.19,496.92Z"/><path d="M216.26,497.68l-.06,3a.77.77,0,0,0,.65.75l3.17.42a.62.62,0,0,0,.71-.57l.17-2.87a.77.77,0,0,0-.64-.78l-3.25-.54a.62.62,0,0,0-.74.57Z"/><path d="M222.68,486.83l-.07,3a.78.78,0,0,0,.65.76l3.14.41a.62.62,0,0,0,.71-.57l.2-2.85a.78.78,0,0,0-.63-.77l-3.26-.54a.61.61,0,0,0-.74.57Z"/><path d="M228.75,487.59l-.07,3a.79.79,0,0,0,.66.75l3.15.43a.63.63,0,0,0,.72-.56l.17-2.88a.79.79,0,0,0-.64-.77l-3.25-.55a.62.62,0,0,0-.74.57Z"/><path d="M234.83,488l-.08,3.71a.34.34,0,0,0,.3.35h0l3.87.52a.28.28,0,0,0,.34-.25h0l.21-3.57a.36.36,0,0,0-.29-.36h0l-4-.69a.29.29,0,0,0-.36.24Z"/><path d="M240.21,488.64l-.09,3.72a.35.35,0,0,0,.31.34l3.86.53a.29.29,0,0,0,.34-.27l.21-3.57a.36.36,0,0,0-.29-.36l-4-.69a.28.28,0,0,0-.35.22Z"/><path d="M246.23,489.39l-.09,3.71a.36.36,0,0,0,.31.35l3.87.53a.27.27,0,0,0,.33-.25h0l.22-3.58a.37.37,0,0,0-.3-.36l-4-.69a.29.29,0,0,0-.36.25Z"/><path d="M252.06,490.11l-.09,3.72a.36.36,0,0,0,.31.35h0l3.85.55a.29.29,0,0,0,.34-.26h0l.21-3.57a.35.35,0,0,0-.3-.36l-4-.69a.28.28,0,0,0-.34.26Z"/><path d="M210.36,490.94l-.06,3a.78.78,0,0,0,.65.75l3.16.42a.61.61,0,0,0,.71-.56l.17-2.88a.77.77,0,0,0-.63-.76l-3.26-.55a.63.63,0,0,0-.74.57Z"/><path d="M216.44,491.69l-.07,3a.79.79,0,0,0,.67.75l3.14.42a.62.62,0,0,0,.72-.56l.17-2.87a.77.77,0,0,0-.63-.78l-3.26-.54a.62.62,0,0,0-.74.58Z"/><path d="M222.51,492.44l-.07,3a.77.77,0,0,0,.67.75l3.14.44a.63.63,0,0,0,.72-.57l.17-2.87a.78.78,0,0,0-.64-.78l-3.25-.54a.62.62,0,0,0-.74.57Z"/><path d="M228.58,493.2l-.06,3a.78.78,0,0,0,.66.75l3.15.43a.62.62,0,0,0,.71-.56l.19-2.9a.79.79,0,0,0-.64-.77l-3.25-.55a.62.62,0,0,0-.75.56A.43.43,0,0,0,228.58,493.2Z"/><path d="M234.64,493.56l-.09,3.71a.35.35,0,0,0,.3.35h0l3.87.53a.29.29,0,0,0,.34-.26l.21-3.58A.34.34,0,0,0,239,494h0l-4-.69a.29.29,0,0,0-.36.24Z"/><path d="M240,494.24,240,498a.37.37,0,0,0,.32.35l3.86.52a.28.28,0,0,0,.34-.26l.21-3.57a.36.36,0,0,0-.3-.37l-4-.69a.29.29,0,0,0-.36.24Z"/><path d="M246.05,495l-.09,3.72a.37.37,0,0,0,.32.35l3.86.53a.29.29,0,0,0,.34-.27l.21-3.57a.36.36,0,0,0-.3-.36l-4-.69a.28.28,0,0,0-.36.22Z"/><path d="M251.89,495.72l-.09,3.72a.36.36,0,0,0,.32.35h0l3.87.53a.29.29,0,0,0,.33-.27l.21-3.57a.35.35,0,0,0-.28-.36h0l-4-.69a.29.29,0,0,0-.37.22Z"/><path d="M257.89,490.84l-.09,3.72a.35.35,0,0,0,.31.34l3.87.53a.27.27,0,0,0,.33-.25h0l.21-3.58a.37.37,0,0,0-.3-.36l-4-.69a.3.3,0,0,0-.36.25Z"/><path d="M263.72,491.56l-.08,3.72a.34.34,0,0,0,.3.35h0l3.87.53a.29.29,0,0,0,.34-.26h0l.21-3.57a.35.35,0,0,0-.3-.36l-4-.69a.29.29,0,0,0-.36.24Z"/><path d="M245.88,501.1l0,3.52a.48.48,0,0,0,.42.47l3.65.5a.39.39,0,0,0,.45-.35h0l.19-3.36a.46.46,0,0,0-.38-.48h0l-3.77-.63a.39.39,0,0,0-.5.31Z"/><path d="M251.71,501.82l-.08,3.5a.48.48,0,0,0,.42.47h0l3.67.47a.37.37,0,0,0,.44-.34h0l.21-3.37a.49.49,0,0,0-.4-.48l-3.77-.64a.39.39,0,0,0-.48.33A.13.13,0,0,0,251.71,501.82Z"/><path d="M257.55,502.54l-.09,3.51a.49.49,0,0,0,.42.47l3.65.5a.38.38,0,0,0,.45-.35h0l.2-3.36a.46.46,0,0,0-.38-.48h0l-3.77-.64a.38.38,0,0,0-.46.34Z"/><path d="M263.38,503.17l-.09,3.72a.35.35,0,0,0,.31.34l3.87.53a.29.29,0,0,0,.34-.26l.21-3.57a.39.39,0,0,0-.3-.37l-4-.69a.28.28,0,0,0-.36.21Z"/><path d="M198.48,489.54l-.07,3.21a.8.8,0,0,0,.67.75l9.06,1.07a.61.61,0,0,0,.7-.56l.2-3.19a.78.78,0,0,0-.67-.77h0l-9.18-1.1A.61.61,0,0,0,198.48,489.54Z"/><path d="M257.67,496.53l-.07,3.92a.35.35,0,0,0,.3.35h0l9.78,1.16a.27.27,0,0,0,.32-.26l.25-3.9a.35.35,0,0,0-.3-.36h0L258,496.25A.3.3,0,0,0,257.67,496.53Z"/><path d="M222.25,498.15l-.14,3.69a.38.38,0,0,0,.31.36l21.44,2.91a.29.29,0,0,0,.33-.26l.23-3.89a.36.36,0,0,0-.3-.37h0l-21.53-2.71a.28.28,0,0,0-.33.27Z"/></g><path class="cls-16" d="M198.64,478.1l-.07,3a.79.79,0,0,0,.67.75l3.14.42a.62.62,0,0,0,.72-.56l.17-2.87a.77.77,0,0,0-.63-.78l-3.26-.54a.62.62,0,0,0-.74.58Z"/><path class="cls-16" d="M204.38,478.83l-.07,3a.79.79,0,0,0,.66.75l3.15.43a.62.62,0,0,0,.72-.56l.17-2.88a.78.78,0,0,0-.64-.77l-3.25-.55a.62.62,0,0,0-.74.57Z"/><path class="cls-16" d="M210.36,479.55l-.07,3a.79.79,0,0,0,.67.76l3.15.42a.61.61,0,0,0,.71-.56l.17-2.88a.77.77,0,0,0-.64-.77L211.1,479a.61.61,0,0,0-.74.57Z"/><path class="cls-16" d="M216.44,480.32l-.07,3a.79.79,0,0,0,.66.75l3.15.43a.62.62,0,0,0,.73-.59h0l.17-2.87a.77.77,0,0,0-.64-.78l-3.25-.54a.63.63,0,0,0-.75.57Z"/><path class="cls-16" d="M222.51,481.07l-.07,3a.79.79,0,0,0,.66.75l3.15.43a.62.62,0,0,0,.72-.56l.17-2.87a.77.77,0,0,0-.64-.78l-3.25-.54a.62.62,0,0,0-.74.58Z"/><path class="cls-16" d="M228.59,481.45l-.08,3.72a.35.35,0,0,0,.3.35h0l3.87.53a.28.28,0,0,0,.33-.26h0l.21-3.57a.35.35,0,0,0-.3-.36l-4-.69a.28.28,0,0,0-.35.24A.09.09,0,0,0,228.59,481.45Z"/><path class="cls-16" d="M234.66,482.21l-.08,3.71a.36.36,0,0,0,.31.36h0l3.87.52a.28.28,0,0,0,.33-.26h0l.22-3.58a.34.34,0,0,0-.3-.35h0l-4-.7a.29.29,0,0,0-.35.26S234.66,482.19,234.66,482.21Z"/><path class="cls-16" d="M240,482.87,240,486.6a.34.34,0,0,0,.31.34l3.85.55a.29.29,0,0,0,.34-.26l.21-3.57a.39.39,0,0,0-.3-.37l-4-.69a.28.28,0,0,0-.34.26Z"/><path class="cls-16" d="M246.06,483.62l-.07,3.7a.36.36,0,0,0,.31.35l3.87.53a.28.28,0,0,0,.34-.26h0l.21-3.57a.35.35,0,0,0-.3-.36l-4-.69a.29.29,0,0,0-.37.22A.28.28,0,0,0,246.06,483.62Z"/><path class="cls-16" d="M251.89,484.35l-.08,3.72a.36.36,0,0,0,.3.35h0l3.88.52a.27.27,0,0,0,.33-.25h0l.21-3.57a.34.34,0,0,0-.29-.36h0l-4-.69a.28.28,0,0,0-.35.24A.07.07,0,0,0,251.89,484.35Z"/><path class="cls-16" d="M257.73,485.07l-.09,3.72a.36.36,0,0,0,.31.35l3.86.53a.29.29,0,0,0,.34-.27l.21-3.57a.36.36,0,0,0-.29-.36l-4-.69a.29.29,0,0,0-.36.24Z"/><path class="cls-16" d="M263.56,485.8l-.09,3.72a.35.35,0,0,0,.3.35h0l3.87.52a.27.27,0,0,0,.33-.25h0l.21-3.57a.34.34,0,0,0-.29-.36h0l-4-.69a.29.29,0,0,0-.36.24S263.55,485.78,263.56,485.8Z"/><path class="cls-16" d="M198.5,483.48l-.07,3a.78.78,0,0,0,.66.75l3.15.42a.61.61,0,0,0,.71-.56l.18-2.87a.78.78,0,0,0-.64-.78l-3.26-.54a.62.62,0,0,0-.73.58Z"/><path class="cls-16" d="M198.14,495.29l-.07,3a.79.79,0,0,0,.66.75l3.15.43a.61.61,0,0,0,.71-.56l.17-2.88a.77.77,0,0,0-.63-.77l-3.25-.55a.63.63,0,0,0-.74.58Z"/><path class="cls-16" d="M204.2,484.21l-.07,3a.79.79,0,0,0,.66.75l3.15.43a.61.61,0,0,0,.71-.56l.17-2.88a.77.77,0,0,0-.63-.77l-3.25-.55A.64.64,0,0,0,204.2,484.21Z"/><path class="cls-16" d="M210.2,485l-.09,3a.79.79,0,0,0,.66.75l3.15.43a.61.61,0,0,0,.72-.57l.18-2.87a.79.79,0,0,0-.65-.77l-3.25-.55a.63.63,0,0,0-.72.6Z"/><path class="cls-16" d="M216.28,485.71l-.07,3a.78.78,0,0,0,.66.76l3.15.42a.62.62,0,0,0,.72-.56l.17-2.88a.78.78,0,0,0-.64-.77l-3.26-.54a.62.62,0,0,0-.73.57Z"/><path class="cls-16" d="M203.86,495.81l-.07,3a.75.75,0,0,0,.65.75l3.15.44a.63.63,0,0,0,.72-.57l.17-2.87a.78.78,0,0,0-.64-.77l-3.25-.55A.62.62,0,0,0,203.86,495.81Z"/><path class="cls-16" d="M209.87,496.56l-.08,3a.78.78,0,0,0,.66.75l3.16.43a.63.63,0,0,0,.72-.56l.17-2.88a.79.79,0,0,0-.64-.77L210.6,496a.61.61,0,0,0-.73.57Z"/><path class="cls-16" d="M215.94,497.31l-.07,3a.76.76,0,0,0,.66.75l3.15.43a.62.62,0,0,0,.72-.56l.17-2.88a.77.77,0,0,0-.64-.77l-3.25-.54a.62.62,0,0,0-.74.57Z"/><path class="cls-16" d="M222.36,486.47l-.07,3a.78.78,0,0,0,.66.75l3.14.44a.62.62,0,0,0,.71-.57l.17-2.87a.77.77,0,0,0-.63-.77l-3.26-.54A.61.61,0,0,0,222.36,486.47Z"/><path class="cls-16" d="M228.43,487.22l-.07,3a.78.78,0,0,0,.66.75l3.17.41a.63.63,0,0,0,.72-.56l.17-2.88a.79.79,0,0,0-.64-.77l-3.25-.55a.62.62,0,0,0-.76.55Z"/><path class="cls-16" d="M234.51,487.6l-.09,3.72a.35.35,0,0,0,.3.35h0l3.85.51a.28.28,0,0,0,.33-.26h0l.21-3.57a.34.34,0,0,0-.29-.36h0l-4-.69a.29.29,0,0,0-.33.28Z"/><path class="cls-16" d="M239.87,488.28l-.09,3.72a.36.36,0,0,0,.32.35l3.86.54a.29.29,0,0,0,.34-.27l.21-3.58a.35.35,0,0,0-.3-.36l-4-.69a.29.29,0,0,0-.37.22Z"/><path class="cls-16" d="M245.91,489l-.09,3.72a.36.36,0,0,0,.31.35l3.86.53a.29.29,0,0,0,.34-.27l.22-3.57a.37.37,0,0,0-.3-.36l-4-.69a.28.28,0,0,0-.36.21A.21.21,0,0,0,245.91,489Z"/><path class="cls-16" d="M251.73,489.74l-.1,3.7a.35.35,0,0,0,.3.35h0l3.88.52a.28.28,0,0,0,.33-.26l.21-3.57a.35.35,0,0,0-.3-.36l-4-.69a.27.27,0,0,0-.34.24Z"/><path class="cls-16" d="M210.05,490.57l-.08,3a.77.77,0,0,0,.66.75l3.16.43a.62.62,0,0,0,.71-.57l.17-2.87a.78.78,0,0,0-.64-.77l-3.25-.54a.61.61,0,0,0-.73.57Z"/><path class="cls-16" d="M216.12,491.32l-.07,3a.78.78,0,0,0,.65.76l3.16.42a.61.61,0,0,0,.71-.56l.17-2.88a.78.78,0,0,0-.63-.77l-3.26-.54a.61.61,0,0,0-.73.58Z"/><path class="cls-16" d="M222.19,492.08l-.05,3a.79.79,0,0,0,.66.75l3.1.39a.62.62,0,0,0,.72-.56l.17-2.87a.77.77,0,0,0-.64-.77l-3.25-.55a.61.61,0,0,0-.71.6Z"/><path class="cls-16" d="M228.26,492.83l-.07,3a.77.77,0,0,0,.66.74L232,497a.63.63,0,0,0,.72-.57l.17-2.87a.79.79,0,0,0-.64-.77l-3.25-.55a.62.62,0,0,0-.74.57Z"/><path class="cls-16" d="M234.34,493.21l-.09,3.72a.36.36,0,0,0,.31.35h0l3.88.53a.28.28,0,0,0,.33-.26L239,494a.36.36,0,0,0-.31-.36h0l-4-.69a.29.29,0,0,0-.36.24Z"/><path class="cls-16" d="M239.72,493.88l-.09,3.72a.37.37,0,0,0,.3.35h0l3.85.51a.28.28,0,0,0,.34-.26l.21-3.57a.35.35,0,0,0-.3-.36l-4-.7a.28.28,0,0,0-.34.26Z"/><path class="cls-16" d="M245.74,494.63l-.09,3.72a.37.37,0,0,0,.31.35l3.87.53a.3.3,0,0,0,.34-.27l.21-3.57a.36.36,0,0,0-.3-.36l-4-.7a.29.29,0,0,0-.36.25Z"/><path class="cls-16" d="M251.57,495.36l-.09,3.71a.37.37,0,0,0,.31.36h0l3.87.52a.28.28,0,0,0,.33-.26h0l.22-3.58a.34.34,0,0,0-.3-.35h0l-4-.69a.3.3,0,0,0-.36.26Z"/><path class="cls-16" d="M257.56,490.47l-.09,3.72a.38.38,0,0,0,.32.35l3.87.53a.3.3,0,0,0,.34-.27l.21-3.57a.37.37,0,0,0-.3-.36l-4-.69a.28.28,0,0,0-.36.22A.15.15,0,0,0,257.56,490.47Z"/><path class="cls-16" d="M263.39,491.19l-.08,3.72a.35.35,0,0,0,.31.35h0l3.87.53a.29.29,0,0,0,.34-.26L268,492a.36.36,0,0,0-.3-.37h0l-4-.68a.27.27,0,0,0-.36.21A.2.2,0,0,0,263.39,491.19Z"/><path class="cls-16" d="M245.56,500.73l-.08,3.51a.48.48,0,0,0,.42.46l3.66.52a.38.38,0,0,0,.45-.36l.2-3.37a.47.47,0,0,0-.4-.48l-3.77-.63a.39.39,0,0,0-.48.32Z"/><path class="cls-16" d="M251.39,501.46l-.08,3.5a.47.47,0,0,0,.41.47h0l3.66.49a.37.37,0,0,0,.44-.35l.21-3.36a.49.49,0,0,0-.4-.49l-3.78-.63a.39.39,0,0,0-.46.36Z"/><path class="cls-16" d="M257.22,502.18l-.05,3.53a.47.47,0,0,0,.41.46l3.66.51a.38.38,0,0,0,.44-.36l.21-3.37a.48.48,0,0,0-.41-.48l-3.77-.63a.37.37,0,0,0-.48.31Z"/><path class="cls-16" d="M263.05,502.79l-.09,3.72a.37.37,0,0,0,.32.35l3.87.53a.29.29,0,0,0,.33-.27l.21-3.57a.35.35,0,0,0-.3-.36l-4-.69a.28.28,0,0,0-.35.24A.09.09,0,0,0,263.05,502.79Z"/><path class="cls-16" d="M198.17,489.15l-.1,3.2a.8.8,0,0,0,.67.75l9.09,1.1a.61.61,0,0,0,.7-.56l.19-3.19a.78.78,0,0,0-.67-.78h0l-9.18-1.09A.61.61,0,0,0,198.17,489.15Z"/><path class="cls-16" d="M257.35,496.16l-.07,3.92a.34.34,0,0,0,.3.35h0l9.78,1.17a.29.29,0,0,0,.33-.27l.23-3.9a.35.35,0,0,0-.3-.36h0l-9.94-1.19A.29.29,0,0,0,257.35,496.16Z"/><path class="cls-16" d="M221.92,497.79l-.15,3.65a.36.36,0,0,0,.31.36l21.42,2.91a.28.28,0,0,0,.34-.25h0l.23-3.88a.36.36,0,0,0-.3-.37h0l-21.53-2.71A.29.29,0,0,0,221.92,497.79Z"/><path class="cls-9" d="M215.51,505.53l-.53,16.2a2,2,0,0,0,1.68,1.93L248,528a1.55,1.55,0,0,0,1.83-1.47h0l.61-16.61a2,2,0,0,0-1.68-1.94h0l-31.43-3.91a1.54,1.54,0,0,0-1.8,1.47Z"/><path class="cls-18" d="M215.21,505.19l-.53,16.2a1.94,1.94,0,0,0,1.68,1.92l31.31,4.3a1.56,1.56,0,0,0,1.84-1.45v0l.62-16.57a1.94,1.94,0,0,0-1.68-1.94h0L217,503.7a1.54,1.54,0,0,0-1.79,1.48Z"/><path class="cls-13" d="M181.14,450.6l12.2,18,78.29,9.62-12.2-17.78a4.12,4.12,0,0,0-2.87-1.76l-74.8-9.15a.62.62,0,0,0-.77.54A.73.73,0,0,0,181.14,450.6Z"/><path class="cls-2" d="M741.32,112.56c-3.8-17.67-9.06-35.5-19.77-50.09C705.8,41,678.41,28.73,652.16,31.38c-22.24,2.23-42.08,14.06-62.73,22.5C564,64.28,536.76,69.66,509.6,74.12,495,76.51,480,78.79,467.21,86.19c-17.73,10.28-29.07,29.87-31.66,50.32s3,41.52,13.25,59.5c5.46,9.58,12.53,18.66,22.19,23.91,10.22,5.57,22.45,6.39,32.62,12,9.44,5.23,16.3,14.16,21.81,23.45a143.23,143.23,0,0,1,15.93,39.09c3.8,15.63,4.93,31.79,8.64,47.42s10.51,31.35,23,41.43c11.78,9.49,27.13,12.89,42,15.29a460.84,460.84,0,0,0,73.6,5.92c16.6,0,33.46-1,49-6.56,29.79-10.66,52.4-39,56.33-70.55,3.26-26.16-5.42-52.45-16.24-76.62-9.86-22-25-45-28.31-69.18C746.33,158.52,746.28,135.63,741.32,112.56Z"/><path class="cls-2" d="M1766.54,409.15c19.21-17.06,37.6-36,48.17-59.49,15.54-34.49,11.6-77-10-107.63-18.31-26-46.83-42.26-71.72-61.91-30.67-24.21-56.37-54.16-80.88-84.67-13.17-16.38-26.49-33.39-44.58-44-25.11-14.75-57.3-15.09-84.42-4s-49.3,32.73-64.39,58c-8,13.46-14.32,28.56-14.07,44.19.26,16.53,7.79,32.24,7.93,48.78.13,15.33-6.13,30.07-13.77,43.39a203.31,203.31,0,0,1-37.25,47.05c-16.68,15.64-35.89,28.33-52.64,43.85s-31.46,34.93-35.18,57.49c-3.5,21.22,3,42.59,10.43,62.63a651.88,651.88,0,0,0,44.13,95.23c11.62,20.54,24.61,40.74,42.41,56.13,34,29.43,84.89,37.61,126.72,20.4,34.66-14.27,61.13-43.39,83.48-73.68,20.38-27.62,38.14-62.45,65.84-83.42C1713.15,447.49,1741.46,431.42,1766.54,409.15Z"/><path class="cls-2" d="M1401.83,769c23.9,1.14,47.67-.18,65.46-12.38,26.17-17.93,36.46-60.09,26-106.77-8.85-39.57-30.6-79.17-47.78-118.7-21.18-48.68-35.74-98.28-49-147.36-7.12-26.36-14.18-53.42-27.88-78.81-19-35.26-49.52-63.51-79-77s-57.7-13-80.4-3c-12.08,5.29-23.06,13.58-28,28-5.21,15.3-3.23,36.15-8.56,51.35-4.94,14.07-15.76,22.07-27.43,27.57-15.25,7.18-32.4,10.72-51,10.53-21-.24-43.5-5.35-64.56-5.76s-41.45,4.51-52.44,21.85C967,374.83,966.12,400,966.55,424.65a967.09,967.09,0,0,0,10.55,125.1c4.27,28.8,9.95,58.48,21.8,88,22.66,56.36,68.34,108,113.82,128.61,37.68,17.1,72.48,13.54,103.74,5.35,28.51-7.47,56.9-23.78,90.18-18.84C1338.38,757.56,1370.61,767.5,1401.83,769Z"/><path class="cls-2" d="M1644,859.46c.94,12.31,3.17,24.2,10.84,31.42,11.26,10.62,34.44,9.55,58.7-2.74,20.56-10.41,40.31-27.38,60.3-42,24.64-18,50.19-32.85,75.54-46.91,13.62-7.55,27.62-15.18,40.3-25.94,17.6-14.94,30.72-34.66,36-51.65s3.21-31.27-3.56-41.32c-3.61-5.35-8.74-9.69-16.78-10-8.51-.36-19.52,3.76-28,3.32-7.84-.41-12.81-4.71-16.5-9.82-4.82-6.68-7.82-14.87-8.91-24.33-1.23-10.73,0-22.91-1.09-33.68s-5.08-20.4-15-23.39c-9.37-2.82-22.85.5-36,4.4a608.31,608.31,0,0,0-66.13,24.05c-15.11,6.48-30.59,13.8-45.57,24.23-28.64,19.93-53.26,50.86-61.34,77.06-6.7,21.71-2.56,38.86,3.83,53.53,5.83,13.37,16.37,25.37,15.88,43C1646,825.5,1642.77,843.37,1644,859.46Z"/><path class="cls-2" d="M795.78,130.15c2.19,9.58,5.28,19,11.87,25.45,9.69,9.52,26.84,11.49,43.46,5,14.08-5.52,26.77-16.18,39.92-25,16.2-10.89,33.47-19.19,50.7-26.94,9.25-4.16,18.77-8.34,26.93-15.08C980,84.18,987.4,70.61,989.29,58.19A42.84,42.84,0,0,0,981.65,26c-3.33-4.55-7.69-8.5-13.72-9.73-6.39-1.31-14.11.53-20.47-.82-5.89-1.26-10.12-5.17-13.49-9.54a55.51,55.51,0,0,1-9.58-19.76c-2.21-8.39-2.72-17.6-4.87-26s-6.25-16.28-14-19.79c-7.33-3.29-17-2.36-26.33-.95a337.17,337.17,0,0,0-46.43,10.51c-10.49,3.15-21.15,6.91-31.07,13.12-19,11.87-33.6,32.66-36.47,51.82-2.39,15.86,2.77,29.55,9.31,41.58,6,11,15.27,21.47,17,35C793.19,104.3,792.93,117.64,795.78,130.15Z"/></svg>