<svg id="레이어_1" data-name="레이어 1" xmlns="http://www.w3.org/2000/svg" viewBox="0 0 1888 714"><defs><style>.cls-1{fill:#f5f5f5;}.cls-2{fill:#e6e6e6;}.cls-3{fill:#ccc;}.cls-4{fill:#fff;}.cls-5{fill:#638eff;}.cls-6{fill:#ffb8b8;}.cls-7{fill:#2f2e41;}.cls-8{fill:#3f3d56;}.cls-9{fill:#f2f2f2;}</style></defs><rect class="cls-1" width="1888" height="714"/><path class="cls-2" d="M1565.87,539.5h-385a8.52,8.52,0,0,1-8.5-8.5V306.87a8.51,8.51,0,0,1,8.5-8.5h385a8.51,8.51,0,0,1,8.5,8.5V531A8.51,8.51,0,0,1,1565.87,539.5Z"/><path class="cls-3" d="M1589.87,570.87h-433V284.37a9.51,9.51,0,0,1,9.5-9.5h414a9.5,9.5,0,0,1,9.5,9.5Zm-431-2h429V284.37a7.5,7.5,0,0,0-7.5-7.5h-414a7.51,7.51,0,0,0-7.5,7.5Z"/><circle class="cls-2" cx="1373.37" cy="287.37" r="4"/><path class="cls-4" d="M1528.38,381.93h-310c-7.54,0-13.65-1.51-13.66-3.38V327.19c0-1.87,6.12-3.38,13.66-3.38h310c7.53,0,13.64,1.51,13.65,3.38v51.36C1542,380.42,1535.91,381.93,1528.38,381.93Z"/><path class="cls-5" d="M1243.87,360.87a8,8,0,1,1,8-8A8,8,0,0,1,1243.87,360.87Z"/><path class="cls-5" d="M1290.29,346.37c-8.24,0-14.92,2.91-14.92,6.5s6.68,6.5,14.92,6.5h213.43c8.24,0,14.92-2.91,14.92-6.5s-6.68-6.5-14.92-6.5Z"/><polygon class="cls-6" points="1784.16 583.44 1771.9 583.24 1766.86 535.86 1784.95 536.16 1784.16 583.44"/><path class="cls-7" d="M1763.21,579.59l23.64.39h0l-.25,14.89h0l-38.53-.65h0A14.88,14.88,0,0,1,1763.21,579.59Z"/><polygon class="cls-6" points="1662.51 583.33 1651.15 578.73 1663.48 532.71 1680.26 539.5 1662.51 583.33"/><path class="cls-7" d="M1644.35,572.2l21.91,8.87h0l-5.58,13.8h0L1625,580.41h0a14.89,14.89,0,0,1,19.39-8.21Z"/><path class="cls-7" d="M1703.49,406l-36,95-15,66,16,8,73-142,27,142.5h16s7.31-169-3.35-182.26Z"/><circle class="cls-7" cx="1720.99" cy="241.54" r="33"/><path class="cls-6" d="M1674.93,466.1a10.73,10.73,0,0,0,3.84-16l25-138.54-23.36-.31-17.39,137a10.8,10.8,0,0,0,11.87,17.87Z"/><path class="cls-6" d="M1818.38,439a10.74,10.74,0,0,0-3.09-14.88,10.93,10.93,0,0,0-2.07-1.06l-44.71-108.58a19.78,19.78,0,0,0-25.82-10.76,19,19,0,0,0-2.91,1.49h0L1799,430a10.8,10.8,0,0,0,19.39,9Z"/><circle class="cls-6" cx="1721.64" cy="253.97" r="24.56"/><path class="cls-3" d="M1691.77,292.81c14.17-5.9,38.63-11.73,65.78,1a24.9,24.9,0,0,1,13.32,15.39L1782.49,348l-15,15,14,31s-53.5,32.5-77.5,12.5l-14.5-51.5-19-5,6.48-38.51A24.68,24.68,0,0,1,1691.77,292.81Z"/><path class="cls-7" d="M1698.67,235.81a73,73,0,0,0,31.6,10.41l-3.33-4a24.37,24.37,0,0,0,7.56,1.5,8.27,8.27,0,0,0,6.75-3.16,7.69,7.69,0,0,0,.51-7.11,14.45,14.45,0,0,0-4.59-5.74,27.32,27.32,0,0,0-25.43-4.55,16.28,16.28,0,0,0-7.59,4.88,9.25,9.25,0,0,0-1.87,8.56"/><path class="cls-7" d="M1694.07,214c-.4-4.2-5.54-6.78-9.56-5.51s-6.67,5.32-7.47,9.46a13.6,13.6,0,0,0,1.83,10.25,9.35,9.35,0,0,0,9.26,4c4-.85,6.74-4.73,7.53-8.73s0-8.1-.78-12.1"/><path class="cls-7" d="M1762.07,216c-.4-4.2-5.54-6.78-9.56-5.51s-6.67,5.32-7.47,9.46a13.6,13.6,0,0,0,1.83,10.25,9.35,9.35,0,0,0,9.26,4c4-.85,6.74-4.73,7.53-8.73s0-8.1-.78-12.1"/><path class="cls-8" d="M1597.37,557.87h-17.5v-3a4,4,0,0,0-4-4h-21a4,4,0,0,0-4,4v3h-3v-3a4,4,0,0,0-4-4h-21a4,4,0,0,0-4,4v3h-3v-3a4,4,0,0,0-4-4h-21a4,4,0,0,0-4,4v3h-3v-3a4,4,0,0,0-4-4h-21a4,4,0,0,0-4,4v3h-3v-3a4,4,0,0,0-4-4h-21a4,4,0,0,0-4,4v3h-3v-3a4,4,0,0,0-4-4h-21a4,4,0,0,0-4,4v3h-3v-3a4,4,0,0,0-4-4h-21a4,4,0,0,0-4,4v3h-3v-3a4,4,0,0,0-4-4h-21a4,4,0,0,0-4,4v3h-3v-3a4,4,0,0,0-4-4h-21a4,4,0,0,0-4,4v3h-3v-3a4,4,0,0,0-4-4h-21a4,4,0,0,0-4,4v3h-3v-3a4,4,0,0,0-4-4h-21a4,4,0,0,0-4,4v3h-3v-3a4,4,0,0,0-4-4h-21a4,4,0,0,0-4,4v3h-3v-3a4,4,0,0,0-4-4h-21a4,4,0,0,0-4,4v3h-17.5a28.5,28.5,0,0,0-28.5,28.5h0a8.51,8.51,0,0,0,8.5,8.5h488a8.5,8.5,0,0,0,8.5-8.5h0A28.5,28.5,0,0,0,1597.37,557.87Z"/><path class="cls-4" d="M1528.38,453h-310c-7.54,0-13.65-1.51-13.66-3.38V398.23c0-1.87,6.12-3.38,13.66-3.38h310c7.53,0,13.64,1.51,13.65,3.38v51.36C1542,451.46,1535.91,453,1528.38,453Z"/><path class="cls-5" d="M1243.87,431.91a8,8,0,1,1,8-8A8,8,0,0,1,1243.87,431.91Z"/><path class="cls-5" d="M1290.29,417.41c-8.24,0-14.92,2.91-14.92,6.5s6.68,6.5,14.92,6.5h213.43c8.24,0,14.92-2.91,14.92-6.5s-6.68-6.5-14.92-6.5Z"/><path class="cls-4" d="M1528.38,524h-310c-7.54,0-13.65-1.51-13.66-3.38V469.27c0-1.87,6.12-3.38,13.66-3.38h310c7.53,0,13.64,1.51,13.65,3.38v51.36C1542,522.5,1535.91,524,1528.38,524Z"/><path class="cls-5" d="M1243.87,503a8,8,0,1,1,8-8A8,8,0,0,1,1243.87,503Z"/><path class="cls-5" d="M1290.29,488.45c-8.24,0-14.92,2.91-14.92,6.5s6.68,6.5,14.92,6.5h213.43c8.24,0,14.92-2.91,14.92-6.5s-6.68-6.5-14.92-6.5Z"/><path class="cls-9" d="M65.38,140.23a.85.85,0,0,0-.6,1l23,86.51a.84.84,0,0,0,1,.6L154.15,211a.84.84,0,0,0,.6-1L131.7,123.43a.84.84,0,0,0-1-.59Z"/><path class="cls-4" d="M81.42,154.52c-.9.24-1.36,1.45-1,2.69s1.33,2.06,2.23,1.82l42.44-11.31c.9-.24,1.36-1.44,1-2.69s-1.33-2.06-2.23-1.82Z"/><path class="cls-4" d="M84,164.31c-.9.24-1.36,1.45-1,2.69s1.33,2.07,2.23,1.83l42.44-11.31c.9-.24,1.36-1.45,1-2.69s-1.33-2.06-2.23-1.82Z"/><path class="cls-4" d="M86.64,174.11c-.9.24-1.36,1.44-1,2.69s1.33,2.06,2.23,1.82l42.44-11.31c.9-.24,1.36-1.45,1-2.69s-1.33-2.06-2.23-1.82Z"/><path class="cls-4" d="M89.25,183.9c-.9.24-1.36,1.45-1,2.69s1.33,2.06,2.23,1.82l42.44-11.3c.9-.24,1.36-1.45,1-2.7s-1.33-2.06-2.23-1.82Z"/><path class="cls-4" d="M91.86,193.7c-.9.24-1.37,1.44-1,2.69s1.33,2.06,2.23,1.82L135.5,186.9c.9-.24,1.36-1.45,1-2.69s-1.33-2.06-2.23-1.82Z"/><path class="cls-4" d="M94.47,203.49c-.9.24-1.37,1.45-1,2.69s1.33,2.06,2.23,1.82l42.44-11.31c.9-.24,1.36-1.44,1-2.69s-1.33-2.06-2.23-1.82Z"/><path class="cls-2" d="M67.77,77.8a.84.84,0,0,0-.35,1.14l42.17,79a.84.84,0,0,0,1.14.35l59.61-31.82a.85.85,0,0,0,.35-1.15l-42.17-79a.84.84,0,0,0-1.14-.34Z"/><path class="cls-4" d="M73.31,80.11l38.59,72.27,52.9-28.24L126.21,51.86ZM70,81.9h0Z"/><path class="cls-5" d="M86.65,88.05c-.82.44-1,1.72-.39,2.86s1.77,1.7,2.59,1.26l38.74-20.68c.82-.44,1-1.72.39-2.86s-1.76-1.7-2.59-1.26Z"/><path class="cls-5" d="M91.42,97c-.82.43-1,1.72-.39,2.85s1.77,1.7,2.59,1.26l38.75-20.68c.82-.44,1-1.72.39-2.86s-1.77-1.7-2.59-1.26Z"/><path class="cls-5" d="M96.2,105.94c-.83.44-1,1.72-.39,2.85a2.1,2.1,0,0,0,2.59,1.27l38.74-20.69c.82-.44,1-1.72.39-2.86s-1.77-1.7-2.59-1.26Z"/><path class="cls-5" d="M101,114.88c-.82.44-1,1.72-.39,2.85s1.77,1.71,2.59,1.27l38.74-20.69c.83-.44,1-1.72.39-2.85s-1.76-1.71-2.59-1.27Z"/><path class="cls-5" d="M105.74,123.82c-.82.44-1,1.72-.39,2.85s1.77,1.71,2.59,1.27l38.75-20.69c.82-.44,1-1.72.39-2.85s-1.77-1.71-2.59-1.27Z"/><path class="cls-5" d="M110.52,132.76c-.82.44-1,1.72-.39,2.85s1.76,1.71,2.59,1.27l38.74-20.69c.82-.44,1-1.72.39-2.85s-1.77-1.7-2.59-1.27Z"/><path class="cls-8" d="M82.8,479.7a1.72,1.72,0,0,0-.71,2.33l86.06,161.19a1.73,1.73,0,0,0,2.33.71L292.13,579a1.73,1.73,0,0,0,.71-2.34L206.78,415.46a1.72,1.72,0,0,0-2.33-.71Z"/><path class="cls-4" d="M94.1,484.41l78.76,147.5,108-57.64L202.07,426.76Zm-6.84,3.65h0Z"/><path class="cls-5" d="M121.33,500.62c-1.68.9-2,3.51-.8,5.83s3.61,3.47,5.28,2.58l79.08-42.22c1.67-.89,2-3.51.79-5.83s-3.6-3.47-5.28-2.57Z"/><path class="cls-5" d="M131.07,518.87c-1.68.9-2,3.51-.8,5.83s3.61,3.47,5.29,2.58l79.07-42.22c1.68-.9,2-3.51.8-5.83s-3.61-3.47-5.29-2.58Z"/><path class="cls-5" d="M140.81,537.12c-1.68.89-2,3.51-.8,5.82s3.61,3.48,5.29,2.58l79.07-42.21c1.68-.9,2-3.51.8-5.83s-3.61-3.47-5.29-2.58Z"/><path class="cls-5" d="M150.55,555.37c-1.67.89-2,3.51-.79,5.82s3.6,3.48,5.28,2.58l79.07-42.22c1.68-.89,2-3.51.8-5.82s-3.61-3.48-5.28-2.58Z"/><path class="cls-5" d="M160.3,573.61c-1.68.9-2,3.51-.8,5.83s3.61,3.48,5.28,2.58l79.08-42.22c1.67-.89,2-3.51.79-5.82s-3.6-3.48-5.28-2.58Z"/><polygon class="cls-7" points="175.65 410.06 247.3 414.43 267.37 354.59 204.52 341.31 175.65 410.06"/><circle class="cls-6" cx="227.32" cy="366.27" r="28.66"/><polygon class="cls-6" points="273.88 423.83 227.43 431.43 215.18 382.87 247.7 379.91 273.88 423.83"/><path class="cls-7" d="M300.91,623.16l.19,2.23a230.37,230.37,0,0,1-112.31,9.51l-.25,4a13.55,13.55,0,0,1-14.4,12.66,13.71,13.71,0,0,1-4-.88l8-17.75,10.13-22.46,6.64-14.72-2.39-50.93-.25-5.27-.32-6.72,4.33,0,30.74-.18,29.3-.19,4.47,0C288.81,566.83,311.92,594.83,300.91,623.16Z"/><path class="cls-5" d="M260.37,531.94,192,539.54l-2.53-47.29c-8-20.48-2.73-38.76,13.93-55.16l3.39-13.41a19.83,19.83,0,0,1,14.67-14.45h0c11.19-6.43,23.88-9.49,38.11-9.05h0a28.44,28.44,0,0,1,18,28.71C274.59,466.06,269.31,500.85,260.37,531.94Z"/><path class="cls-6" d="M240.94,452.55l-.55,4.14-8.74,66L227,532.58l-1.51,3.24-35.25,75.52-1.47,23.56-.25,4a13.54,13.54,0,0,1-27-1.61,13.35,13.35,0,0,1,1.08-4.53L164,629.4l7.68-18.06,20.84-66.56,1.71-5.49,2.05-6.53,5.81-18.55,9.26-57.07.87-5.44Z"/><path class="cls-5" d="M246,458.46c-13.27-4.77-26-5.28-38,0l3.92-33.95a16.19,16.19,0,0,1,15.33-16.72h0a16.19,16.19,0,0,1,17,15.32v.06Z"/><path class="cls-7" d="M205.65,332.41s-14.82,5.41-15.2,25.07a35.6,35.6,0,0,0,1.31,9.79c1,3.61,1.73,11.45-4.73,21.9a202.59,202.59,0,0,0-11.43,21h0l16.68,1.61L195,384.16a137.62,137.62,0,0,1,9.81-39l.11-.26s7.65,13.3,22.2,12.89l-5.34-5.05S240,359.62,250,361a6.28,6.28,0,0,1,5.35,7.08,6.42,6.42,0,0,1-1.57,3.36l-.18.19c-6.06,6.41-18.12,21.31-10.53,32.53s1.45,14.52,1.45,14.52l11.26-6.56,5.11-3.26L261,413l26.93-3.88s7.25-1.25-8.84-18.47c0,0-4.31-6.74-2.67-12.71a30,30,0,0,0,.74-14C273.07,344.58,258.28,306.24,205.65,332.41Z"/><path class="cls-2" d="M297.9,193.67a.86.86,0,0,0-1.16.3l-45.55,77.08a.86.86,0,0,0,.3,1.16l58.17,34.37a.84.84,0,0,0,1.16-.3l45.55-77.07a.85.85,0,0,0-.3-1.16Z"/><path class="cls-4" d="M298.81,199.61l-41.68,70.53,51.63,30.51,41.68-70.54Zm-3.27-1.94h0Z"/><path class="cls-5" d="M299,215.13c-.8-.47-2,0-2.64,1.15s-.53,2.4.27,2.87l37.81,22.34c.8.48,2,0,2.64-1.15s.54-2.39-.26-2.86Z"/><path class="cls-5" d="M293.8,223.86c-.8-.48-2,0-2.64,1.15s-.54,2.39.26,2.87l37.81,22.34c.81.47,2,0,2.65-1.15s.53-2.39-.27-2.87Z"/><path class="cls-5" d="M288.64,232.58c-.8-.47-2,0-2.64,1.15s-.54,2.4.27,2.87L324.08,259c.8.47,2-.05,2.64-1.15s.54-2.4-.27-2.87Z"/><path class="cls-5" d="M283.49,241.31c-.81-.48-2,0-2.65,1.15s-.53,2.39.27,2.87l37.81,22.34c.8.48,2,0,2.64-1.15s.54-2.39-.26-2.87Z"/><path class="cls-5" d="M278.33,250c-.8-.47-2,.05-2.64,1.15s-.54,2.4.26,2.87l37.82,22.35c.8.47,2,0,2.64-1.15s.53-2.4-.27-2.87Z"/><path class="cls-5" d="M273.17,258.76c-.8-.47-2,0-2.64,1.15s-.54,2.4.27,2.87l37.81,22.34c.8.48,2,0,2.64-1.15s.54-2.39-.27-2.87Z"/><path class="cls-9" d="M1603.54,113.28a.85.85,0,0,0-1.16.31l-44.87,77.47a.84.84,0,0,0,.3,1.15l58.47,33.87a.85.85,0,0,0,1.16-.3l44.87-77.48a.84.84,0,0,0-.3-1.15Z"/><path class="cls-4" d="M1604.78,134.73c-.81-.47-2,.06-2.63,1.17s-.52,2.4.29,2.87l38,22c.81.47,2-.06,2.63-1.17s.52-2.4-.29-2.87Z"/><path class="cls-4" d="M1599.7,143.5c-.81-.47-2,.06-2.63,1.17s-.52,2.4.29,2.87l38,22c.81.47,2-.06,2.63-1.17s.52-2.4-.29-2.87Z"/><path class="cls-4" d="M1594.62,152.27c-.81-.47-2,.06-2.63,1.17s-.52,2.4.29,2.87l38,22c.81.47,2-.06,2.63-1.17s.52-2.4-.29-2.87Z"/><path class="cls-4" d="M1589.54,161c-.81-.47-2,.06-2.64,1.17s-.51,2.4.3,2.87l38,22c.81.47,2-.06,2.63-1.17s.52-2.4-.29-2.87Z"/><path class="cls-4" d="M1584.46,169.81c-.81-.47-2,.06-2.64,1.17s-.51,2.4.3,2.87l38,22c.81.47,2-.06,2.63-1.17s.52-2.4-.29-2.87Z"/><path class="cls-4" d="M1579.38,178.58c-.81-.47-2,.06-2.64,1.17s-.51,2.4.3,2.87l38,22c.81.47,2,0,2.63-1.17s.52-2.4-.29-2.87Z"/><path class="cls-2" d="M1649.37,70.83a.84.84,0,0,0-1,.56l-26,85.66a.86.86,0,0,0,.56,1.06l64.65,19.64a.84.84,0,0,0,1.06-.56l26-85.66a.86.86,0,0,0-.56-1.06Z"/><path class="cls-4" d="M1651.66,76.38l-23.82,78.39,57.38,17.43L1709,93.81ZM1648,75.27h0Z"/><path class="cls-5" d="M1655.47,91.43c-.89-.27-1.92.51-2.29,1.74s0,2.45.94,2.73l42,12.76c.89.28,1.92-.51,2.29-1.74s0-2.45-.93-2.72Z"/><path class="cls-5" d="M1652.53,101.13c-.89-.28-1.92.51-2.3,1.74s0,2.45.94,2.72l42,12.77c.89.27,1.92-.51,2.3-1.74s0-2.45-.94-2.72Z"/><path class="cls-5" d="M1649.58,110.82c-.89-.27-1.92.51-2.3,1.75s0,2.45.94,2.72l42,12.77c.89.27,1.92-.51,2.29-1.74s0-2.46-.94-2.73Z"/><path class="cls-5" d="M1646.63,120.52c-.89-.27-1.92.51-2.29,1.74s0,2.46.94,2.73l42,12.77c.89.27,1.92-.51,2.29-1.74s0-2.46-.93-2.73Z"/><path class="cls-5" d="M1643.69,130.22c-.9-.27-1.92.51-2.3,1.74s0,2.46.94,2.73l42,12.77c.89.27,1.92-.52,2.3-1.75s-.05-2.45-.94-2.72Z"/><path class="cls-5" d="M1640.74,139.92c-.89-.27-1.92.51-2.3,1.74s0,2.45.94,2.72l42,12.77c.89.27,1.92-.51,2.29-1.74s0-2.45-.94-2.72Z"/><path class="cls-2" d="M1275.33,203a.85.85,0,0,0,.29,1.16l77.08,45.55a.86.86,0,0,0,1.16-.3l34.38-58.17a.86.86,0,0,0-.3-1.16l-77.08-45.55a.85.85,0,0,0-1.16.3Z"/><path class="cls-4" d="M1281.26,202.1l70.53,41.68,30.51-51.63-70.53-41.68Zm-1.93,3.27h0Z"/><path class="cls-5" d="M1296.78,202c-.47.81,0,2,1.16,2.65s2.39.53,2.86-.27l22.35-37.81c.47-.8,0-2-1.15-2.64s-2.4-.54-2.87.26Z"/><path class="cls-5" d="M1305.51,207.11c-.47.8,0,2,1.15,2.64s2.4.54,2.87-.26l22.35-37.82c.47-.8-.05-2-1.16-2.64s-2.39-.53-2.86.27Z"/><path class="cls-5" d="M1314.24,212.27c-.48.8,0,2,1.15,2.64s2.39.53,2.87-.27l22.34-37.81c.48-.8,0-2-1.15-2.64s-2.39-.54-2.87.27Z"/><path class="cls-5" d="M1323,217.42c-.47.81,0,2,1.15,2.65s2.4.53,2.87-.27L1349.33,182c.47-.8,0-2-1.15-2.64s-2.4-.54-2.87.26Z"/><path class="cls-5" d="M1331.69,222.58c-.48.8,0,2,1.15,2.64s2.39.54,2.87-.26l22.34-37.82c.48-.8,0-2-1.15-2.64s-2.39-.53-2.87.27Z"/><path class="cls-5" d="M1340.41,227.74c-.47.8,0,2,1.15,2.64s2.4.53,2.87-.27l22.35-37.81c.47-.8,0-2-1.15-2.64s-2.4-.54-2.87.26Z"/></svg>