<svg id="레이어_1" data-name="레이어 1" xmlns="http://www.w3.org/2000/svg" viewBox="0 0 468 610"><defs><style>.cls-1{fill:#9cc1d9;}.cls-2,.cls-3,.cls-6{fill:#fff;}.cls-2,.cls-3{opacity:0.15;}.cls-2,.cls-8{isolation:isolate;}.cls-4{fill:#e6e6e6;}.cls-5{fill:#3f3d56;}.cls-7{fill:#ffb8b8;}.cls-8{fill:#231f20;opacity:0.2;}.cls-9{fill:#2f2e41;}.cls-10{fill:#575a89;}.cls-11{fill:#4897ff;}</style></defs><rect class="cls-1" width="470" height="610"/><path class="cls-2" d="M455.19,572.39c-8.87-3.86-19.69-1.51-29.75-1.78a8.13,8.13,0,0,1-3.94-.82,10.35,10.35,0,0,1-2.41-2.67c-2.82-3.45-8.6-4.55-13.65-4s-9.68,2.52-14.45,4c-8.24,2.55-17.65,3.71-25.78.93a5.24,5.24,0,0,0-2.33-.45c-1.78.23-2.31,2.08-3.56,3.13-2.25,1.91-7.13,1.39-8.12,3.9-.58,1.47.75,3,2.2,4,5.56,3.84,13.5,4.48,20.77,3.88s14.42-2.22,21.72-2.23c9.11,0,17.9,2.51,26.91,3.54,6.25.71,13.06.61,18.92-1.48C448.06,580.08,449.46,575,455.19,572.39Z"/><path class="cls-3" d="M403.82,539c10.27-2.81,20.95-5.88,28.77-13.07s11.64-19.86,5.55-28.5c-2-2.81-4.8-4.92-7.35-7.25A52.2,52.2,0,0,1,415,443.28c2.36-13.06,9.65-24.74,13.55-37.44s3.44-28.48-6.94-36.8c-7.1-5.69-17.18-6.38-26.14-4.5s-17.29,6-25.92,9a119,119,0,0,1-52.42,6.27c-24.38-2.58-47.87-12.72-72.39-11.78a20.11,20.11,0,0,0-8.59,1.78c-4.64,2.43-6.95,7.59-9.8,12C217.2,395.78,200.77,403,185,408.49s-32.54,10.34-44.84,21.65c-10.73,9.89-17,24-19.08,38.3s-.39,29,2.95,43.11c2,8.39,4.67,16.85,10,23.6,6,7.59,15,12.34,23.92,16.13,9.38,4,19.24,7.11,29.44,7.63,12.19.62,24.23-2.52,36.16-5.21a499.26,499.26,0,0,1,74.29-11c23.72-1.7,49.76-3.6,73.21.74C382.83,545.66,392.32,542.21,403.82,539Z"/><polygon class="cls-4" points="306.83 570.34 235.69 570.34 238.1 538.98 304.42 538.98 306.83 570.34"/><rect class="cls-4" x="232.07" y="566.72" width="79.59" height="7.24"/><path class="cls-5" d="M407.52,337H135.6a7.24,7.24,0,0,0-7.24,7.24h0V510h286.4V344.24a7.24,7.24,0,0,0-7.24-7.24Z"/><path class="cls-4" d="M128.36,510v27.13a7.24,7.24,0,0,0,7.24,7.24H407.52a7.24,7.24,0,0,0,7.24-7.24h0V510Z"/><rect class="cls-4" x="142.83" y="352.07" width="258.06" height="144.7"/><circle class="cls-5" cx="271.86" cy="526.92" r="7.24"/><circle class="cls-6" cx="150.88" cy="356.81" r="1.37"/><circle class="cls-6" cx="156.09" cy="356.81" r="1.37"/><circle class="cls-6" cx="161.3" cy="356.81" r="1.37"/><path class="cls-7" d="M424.62,434.86s2.21,28.75-.89,29.64-14.15,7.52-31.85,5.75c0,0-17.25,9.28-14.59.44s14.59-6.64,14.59-6.64,21.24-4.42,22.12-7.52-2.65-15.92-1.33-16.36S424.62,434.86,424.62,434.86Z"/><path class="cls-8" d="M423.13,435.23s2.21,28.75-.89,29.64-14.15,7.52-31.84,5.75c0,0-17.25,9.29-14.6.44s14.6-6.63,14.6-6.63,21.23-4.43,22.11-7.52-2.65-15.93-1.33-16.37S423.13,435.23,423.13,435.23Z"/><path class="cls-9" d="M398.29,481.48s1.56,48.39,4.21,54.58c2.21,5.16,3.5,22,3.87,27.46.07,1.09.11,1.74.11,1.74s7.08,0,7.52-1.77,1.77-21.23,0-27.43,2.52-52,2.52-52Z"/><path class="cls-9" d="M408.25,563s-4.42,1.33-5.31,3.1-15.48,4.87-11.06,7.08,17.7-1.77,17.7-1.77,7.07-.44,6.63-3.1a26.18,26.18,0,0,0-2-5.92Z"/><path class="cls-9" d="M420.63,564.46s-4.42,1.32-5.3,3.09-15.48,4.87-11.06,7.08S422,572.86,422,572.86s7.08-.44,6.64-3.09a26.47,26.47,0,0,0-2.06-5.93Z"/><path class="cls-9" d="M402.06,484l6.19,10.61,10.33,36.91s-1,33.86.29,33.86,8.4,2.21,8.84,0c.37-1.87,5.33-19.76,2.86-31.67a151.74,151.74,0,0,1-3.09-22.85l-1.1-20.67s4.43-8-.44-9.29S402.06,484,402.06,484Z"/><circle class="cls-7" cx="407.81" cy="405.23" r="10.62"/><path class="cls-7" d="M406.48,412.3s1.77,14.16,1.33,15,10.61-9.73,10.61-9.73-4-6.19-3.09-9.29Z"/><path class="cls-10" d="M431.25,426.46s-12.38-8.85-12.83-10.62l-9.29,8-1.57-1.87s-7.27,7.18-7.27,10.28-.44,12.38.88,15-4,36.27-4,36.27,4.43,4,4.87,4.42,18.13-2.66,18.13-2.66,8.85-.88,8.85-2.21-2.66-21.23-1.77-26.54S431.25,426.46,431.25,426.46Z"/><path class="cls-9" d="M403.27,399.92a7.5,7.5,0,0,1,4.53-.35c2.1.61,3.55,2.44,5.11,4s3.76,2.86,5.82,2.15a3.44,3.44,0,0,1,.65-2.52,2.32,2.32,0,0,0,.58-1c.09-.57-.39-1.06-.53-1.62-.25-1,.43-2.31-.41-2.86-.23-.14-.51-.18-.73-.33-.85-.6.1-2.08-.47-3a1.85,1.85,0,0,0-.64-.54c-4.11-2.39-9.13-2.4-13.88-2.34-.66,0-1.58.34-1.39,1-.9-.64-2.08.26-2.8,1.1l-1.48,1.71a12.42,12.42,0,0,0-1.81,2.45c-.46.86-.56,2.19.35,2.57-.67-.28-1.49,3.69,1.6,3C399.56,403,401.32,400.62,403.27,399.92Z"/><rect class="cls-6" x="149.51" y="361.48" width="243.95" height="121.53"/><rect class="cls-4" x="164.23" y="379.34" width="53.32" height="46.57"/><rect class="cls-4" x="245.06" y="379.48" width="53.16" height="46.43"/><rect class="cls-4" x="325.05" y="379.02" width="53.68" height="46.88"/><rect class="cls-4" x="164.23" y="446.23" width="52.15" height="4.82"/><rect class="cls-11" x="164.23" y="454.71" width="26.13" height="4.82"/><rect class="cls-4" x="245.93" y="446.23" width="52.15" height="4.82"/><rect class="cls-11" x="245.93" y="454.71" width="26.13" height="4.82"/><rect class="cls-4" x="325.59" y="446.23" width="52.15" height="4.82"/><rect class="cls-11" x="325.59" y="454.71" width="26.13" height="4.82"/><circle class="cls-11" cx="262.13" cy="436.05" r="2.46"/><circle class="cls-4" cx="271.48" cy="436.05" r="2.46"/><circle class="cls-4" cx="280.82" cy="436.05" r="2.46"/><circle class="cls-11" cx="181.55" cy="436.05" r="2.46"/><circle class="cls-11" cx="190.89" cy="436.05" r="2.46"/><circle class="cls-4" cx="200.24" cy="436.05" r="2.46"/><circle class="cls-11" cx="344.71" cy="436.05" r="2.46"/><circle class="cls-11" cx="354.05" cy="436.05" r="2.46"/><circle class="cls-11" cx="363.4" cy="436.05" r="2.46"/><path class="cls-11" d="M351.88,388.82a13.65,13.65,0,1,0,13.65,13.64A13.64,13.64,0,0,0,351.88,388.82Zm0,4.09a4.1,4.1,0,1,1-4.09,4.09A4.09,4.09,0,0,1,351.88,392.91Zm0,19.71a9.92,9.92,0,0,1-8.18-4.37c.06-2.73,5.46-4.23,8.18-4.23s8.13,1.5,8.19,4.23A10,10,0,0,1,351.88,412.62Z"/><path class="cls-11" d="M271.64,389a13.65,13.65,0,1,0,13.65,13.65h0A13.69,13.69,0,0,0,271.64,389Zm0,4.1a4.1,4.1,0,1,1-4.09,4.09A4.1,4.1,0,0,1,271.64,393.14Zm0,19.71a10,10,0,0,1-8.19-4.37c.07-2.73,5.46-4.23,8.19-4.23s8.13,1.5,8.19,4.23a10,10,0,0,1-8.19,4.37Z"/><path class="cls-11" d="M190.89,389a13.65,13.65,0,1,0,13.65,13.65h0A13.69,13.69,0,0,0,190.89,389Zm0,4.1a4.1,4.1,0,1,1-4.09,4.09h0a4.1,4.1,0,0,1,4.09-4.09Zm0,19.71a10,10,0,0,1-8.19-4.37c.07-2.73,5.46-4.23,8.19-4.23s8.13,1.5,8.19,4.23A10,10,0,0,1,190.89,412.78Z"/><path class="cls-7" d="M433.9,438.84s2.22,28.75-.88,29.64-14.15,7.52-31.85,5.75c0,0-17.25,9.29-14.59.44S401.17,468,401.17,468s21.23-4.42,22.12-7.51-2.66-15.93-1.33-16.37S433.9,438.84,433.9,438.84Z"/><path class="cls-10" d="M424.17,427.34l7.08-.88s7.08,13.71,3.1,15.92-14.16,4-14.16,3.1S424.17,427.34,424.17,427.34Z"/><path class="cls-2" d="M220.91,579.49c8.54,3.91,18.92,1.53,28.6,1.8a7.6,7.6,0,0,1,3.79.83,10,10,0,0,1,2.31,2.71c2.71,3.49,8.26,4.61,13.12,4s9.3-2.55,13.89-4.05c7.93-2.57,17-3.75,24.78-.93a4.82,4.82,0,0,0,2.24.47c1.71-.23,2.22-2.1,3.42-3.17,2.16-1.94,6.86-1.4,7.81-4,.55-1.49-.73-3-2.12-4-5.33-3.9-13-4.54-20-3.94s-13.86,2.22-20.88,2.22c-8.75,0-17.2-2.54-25.87-3.58-6-.73-12.55-.63-18.18,1.49C227.76,571.7,226.42,576.86,220.91,579.49Z"/></svg>