<svg id="레이어_1" data-name="레이어 1" xmlns="http://www.w3.org/2000/svg" xmlns:xlink="http://www.w3.org/1999/xlink" viewBox="0 0 471 597"><defs><style>.cls-1{fill:#d9adb5;}.cls-2,.cls-5{fill:#fff;opacity:0.15;}.cls-14,.cls-3{opacity:0.1;}.cls-4{fill:#4897ff;}.cls-14,.cls-17,.cls-21,.cls-5{isolation:isolate;}.cls-6{fill:url(#무제_그라디언트_2);}.cls-7{fill:#535461;}.cls-8{fill:#f6f7f9;}.cls-21,.cls-9{opacity:0.2;}.cls-10{fill:#dce0ed;}.cls-11{fill:url(#무제_그라디언트_2-2);}.cls-12{fill:#65617d;}.cls-13{fill:#a27772;}.cls-15{fill:#fbbebe;}.cls-16{fill:#7c7cdd;}.cls-17{opacity:0.05;}.cls-18{fill:#7c5c5c;}.cls-19{fill:#ffd037;}.cls-20{fill:#a8a8a8;}</style><linearGradient id="무제_그라디언트_2" x1="309.28" y1="-349.78" x2="309.28" y2="-124.68" gradientTransform="matrix(1, 0, 0, -1, -59.52, 192.35)" gradientUnits="userSpaceOnUse"><stop offset="0" stop-color="gray" stop-opacity="0.25"/><stop offset="0.54" stop-color="gray" stop-opacity="0.12"/><stop offset="1" stop-color="gray" stop-opacity="0.1"/></linearGradient><linearGradient id="무제_그라디언트_2-2" x1="441.41" y1="-362.66" x2="441.41" y2="-158.83" xlink:href="#무제_그라디언트_2"/></defs><rect class="cls-1" width="471" height="597"/><path class="cls-2" d="M179.09,306.2c-10.74-.39-22-.67-31.66,3.93s-17.22,15.76-14,26c1.06,3.34,3.13,6.25,4.88,9.3a53.63,53.63,0,0,1,1,50.45c-6.23,12-16.79,21.1-24.39,32.27s-11.91,26.63-4.44,37.88c5.12,7.7,14.62,11.45,23.82,12.36s18.46-.52,27.7-.89a119.36,119.36,0,0,1,52.39,9.91c22.7,9.95,42.26,27,66.16,33.55a20,20,0,0,0,8.81.89c5.2-1,9-5.25,13.06-8.65,13-10.77,31-12.78,47.91-13.29s34.47-.11,49.73-7.36c13.33-6.33,23.59-18.11,30-31.41s9.15-28.08,10.19-42.8c.62-8.76.6-17.81-2.54-26-3.52-9.22-10.67-16.56-18.17-23-7.83-6.71-16.37-12.79-26-16.41-11.56-4.33-24.1-4.95-36.4-6a501.5,501.5,0,0,1-74.87-12c-23.36-5.59-49-11.69-70.29-23.07C201.31,306.18,191.13,306.63,179.09,306.2Z"/><g class="cls-3"><path class="cls-4" d="M327.21,500.52s1.09-15.32,9.72-23.68a23.25,23.25,0,0,0,6.87-13,39.68,39.68,0,0,0,.47-7.14"/><path class="cls-4" d="M349.67,451.38c-.63,1.69-5.53,5.45-5.53,5.45s-1.24-6.05-.6-7.74a3.27,3.27,0,0,1,6.13,2.29Z"/><path class="cls-4" d="M351.23,462.64c-1.45,1.08-7.6,1.58-7.6,1.58s2.25-5.75,3.7-6.83a3.27,3.27,0,0,1,3.9,5.25Z"/><path class="cls-4" d="M345,478.58c-1.8.19-7.37-2.48-7.37-2.48s4.85-3.82,6.65-4a3.27,3.27,0,0,1,.72,6.49Z"/><path class="cls-4" d="M337.61,489.57c-1.73.5-7.67-1.2-7.67-1.2s4.13-4.59,5.87-5.08a3.27,3.27,0,1,1,2,6.23l-.18.05Z"/><path class="cls-4" d="M337.07,462.14c.77,1.63,6,5,6,5s.72-6.14-.06-7.77a3.27,3.27,0,0,0-5.91,2.8Z"/><path class="cls-4" d="M328.57,475.11c1.23,1.33,7.18,3,7.18,3s-1.15-6.07-2.38-7.4a3.27,3.27,0,0,0-4.8,4.44Z"/><path class="cls-4" d="M322,488.85c1,1.52,6.58,4.13,6.58,4.13s-.11-6.18-1.09-7.69a3.27,3.27,0,0,0-5.49,3.56Z"/><path class="cls-4" d="M349.67,451.38c-.63,1.69-5.53,5.45-5.53,5.45s-1.24-6.05-.6-7.74a3.27,3.27,0,0,1,6.13,2.29Z"/><path class="cls-4" d="M351.23,462.64c-1.45,1.08-7.6,1.58-7.6,1.58s2.25-5.75,3.7-6.83a3.27,3.27,0,0,1,3.9,5.25Z"/><path class="cls-4" d="M345,478.58c-1.8.19-7.37-2.48-7.37-2.48s4.85-3.82,6.65-4a3.27,3.27,0,0,1,.72,6.49Z"/><path class="cls-4" d="M337.61,489.57c-1.73.5-7.67-1.2-7.67-1.2s4.13-4.59,5.87-5.08a3.27,3.27,0,1,1,2,6.23l-.18.05Z"/><path class="cls-4" d="M337.07,462.14c.77,1.63,6,5,6,5s.72-6.14-.06-7.77a3.27,3.27,0,0,0-5.91,2.8Z"/><path class="cls-4" d="M328.57,475.11c1.23,1.33,7.18,3,7.18,3s-1.15-6.07-2.38-7.4a3.27,3.27,0,0,0-4.8,4.44Z"/><path class="cls-4" d="M322,488.85c1,1.52,6.58,4.13,6.58,4.13s-.11-6.18-1.09-7.69a3.27,3.27,0,0,0-5.49,3.56Z"/></g><g class="cls-3"><path class="cls-4" d="M330.23,442.52s1.1-15.33,9.72-23.69a23.26,23.26,0,0,0,6.88-13,38.77,38.77,0,0,0,.46-7.14"/><path class="cls-4" d="M352.7,393.37c-.62,1.69-5.53,5.45-5.53,5.45s-1.24-6.05-.6-7.74a3.27,3.27,0,0,1,6.13,2.29Z"/><path class="cls-4" d="M354.27,404.63c-1.45,1.08-7.61,1.57-7.61,1.57s2.26-5.74,3.71-6.82a3.27,3.27,0,0,1,4,5.15Z"/><path class="cls-4" d="M348.05,420.57c-1.79.19-7.36-2.48-7.36-2.48s4.85-3.82,6.65-4a3.27,3.27,0,1,1,.83,6.49h-.12Z"/><path class="cls-4" d="M340.64,431.56c-1.73.5-7.67-1.2-7.67-1.2s4.13-4.59,5.87-5.09a3.27,3.27,0,0,1,1.8,6.29Z"/><path class="cls-4" d="M340.1,404.13c.77,1.63,6,5,6,5s.71-6.14-.06-7.77a3.27,3.27,0,0,0-6,2.68l.06.12Z"/><path class="cls-4" d="M331.59,417.1c1.24,1.33,7.19,2.95,7.19,2.95s-1.16-6.06-2.38-7.39a3.27,3.27,0,0,0-4.81,4.44Z"/><path class="cls-4" d="M325.06,430.84c1,1.52,6.58,4.13,6.58,4.13s-.11-6.18-1.1-7.69a3.27,3.27,0,1,0-5.58,3.41,1.3,1.3,0,0,0,.1.15Z"/><path class="cls-4" d="M352.7,393.37c-.62,1.69-5.53,5.45-5.53,5.45s-1.24-6.05-.6-7.74a3.27,3.27,0,0,1,6.13,2.29Z"/><path class="cls-4" d="M354.27,404.63c-1.45,1.08-7.61,1.57-7.61,1.57s2.26-5.74,3.71-6.82a3.27,3.27,0,0,1,4,5.15Z"/><path class="cls-4" d="M348.05,420.57c-1.79.19-7.36-2.48-7.36-2.48s4.85-3.82,6.65-4a3.27,3.27,0,1,1,.83,6.49h-.12Z"/><path class="cls-4" d="M340.64,431.56c-1.73.5-7.67-1.2-7.67-1.2s4.13-4.59,5.87-5.09a3.27,3.27,0,0,1,1.8,6.29Z"/><path class="cls-4" d="M340.1,404.13c.77,1.63,6,5,6,5s.71-6.14-.06-7.77a3.27,3.27,0,0,0-6,2.68l.06.12Z"/><path class="cls-4" d="M331.59,417.1c1.24,1.33,7.19,2.95,7.19,2.95s-1.16-6.06-2.38-7.39a3.27,3.27,0,0,0-4.81,4.44Z"/><path class="cls-4" d="M325.06,430.84c1,1.52,6.58,4.13,6.58,4.13s-.11-6.18-1.1-7.69a3.27,3.27,0,1,0-5.58,3.41,1.3,1.3,0,0,0,.1.15Z"/></g><g class="cls-3"><path class="cls-4" d="M166.36,462.59s-13.2-7.86-16.79-19.31a23.26,23.26,0,0,0-8.54-12,38.64,38.64,0,0,0-6.18-3.63"/><path class="cls-4" d="M132.55,420.44c1.24,1.32,2.39,7.39,2.39,7.39s-6-1.62-7.19-2.95a3.27,3.27,0,0,1,4.8-4.44Z"/><path class="cls-4" d="M143.32,424.12c.3,1.78-2,7.5-2,7.5s-4.12-4.6-4.43-6.38a3.27,3.27,0,1,1,6.42-1.28Z"/><path class="cls-4" d="M154.76,436.81c-.62,1.7-5.53,5.46-5.53,5.46s-1.23-6-.6-7.74a3.27,3.27,0,0,1,6.19,2.11l-.06.17Z"/><path class="cls-4" d="M161.25,448.38c-.33,1.77-4.52,6.33-4.52,6.33s-2.24-5.76-1.91-7.53a3.27,3.27,0,0,1,6.43,1.21h0Z"/><path class="cls-4" d="M136.5,436.53c1.81,0,7.12-3.09,7.12-3.09s-5.16-3.4-7-3.44a3.27,3.27,0,0,0-.16,6.54Z"/><path class="cls-4" d="M144.26,450c1.74-.5,5.87-5.09,5.87-5.09s-5.93-1.7-7.67-1.2a3.27,3.27,0,0,0,1.81,6.29Z"/><path class="cls-4" d="M153.6,462c1.8-.2,6.64-4,6.64-4s-5.56-2.67-7.36-2.47a3.27,3.27,0,0,0,.36,6.53Z"/><path class="cls-4" d="M132.55,420.44c1.24,1.32,2.39,7.39,2.39,7.39s-6-1.62-7.19-2.95a3.27,3.27,0,0,1,4.8-4.44Z"/><path class="cls-4" d="M143.32,424.12c.3,1.78-2,7.5-2,7.5s-4.12-4.6-4.43-6.38a3.27,3.27,0,1,1,6.42-1.28Z"/><path class="cls-4" d="M154.76,436.81c-.62,1.7-5.53,5.46-5.53,5.46s-1.23-6-.6-7.74a3.27,3.27,0,0,1,6.19,2.11l-.06.17Z"/><path class="cls-4" d="M161.25,448.38c-.33,1.77-4.52,6.33-4.52,6.33s-2.24-5.76-1.91-7.53a3.27,3.27,0,0,1,6.43,1.21h0Z"/><path class="cls-4" d="M136.5,436.53c1.81,0,7.12-3.09,7.12-3.09s-5.16-3.4-7-3.44a3.27,3.27,0,0,0-.16,6.54Z"/><path class="cls-4" d="M144.26,450c1.74-.5,5.87-5.09,5.87-5.09s-5.93-1.7-7.67-1.2a3.27,3.27,0,0,0,1.81,6.29Z"/><path class="cls-4" d="M153.6,462c1.8-.2,6.64-4,6.64-4s-5.56-2.67-7.36-2.47a3.27,3.27,0,0,0,.36,6.53Z"/></g><path class="cls-5" d="M328.09,555.1c8.87,3.86,19.69,1.51,29.75,1.79a8,8,0,0,1,3.94.82,10,10,0,0,1,2.41,2.67c2.82,3.44,8.6,4.54,13.65,4s9.68-2.52,14.45-4c8.24-2.54,17.65-3.7,25.78-.92a5.37,5.37,0,0,0,2.33.44c1.78-.22,2.31-2.07,3.56-3.13,2.25-1.9,7.13-1.38,8.12-3.89.58-1.47-.75-3-2.2-4-5.56-3.84-13.5-4.47-20.77-3.88s-14.42,2.23-21.72,2.23c-9.11,0-17.9-2.5-26.92-3.53-6.24-.71-13.05-.62-18.91,1.47C335.22,547.41,333.82,552.51,328.09,555.1Z"/><path class="cls-5" d="M160.24,543.27c15.14,4.36,33.62,1.7,50.79,2a20.19,20.19,0,0,1,6.73.93c1.89.76,2.81,2,4.11,3,4.81,3.89,14.67,5.14,23.29,4.48s16.53-2.84,24.67-4.51c14.06-2.87,30.14-4.18,44-1.05a13.18,13.18,0,0,0,4,.51c3-.26,3.94-2.34,6.07-3.54,3.84-2.16,12.18-1.56,13.86-4.4,1-1.66-1.28-3.37-3.76-4.5-9.48-4.34-23-5.06-35.45-4.39s-24.6,2.52-37.07,2.53c-15.54,0-30.55-2.84-45.94-4-10.66-.8-22.29-.7-32.28,1.67C172.42,534.59,170,540.34,160.24,543.27Z"/><path class="cls-5" d="M119.73,554c4.32,2.6,9.57,1,14.47,1.2a3.17,3.17,0,0,1,1.92.55,6.48,6.48,0,0,1,1.17,1.81c1.37,2.32,4.18,3.07,6.64,2.67s4.71-1.7,7-2.69c4-1.72,8.59-2.5,12.54-.62a1.93,1.93,0,0,0,1.14.31c.87-.15,1.13-1.4,1.73-2.11,1.09-1.28,3.47-.93,3.95-2.63a2.89,2.89,0,0,0-1.07-2.68c-2.7-2.6-6.57-3-10.11-2.62s-7,1.48-10.56,1.48c-4.43,0-8.71-1.69-13.1-2.39a15.31,15.31,0,0,0-9.2,1C123.2,548.77,122.52,552.21,119.73,554Z"/><path class="cls-6" d="M321.52,317H178a13.13,13.13,0,0,0-13.16,13.12h0V529A13.14,13.14,0,0,0,178,542.13H321.52A13.14,13.14,0,0,0,334.69,529h0V330.15A13.14,13.14,0,0,0,321.53,317Z"/><rect class="cls-7" x="166.85" y="319.72" width="165.8" height="220.4" rx="6.18"/><rect class="cls-8" x="175.27" y="340.57" width="148.96" height="178.7"/><circle class="cls-8" cx="249.08" cy="329.83" r="2.02"/><circle class="cls-8" cx="249.08" cy="529.33" r="6.07"/><g class="cls-9"><rect class="cls-4" x="175.27" y="340.57" width="148.96" height="8.91"/></g><circle class="cls-8" cx="179.93" cy="345.02" r="1.9"/><circle class="cls-8" cx="184.77" cy="345.02" r="1.9"/><circle class="cls-8" cx="189.61" cy="345.02" r="1.9"/><rect class="cls-10" x="179.72" y="393.1" width="138.71" height="0.46"/><rect class="cls-10" x="179.72" y="403.86" width="138.71" height="0.46"/><rect class="cls-10" x="179.72" y="414.62" width="138.71" height="0.46"/><rect class="cls-10" x="179.72" y="425.38" width="138.71" height="0.46"/><rect class="cls-10" x="179.72" y="436.14" width="138.71" height="0.46"/><g class="cls-9"><polygon class="cls-4" points="318.43 436.61 179.55 436.61 179.55 415.44 192.29 421.72 205.47 423.51 217.04 420.02 230.99 409.2 238.01 405.15 243.14 404.16 248.05 404.42 256.12 408.41 267.1 415.4 275.71 416.51 282.54 414.15 297.01 402.3 304.4 399.67 312.13 400.86 318.43 404.5 318.43 436.61"/></g><path class="cls-4" d="M203.76,423.5c-12.51,0-24.07-7.64-24.21-7.74l.35-.52c.17.12,18,11.89,33.08,6,5.51-2.17,9.43-5.5,13.23-8.73,4-3.38,7.7-6.56,12.81-7.95a19.17,19.17,0,0,1,17.1,3.84c4.16,3.42,12.43,8.9,21.17,7.26,4.45-.84,8.21-4.09,12.18-7.53,7.62-6.61,15.51-13.44,29.14-3.64l-.36.5c-13.24-9.51-20.93-2.84-28.37,3.6-4,3.5-7.86,6.8-12.48,7.68-9,1.68-17.43-3.91-21.67-7.39a18.57,18.57,0,0,0-16.55-3.72c-5,1.34-8.65,4.49-12.57,7.82s-7.8,6.64-13.41,8.83A25.77,25.77,0,0,1,203.76,423.5Z"/><circle class="cls-4" cx="246.47" cy="404.13" r="3.44"/><g class="cls-9"><path class="cls-4" d="M291.32,358.63H247.94a.71.71,0,0,0-.7.71h0v29.33a.7.7,0,0,0,.7.7.73.73,0,0,0,.52-.22l7.51-8a.73.73,0,0,1,.52-.22h34.83a.7.7,0,0,0,.7-.7h0V359.33A.7.7,0,0,0,291.32,358.63Z"/></g><rect class="cls-8" x="257.28" y="364.06" width="24.7" height="3.09"/><rect class="cls-8" x="257.28" y="370.91" width="6.78" height="3.09"/><g class="cls-9"><rect class="cls-4" x="191.44" y="458.71" width="6.78" height="3.09"/></g><g class="cls-9"><rect class="cls-4" x="191.44" y="464.68" width="6.78" height="3.09"/></g><g class="cls-9"><rect class="cls-4" x="191.44" y="470.65" width="6.78" height="3.09"/></g><g class="cls-9"><rect class="cls-4" x="191.44" y="476.63" width="6.78" height="3.09"/></g><g class="cls-9"><rect class="cls-4" x="191.44" y="482.6" width="6.78" height="3.09"/></g><g class="cls-9"><rect class="cls-4" x="191.44" y="488.57" width="6.78" height="3.09"/></g><g class="cls-9"><rect class="cls-4" x="191.44" y="494.55" width="6.78" height="3.09"/></g><g class="cls-9"><rect class="cls-4" x="191.44" y="500.52" width="6.78" height="3.09"/></g><g class="cls-9"><rect class="cls-4" x="204.2" y="503.61" width="6.78" height="3.09"/></g><g class="cls-9"><rect class="cls-4" x="216.15" y="503.61" width="6.78" height="3.09"/></g><g class="cls-9"><rect class="cls-4" x="228.1" y="503.61" width="6.78" height="3.09"/></g><g class="cls-9"><rect class="cls-4" x="240.04" y="503.61" width="6.78" height="3.09"/></g><g class="cls-9"><rect class="cls-4" x="251.98" y="503.61" width="6.78" height="3.09"/></g><g class="cls-9"><rect class="cls-4" x="263.93" y="503.61" width="6.78" height="3.09"/></g><g class="cls-9"><rect class="cls-4" x="275.87" y="503.61" width="6.78" height="3.09"/></g><g class="cls-9"><rect class="cls-4" x="287.82" y="503.61" width="6.78" height="3.09"/></g><g class="cls-9"><rect class="cls-4" x="299.77" y="503.61" width="6.78" height="3.09"/></g><rect class="cls-8" x="271.68" y="370.91" width="10.3" height="3.09"/><rect class="cls-4" x="204.2" y="481.16" width="6.78" height="19.36"/><rect class="cls-4" x="216.15" y="472.2" width="6.78" height="28.32"/><rect class="cls-4" x="228.1" y="464.68" width="6.78" height="35.83"/><rect class="cls-4" x="240.04" y="468.58" width="6.78" height="31.94"/><rect class="cls-4" x="251.98" y="461.8" width="6.78" height="38.72"/><g class="cls-9"><rect class="cls-4" x="263.93" y="476.63" width="6.78" height="23.89"/></g><g class="cls-9"><rect class="cls-4" x="275.87" y="476.63" width="6.78" height="23.89"/></g><g class="cls-9"><rect class="cls-4" x="287.82" y="476.63" width="6.78" height="23.89"/></g><g class="cls-9"><rect class="cls-4" x="299.77" y="476.63" width="6.78" height="23.89"/></g><path class="cls-11" d="M412.35,390.19a84.51,84.51,0,0,0-10.14-5.28l-.15-.11a6.14,6.14,0,0,1-1.85-2.34V382c.12-2.24,1.71-4.27,3.22-6.05l3.86-4.54a4.35,4.35,0,0,0,1-1.58,3.45,3.45,0,0,0,.11-1v-.4c0-1.13-.05-2.26-.09-3.4,0-1-.3-2.22-1.28-2.43-.51-.1-1.19.08-1.46-.36a.84.84,0,0,1-.07-.58v0a12.19,12.19,0,0,0,.37-2.32,3.15,3.15,0,0,0-.16-1.18c-.57-1.63-2.54-2.3-4.28-2.61s-3.68-.58-4.77-1.94a15.47,15.47,0,0,0-.95-1.3,3.74,3.74,0,0,0-1.78-.88,10,10,0,0,0-6.46.56,5.8,5.8,0,0,1-2.6.83c-.92-.06-1.78-.72-2.72-.88a3.88,3.88,0,0,0-3.74,2.18,5.23,5.23,0,0,0-.69,2.59v.15h0a3.71,3.71,0,0,0,1,2.63c.66.69,1.64,1.16,1.91,2.05.11.37.08.76.18,1.13a.34.34,0,0,0,0,.14l0,.07a11.42,11.42,0,0,0-2.43,7.06,11.73,11.73,0,0,0,8.23,11.11v.34a5,5,0,0,1-1.6,3.89L374.6,389.5s-6.27-.74-8.53,8.42a15.16,15.16,0,0,0-.39,4.65,13.65,13.65,0,0,1-1.72,7c-2.57,5-2,16.6,3.27,17.74,5,1.08,6.91.62,7.11.58v.2c-.08,2.16-.87,20.88-3.73,23.15-.79.61-.65,1.05,0,1.33,0,0,0,.12,0,.34-.09,1.37-.53,6.58-2.45,9.54-2.22,3.43-2,23.24-2,23.24l-1.5,11.69s.93,7.21,0,8.47-1.94,27.8-2.16,33.58h-.1a2.8,2.8,0,0,0-2.24,1.37c-1.24,2-5.53,5.68-5.53,5.68-.93,1.32-4.39,2.59-6.21,3.19a3.73,3.73,0,0,0-.71.31,3.66,3.66,0,0,0-1.56,1.65A1.8,1.8,0,0,0,346,553c.47,1.14,10.17,1.94,12.62.8,1.93-.91,9.58-2.09,12.75-2.55a2.62,2.62,0,0,0,2.27-2.27,1.51,1.51,0,0,0-.31-1.14h0c-.62-.75-.93-2.8-1.06-4.15a2.42,2.42,0,0,0,.71-.42A30.35,30.35,0,0,1,374.72,531c2.33-6.18,3-17.63,2.47-25.07,0,0,7.13-30.68,12.74-33.54h0c.08.11,2.81,3.6,3.15,14.42a43.68,43.68,0,0,0,4.33,18.2s-1.76,18.66,0,25.64l-2.3,11a2.83,2.83,0,0,1-.27-.25s.06.31.16.79l-.05.24.1,0a22.12,22.12,0,0,1,.49,5.19c-.1.8-.31,1.9-.47,3-.24,1.7-.31,3.34.58,3.71,1.46.59,10.05,1.39,11.51-.5a2.7,2.7,0,0,0,.43-2.83,2.86,2.86,0,0,0-.43-.71s-2.28-3.73-1.63-6.36a2,2,0,0,0-.27-1.51,75.57,75.57,0,0,1,2-12.34c1.46-5.51,4.55-17.58,2.28-25.52h0c-.09-.31-.19-.62-.29-.93a34.27,34.27,0,0,1-1.29-13.39,27.38,27.38,0,0,1,0-11.68c1.41-6.41,2.39-12.71,2.39-12.71s.77-8.46.1-13.66l-.05-.33.37-.08s-2-8.82-2.69-14.42c-.16-1.33-.38-3-.62-4.8a11.34,11.34,0,0,0,1.91-.47c6.29-2.18,8.27-21.87,8.27-21.87V404S419.71,394.42,412.35,390.19Zm-47,152L365,542h0Z"/><path class="cls-12" d="M408.54,503.8c2.73,7.87-.46,20.64-1.94,26.34a78.94,78.94,0,0,0-1.94,12.55,26.23,26.23,0,0,1-10-.23L397,530.72c-1.71-7,0-25.55,0-25.55A44.41,44.41,0,0,1,392.79,487c-.33-10.78-3-14.27-3.09-14.37h0c-5.47,2.85-12.43,33.42-12.43,33.42.57,7.41-.11,18.82-2.39,25a30.89,30.89,0,0,0-1.72,12.21,3.76,3.76,0,0,1-3.1.59c-3.25-.54-7.14-3.34-7.14-3.34s1.23-33.31,2.16-34.57,0-8.44,0-8.44l1.48-11.63s-.23-19.74,1.94-23.17c1.87-3,2.3-8.15,2.39-9.51,0-.22,0-.34,0-.34l3.3-3.95s31.95-2.4,34.34,0a6.84,6.84,0,0,1,1.17,3.6c.66,5.18-.1,13.62-.1,13.62s-1,6.27-2.32,12.66a27.52,27.52,0,0,0,0,11.64A34.68,34.68,0,0,0,408.54,503.8Z"/><path class="cls-13" d="M406.54,553.82c-1.43,1.88-9.81,1.08-11.24.49-.87-.36-.8-2-.57-3.69.15-1.07.37-2.16.46-3a27.24,27.24,0,0,0-.68-6.22s1.88,2,2.33,0a2.2,2.2,0,0,1,1.63-1.55,4.31,4.31,0,0,1,3,.19c1.48.64,4,2,3.51,3.87-.61,2.62,1.6,6.33,1.6,6.33a2.85,2.85,0,0,1,.41.72A2.75,2.75,0,0,1,406.54,553.82Z"/><path class="cls-14" d="M406.54,553.82c-1.43,1.88-9.81,1.08-11.24.49-.87-.36-.8-2-.57-3.69a9.56,9.56,0,0,0,5,.54,15.22,15.22,0,0,1,1.79-.06A41.14,41.14,0,0,0,407,551,2.75,2.75,0,0,1,406.54,553.82Z"/><path class="cls-14" d="M377.28,506.08c.57,7.41-.11,18.82-2.39,25a30.86,30.86,0,0,0-1.72,12.2,3.73,3.73,0,0,1-3.1.6c.69-4.82,3.62-25.54,5.51-41.92a68.46,68.46,0,0,1,12.14-31.48l2,2.2C384.23,475.5,377.28,506.08,377.28,506.08Z"/><path class="cls-15" d="M403.12,386.19l-1.4,6.84L394.9,404.5l-8.41-3.6s-11.43-12-4.25-13.68a6.37,6.37,0,0,0,2.39-1.07,4.9,4.9,0,0,0,1.85-4.12,12.88,12.88,0,0,0-1.17-4.91L400,372.49a23.6,23.6,0,0,0-1.06,6c-.11,4,1.38,6,2.6,6.92A4.53,4.53,0,0,0,403.12,386.19Z"/><path class="cls-14" d="M400,372.5a23.68,23.68,0,0,0-1.06,6,10.51,10.51,0,0,1-.85.91A11.65,11.65,0,0,1,386.49,382a12.88,12.88,0,0,0-1.17-4.91Z"/><path class="cls-15" d="M401.72,370.62A11.63,11.63,0,1,1,390.09,359h0a11.58,11.58,0,0,1,11.62,11.55Z"/><path class="cls-14" d="M403.12,386.19l-1.4,6.84L394.9,404.5l-8.41-3.6s-11.43-12-4.25-13.68a6.37,6.37,0,0,0,2.39-1.07c-1.3,3.57,4.06,11,4.06,11,.62.93,2.05.34,2.05.34,3.45-.52,9.8-10.44,10.84-12.09A4.44,4.44,0,0,0,403.12,386.19Z"/><path class="cls-14" d="M409.7,452.54c-2,.46-13.23,2.95-17.48,2.33-4.67-.69-13.77-1.14-13.77-1.14s-5.79.3-7.57-.5a2.3,2.3,0,0,1,0-.34l3.3-4s31.94-2.39,34.34,0A6.77,6.77,0,0,1,409.7,452.54Z"/><path class="cls-16" d="M388.69,397.48s-6-8.34-3.75-11.58l-10.17,4.17s-6.12-.74-8.34,8.39a16,16,0,0,0-.38,4.63,13.8,13.8,0,0,1-1.67,6.94c-2.52,5-1.94,16.54,3.19,17.68s7,.57,7,.57-.69,20.88-3.65,23.27,7.56,1.83,7.56,1.83,9.09.45,13.77,1.14,17.79-2.4,17.79-2.4-1.94-8.78-2.62-14.37-2.28-17.49-2.28-17.49l11.64-15.76s2.05-9.52-5.14-13.74a80.56,80.56,0,0,0-9.88-5.25s-7.21,11.74-11,12.31C390.74,397.82,389.31,398.4,388.69,397.48Z"/><path class="cls-14" d="M375.34,400.79s-.11,3.77.57,5.25,3.2,9.7,3.2,9.7H373.4s3.09-3.31,2.85-4.91S375.34,400.79,375.34,400.79Z"/><path class="cls-15" d="M392.23,429.19s-12.6-3.08-13.78-5.7S374,415,374,415l1.33-1.8L381.5,418s7.3,5.82,10.72,6.39S392.23,429.19,392.23,429.19Z"/><path class="cls-17" d="M392.23,429.19s-12.6-3.08-13.78-5.7S374,415,374,415l1.33-1.8L381.5,418s7.3,5.82,10.72,6.39S392.23,429.19,392.23,429.19Z"/><path class="cls-15" d="M403.12,414.37v6.83H402a31.87,31.87,0,0,0-15.51,4l-2.06,1.14-.55.31-3.54-8,3.31-3h.17c.81.08,4.31.37,5.79-.13s3.16-2,7.31-.93c2,.52,3.79,2.82,5.77,2.1Z"/><path class="cls-14" d="M414.12,401.93l2.29,2.57v6.21s-1.94,19.62-8.1,21.79-17.16-1.25-17.16-1.25-2.84-7.53-1.51-8,11.74-3.2,11.74-3.2-.15-11.51,2.13-14.94c0,0-1.48-10.72,3.65-10.94S414.12,401.93,414.12,401.93Z"/><path class="cls-16" d="M414.47,401.93l2.28,2.57v6.21s-1.93,19.62-8.11,21.79-17.16-1.25-17.16-1.25-2.84-7.53-1.51-8,11.74-3.2,11.74-3.2-.15-11.51,2.13-14.94c0,0-1.48-10.72,3.66-10.94S414.47,401.93,414.47,401.93Z"/><path class="cls-14" d="M398.53,375.56a4.39,4.39,0,0,0-.26-2.22,1.71,1.71,0,0,0-1.81-1c-1,.23-1.39,1.5-2.35,1.8A1.85,1.85,0,0,1,392,373a5.45,5.45,0,0,1-.4-2.47V367.7a4.72,4.72,0,0,0-.67-3,5.27,5.27,0,0,0-3.91-1.42,3.35,3.35,0,0,0-2.24.91,2.89,2.89,0,0,1-2.35.83,2,2,0,0,1-1.63-1.41v0a11.63,11.63,0,1,1,18.55,14,11.15,11.15,0,0,1-1.26,1.4A29,29,0,0,0,398.53,375.56Z"/><path class="cls-18" d="M382.47,364.7a2,2,0,0,1-1.64-1.42c-.1-.37-.07-.76-.18-1.13-.27-.89-1.24-1.36-1.85-2a4.56,4.56,0,0,1-.29-5.25c.73-1.32,2.16-2.44,3.64-2.18.93.16,1.73.82,2.66.88a5.42,5.42,0,0,0,2.54-.83,9.65,9.65,0,0,1,6.31-.56,3.62,3.62,0,0,1,1.73.88,12.87,12.87,0,0,1,.93,1.3c1.07,1.36,3,1.62,4.67,1.93s3.61,1,4.17,2.6a7,7,0,0,1-.2,3.38.94.94,0,0,0,0,.7c.26.44.93.26,1.43.36,1,.2,1.21,1.44,1.23,2.42s.07,2.25.09,3.38a3.31,3.31,0,0,1-1.07,2.82l-3.76,4.52c-1.67,2-3.45,4.35-3.11,6.94a1.61,1.61,0,0,1-2-1.16,5.23,5.23,0,0,1,.12-2.57,30.49,30.49,0,0,0,.6-4.45,4.48,4.48,0,0,0-.26-2.22,1.69,1.69,0,0,0-1.81-1.05c-1,.23-1.4,1.5-2.35,1.8a1.85,1.85,0,0,1-2.07-1.07,5.32,5.32,0,0,1-.4-2.47v-2.86a4.72,4.72,0,0,0-.68-3,5.22,5.22,0,0,0-3.91-1.42,3.3,3.3,0,0,0-2.23.9A2.91,2.91,0,0,1,382.47,364.7Z"/><path class="cls-14" d="M385.1,400.51l3.57,14.67S391.48,415.16,385.1,400.51Z"/><path class="cls-14" d="M397.3,398.05s-4.68,7.66-2.85,15.58l.87.07S393.76,410,397.3,398.05Z"/><path class="cls-14" d="M400.27,441.4s5.74-1.9,6.16,2.51C406.43,443.91,405.34,440.89,400.27,441.4Z"/><path class="cls-14" d="M383.67,416.09s-1.14,8,.92,11.18a25,25,0,0,1-10,1.37l-.7-12.55Z"/><path class="cls-14" d="M384.45,426.36l-.55.3-3.54-8,3.31-3h.17C383.79,416.12,382.87,423,384.45,426.36Z"/><path class="cls-16" d="M383.67,415.73s-1.14,8,.92,11.18a25,25,0,0,1-10,1.37l-4-12.55Z"/><path class="cls-13" d="M373.8,549a2.58,2.58,0,0,1-2.21,2.26c-3.09.46-10.56,1.64-12.45,2.54-2.39,1.14-11.86.34-12.32-.8a1.78,1.78,0,0,1,.17-1.37,3.72,3.72,0,0,1,1.54-1.65,4.28,4.28,0,0,1,.69-.31c1.78-.59,5.15-1.85,6.06-3.18,0,0,4.2-3.67,5.39-5.66a2.75,2.75,0,0,1,2.2-1.36c1,0,2.11.45,2.56,2.64,0,0,5.48,3.13,7,.39,0,0,.23,4.2,1.13,5.35h0A1.49,1.49,0,0,1,373.8,549Z"/><path class="cls-14" d="M373.8,549a2.58,2.58,0,0,1-2.21,2.26c-3.09.46-10.56,1.64-12.45,2.54-2.39,1.14-11.86.34-12.32-.8a1.78,1.78,0,0,1,.17-1.37,3.72,3.72,0,0,1,1.54-1.65c1.55,1,5,2,12.51.85,7.19-1.12,10.75-2.22,12.48-3h0A1.55,1.55,0,0,1,373.8,549Z"/><g class="cls-3"><path d="M404.93,362.43v-.05a10.56,10.56,0,0,0,.35-2.6,16.12,16.12,0,0,1-.35,2.08A1.37,1.37,0,0,0,404.93,362.43Z"/><path d="M398.27,373.11a3.23,3.23,0,0,1,.28,1.3,3.92,3.92,0,0,0-.28-1.82,1.69,1.69,0,0,0-1.81-1c-1,.23-1.39,1.5-2.35,1.8a1.85,1.85,0,0,1-2.07-1.07,5.34,5.34,0,0,1-.4-2.47V367a4.72,4.72,0,0,0-.67-3,5.25,5.25,0,0,0-3.91-1.42,3.34,3.34,0,0,0-2.24.9,2.88,2.88,0,0,1-2.35.84,2,2,0,0,1-1.63-1.42c-.1-.37-.08-.76-.18-1.13-.27-.89-1.24-1.36-1.86-2a3.71,3.71,0,0,1-1-2.41,3.89,3.89,0,0,0,1,2.92c.65.68,1.6,1.15,1.86,2,.1.36.08.76.18,1.12a2,2,0,0,0,1.63,1.42,2.88,2.88,0,0,0,2.35-.83,3.3,3.3,0,0,1,2.24-.91,5.3,5.3,0,0,1,3.91,1.42,4.73,4.73,0,0,1,.67,3v2.86a5.14,5.14,0,0,0,.4,2.47,1.86,1.86,0,0,0,2.07,1.07c1-.31,1.38-1.57,2.35-1.8A1.7,1.7,0,0,1,398.27,373.11Z"/><path d="M407.65,370a4.36,4.36,0,0,1-1,1.56l-3.77,4.53c-1.58,1.91-3.26,4.11-3.14,6.54.11-2.23,1.67-4.26,3.14-6l3.77-4.52a4.49,4.49,0,0,0,1-1.57,4.69,4.69,0,0,0,.1-1.24A3.57,3.57,0,0,1,407.65,370Z"/><path d="M397.83,381.84a3.24,3.24,0,0,1-.12-.62,3,3,0,0,0,.12,1.12,1.61,1.61,0,0,0,2,1.16,4.21,4.21,0,0,1,0-.5A1.59,1.59,0,0,1,397.83,381.84Z"/></g><path class="cls-14" d="M359.91,541.82s1.19,2.1,5.51.25"/><path class="cls-14" d="M396.44,542.34s3.72,4.38,8.42,1.43"/><path class="cls-14" d="M407.28,490.45s-2.63,1.64-2.72,2.59,1.36-.69,1.36-.69Z"/><path class="cls-14" d="M408.33,503.06a5.52,5.52,0,0,1-3.24,1.27c-2,.08-1.81,2.65-.52,1.88A32.89,32.89,0,0,0,408.33,503.06Z"/><path class="cls-14" d="M408.82,504.71s-1.26,6.21-2.29,5"/><path class="cls-4" d="M148.92,533.59s1.7,2.22-.78,5.56-4.53,6.18-3.71,8.27c0,0,3.74-6.22,6.8-6.31S152.27,537.33,148.92,533.59Z"/><path class="cls-14" d="M148.92,533.59a2.55,2.55,0,0,1,.35.7c3,3.49,4.56,6.75,1.7,6.83-2.66.07-5.87,4.83-6.62,6l.09.27s3.74-6.22,6.8-6.31S152.27,537.33,148.92,533.59Z"/><path class="cls-19" d="M152.08,536.42c0,.78-.09,1.41-.2,1.41s-.2-.63-.2-1.41.12-.41.22-.41S152.08,535.64,152.08,536.42Z"/><path class="cls-19" d="M153.16,537.35c-.68.37-1.28.6-1.34.51s.47-.48,1.15-.85.42-.1.47,0S153.85,537,153.16,537.35Z"/><path class="cls-4" d="M140,533.59s-1.7,2.22.78,5.56,4.53,6.18,3.71,8.27c0,0-3.74-6.22-6.8-6.31S136.61,537.33,140,533.59Z"/><path class="cls-14" d="M140,533.59a2.7,2.7,0,0,0-.35.7c-3,3.49-4.55,6.75-1.7,6.83,2.67.07,5.87,4.83,6.62,6a1.43,1.43,0,0,1-.09.27s-3.74-6.22-6.8-6.31S136.61,537.33,140,533.59Z"/><path class="cls-19" d="M136.8,536.42c0,.78.09,1.41.2,1.41s.2-.63.2-1.41-.12-.41-.22-.41S136.8,535.64,136.8,536.42Z"/><path class="cls-19" d="M135.72,537.35c.69.37,1.28.6,1.34.51s-.47-.48-1.15-.85-.42-.1-.47,0S135,537,135.72,537.35Z"/><path class="cls-20" d="M137.34,547.14s4.75-.15,6.18-1.17,7.3-2.23,7.65-.6,7.13,8.12,1.78,8.17-12.45-.84-13.88-1.71S137.34,547.14,137.34,547.14Z"/><path class="cls-21" d="M153,553c-5.36,0-12.45-.83-13.87-1.71-1.09-.66-1.52-3-1.67-4.13h-.16s.31,3.83,1.73,4.7,8.52,1.75,13.87,1.7c1.55,0,2.09-.56,2.06-1.38C154.78,552.65,154.19,553,153,553Z"/></svg>