<svg id="레이어_1" data-name="레이어 1" xmlns="http://www.w3.org/2000/svg" viewBox="0 0 461 375"><defs><style>.cls-1{fill:#cbd6e5;}.cls-2,.cls-6{fill:#fff;}.cls-2{opacity:0.15;isolation:isolate;}.cls-3{fill:#ffb8b8;}.cls-4{fill:#2f2e41;}.cls-5{fill:#638eff;}.cls-7{fill:#ccc;}.cls-8{fill:#e6e6e6;}</style></defs><rect class="cls-1" x="-3" width="464" height="375"/><path class="cls-2" d="M313,351.2c5.43,2.86,12.06,1.12,18.23,1.32a4.23,4.23,0,0,1,2.41.61,7.33,7.33,0,0,1,1.48,2c1.73,2.56,5.27,3.38,8.36,2.94s5.93-1.87,8.85-3c5.05-1.89,10.82-2.75,15.8-.69a2.71,2.71,0,0,0,1.43.33c1.09-.17,1.41-1.54,2.18-2.32,1.38-1.42,4.37-1,5-2.9.36-1.09-.46-2.21-1.35-3-3.4-2.85-8.27-3.32-12.72-2.88s-8.83,1.65-13.31,1.66c-5.57,0-11-1.86-16.49-2.63-3.82-.53-8-.46-11.58,1.1C317.41,345.49,316.55,349.27,313,351.2Z"/><path class="cls-2" d="M404,204.45c-33.91-23-62.49,2.72-93.53,7.92-4.24.71-8.88.9-13.44-3.38s-8.16-12.09-12.14-18.6c-14.79-24.14-34.33-28.38-48.6-20.29s-24.82,26.14-36.63,40.77c-20.39,25.32-46.86,41-76.56,25.67-2.72-1.39-5.68-3-7.88-1.7-5,3-3.27,17.44-5.14,26.36-3.37,16.12-19.14,15.7-17.59,35.53.91,11.6,7.68,22.11,13.9,28.7,23.83,25.23,49.07,24.31,70.06,14.55s39.71-27.36,61.87-32.68c27.63-6.57,58.86,6.16,88.08,7.48,20.23.9,40.74-4.73,54.72-24.87C396.27,268.12,391.28,228.35,404,204.45Z"/><path class="cls-3" d="M332.35,269.16a4.25,4.25,0,0,0-.78-6,3.78,3.78,0,0,0-.63-.41l.84-9.67L326,251.18l-1,13.67a4.28,4.28,0,0,0,7.32,4.31Z"/><polygon class="cls-3" points="361.06 344.36 355.88 344.36 353.42 324.38 361.06 324.38 361.06 344.36"/><path class="cls-4" d="M352.18,342.88h10v6.29H345.89a6.29,6.29,0,0,1,6.29-6.29Z"/><polygon class="cls-3" points="349.3 331.1 344.27 332.34 337.11 313.52 344.53 311.7 349.3 331.1"/><path class="cls-4" d="M340.32,331.78,350,329.4h0l1.5,6.11h0l-15.81,3.88h0A6.29,6.29,0,0,1,340.32,331.78Z"/><path class="cls-4" d="M355,338a1.91,1.91,0,0,1-1.9-1.71l-6-55.53-5.18,17,7.34,26.52a1.9,1.9,0,0,1-1.13,2.29l-5.84,2.34a1.92,1.92,0,0,1-2.49-1.07l0-.08-9-25.83a23.46,23.46,0,0,1-1.28-8.79l1.26-27.88,33.09,1.4-.52,69a1.92,1.92,0,0,1-1.77,1.9l-6.42.48Z"/><circle class="cls-3" cx="349.52" cy="192.41" r="11.13"/><path class="cls-5" d="M357.7,268.45c-2.93,0-6.57-.24-10.34-.49a130.34,130.34,0,0,0-14.44-.46,3.18,3.18,0,0,1-2.83-1.23c-4.09-5.24,2.23-25.69,2.5-26.56l5.14-22.87.22,0-.22,0a12.27,12.27,0,0,1,9.43-9.68,11,11,0,0,1,11.35,4.7l.43.62c8.86,13.12,3.85,45.72,3.51,47.82.47.57,3,3.73,2.31,5.94a2.89,2.89,0,0,1-2.29,1.81A21.81,21.81,0,0,1,357.7,268.45Z"/><path class="cls-4" d="M333.1,268.46a11.7,11.7,0,0,1-4.2-1.14c-.79-.33-3.19-1.32-.28-26.76,1.43-12.5,3.48-24.91,3.5-25l0-.12.11,0c.05,0,5.28-2.43,6.19-5.51,0-.1.07-.21.11-.31a2.83,2.83,0,0,1,3.51-1.72,3,3,0,0,1,2.24,3.39,20.48,20.48,0,0,1-1.81,5.8c-2.46,5.08-4.12,18.54-4.14,18.68-.1,1.15-2.33,28.39-2.76,30.46a2.79,2.79,0,0,1-1.24,2A2.71,2.71,0,0,1,333.1,268.46Z"/><path class="cls-4" d="M345.26,267.41a.89.89,0,0,1-.57-.19c-3.27-2.49,2-32.65,5.17-43.05.63-2.09,1.19-3.87,1.67-5.31h0a40.5,40.5,0,0,0,1.8-7.93c.18-1.46.55-2.3,1.15-2.55a1.45,1.45,0,0,1,1.46.36c2.91-.14,5.73,1,8.34,2.35l2.35,1.17L369.27,259c-.07,3-5.95,5.09-8.52,5.22-4.12.22-11.51.89-14.77,2.95A1.32,1.32,0,0,1,345.26,267.41Z"/><path class="cls-4" d="M330.55,258.64h-.12l-5.33-.33a1.92,1.92,0,0,1-1.8-2s0-.11,0-.17l2.41-16,4.55-22.43a4,4,0,0,1,4.74-3.14,3.06,3.06,0,0,1,.41.1h0a4.05,4.05,0,0,1,2.76,4.48l-3.61,22.47L332.45,257A1.92,1.92,0,0,1,330.55,258.64Z"/><path class="cls-3" d="M348.76,241.15a4.24,4.24,0,0,1,6.45-1L364,236l3.87,4.68-12.44,5.79a4.27,4.27,0,0,1-6.62-5.3Z"/><path class="cls-4" d="M360.91,245.68a1.91,1.91,0,0,1-1.86-1.47l-1.27-5.28a1.9,1.9,0,0,1,.87-2.09l7.66-4.58-3.91-14.34a4.87,4.87,0,0,1,9.33-2.8l4.32,13.2a8,8,0,0,1-2.91,9l-11.11,8A1.94,1.94,0,0,1,360.91,245.68Z"/><path class="cls-4" d="M351.55,203.27a11.88,11.88,0,1,0,.51-23.75,12,12,0,0,0-2.74.26,13.7,13.7,0,0,0-8.14-2.23,8,8,0,0,0-6.74,4.61c-1.07,2.65.08,6.16,2.73,7.24,1.7.69,3.62.35,5.44.07s3.79-.46,5.37.48,2.29,3.44.87,4.61a4.89,4.89,0,0,0-1.4,5.36A5.37,5.37,0,0,0,351.55,203.27Z"/><path class="cls-6" d="M277.31,199.41H67.61c-4.08,0-7.39,2.82-7.39,6.3v19.22c0,3.48,3.31,6.29,7.39,6.3h209.7c4.08,0,7.38-2.82,7.39-6.3V205.71C284.69,202.23,281.39,199.41,277.31,199.41Zm6.61,25.52c0,3.11-3,5.63-6.61,5.64H67.61C64,230.56,61,228,61,224.93V205.71c0-3.11,3-5.63,6.61-5.64h209.7c3.65,0,6.6,2.53,6.61,5.64Z"/><path class="cls-7" d="M277.31,276.63H67.61c-4.08,0-7.38-2.82-7.39-6.29V251.11c0-3.47,3.31-6.29,7.39-6.29h209.7c4.08,0,7.38,2.82,7.39,6.29v19.23C284.69,273.81,281.39,276.63,277.31,276.63ZM67.61,245.48C64,245.48,61,248,61,251.11v19.23c0,3.11,3,5.63,6.61,5.63h209.7c3.65,0,6.61-2.52,6.61-5.63V251.11c0-3.11-3-5.63-6.61-5.63Z"/><path class="cls-7" d="M277.31,322H67.61c-4.08,0-7.38-2.82-7.39-6.3V296.52c0-3.48,3.31-6.29,7.39-6.3h209.7c4.08,0,7.38,2.82,7.39,6.3v19.22C284.69,319.22,281.39,322,277.31,322ZM67.61,290.89c-3.65,0-6.61,2.52-6.61,5.63v19.22c0,3.11,3,5.64,6.61,5.64h209.7c3.65,0,6.61-2.53,6.61-5.64V296.52c0-3.11-3-5.63-6.61-5.63Z"/><path class="cls-5" d="M92,226.28a11,11,0,1,1,11-11h0A11,11,0,0,1,92,226.28Z"/><path class="cls-6" d="M258.31,224.27H121a2.69,2.69,0,1,1,0-5.31H258.31a2.69,2.69,0,1,1,0,5.31Z"/><path class="cls-6" d="M213.57,213H121a2.68,2.68,0,1,1,0-5.3h92.6a2.68,2.68,0,1,1,0,5.3Z"/><path class="cls-8" d="M92,271.69a11,11,0,1,1,11-11h0A11,11,0,0,1,92,271.69Z"/><path class="cls-8" d="M258.31,269.67H121a2.69,2.69,0,1,1,0-5.3H258.31a2.68,2.68,0,1,1,0,5.3Z"/><path class="cls-8" d="M213.57,258.41H121a2.69,2.69,0,1,1,0-5.31h92.59a2.69,2.69,0,1,1,0,5.31Z"/><path class="cls-8" d="M92,317.09a11,11,0,1,1,11-11h0A11,11,0,0,1,92,317.09Z"/><path class="cls-8" d="M258.31,315.08H121a2.68,2.68,0,1,1,0-5.3H258.31a2.68,2.68,0,1,1,0,5.3Z"/><path class="cls-8" d="M213.57,303.81H121a2.69,2.69,0,1,1,0-5.3h92.59a2.68,2.68,0,1,1,0,5.3Z"/><path id="a0cfb668-db22-436f-bdef-92b50d362156" class="cls-6" d="M91.4,219.17a1.24,1.24,0,0,1-.76-.25h0l-2.84-2.17a1.26,1.26,0,0,1,1.54-2h0l1.84,1.41,4.34-5.67a1.26,1.26,0,0,1,1.77-.24h0l0,0,0,0a1.27,1.27,0,0,1,.23,1.77l-5.12,6.67a1.26,1.26,0,0,1-1,.49Z"/></svg>