<svg id="레이어_1" data-name="레이어 1" xmlns="http://www.w3.org/2000/svg" viewBox="0 0 457 375"><defs><style>.cls-1{fill:#d9adb5;}.cls-2,.cls-3,.cls-9{fill:#fff;}.cls-2,.cls-3{opacity:0.15;}.cls-2{isolation:isolate;}.cls-4{fill:#2f2e41;}.cls-5{fill:#ffb8b8;}.cls-6{fill:#638eff;}.cls-7{fill:#f2f2f2;}.cls-8{fill:#ccc;}</style></defs><rect class="cls-1" width="457" height="375"/><path class="cls-2" d="M314.4,352.43c8.1,3.53,18,1.38,27.15,1.63a7.4,7.4,0,0,1,3.6.75,9.24,9.24,0,0,1,2.19,2.44c2.58,3.14,7.85,4.15,12.46,3.61s8.83-2.29,13.18-3.64c7.52-2.32,16.11-3.38,23.53-.84a4.76,4.76,0,0,0,2.12.4c1.63-.2,2.11-1.89,3.25-2.85,2.05-1.74,6.51-1.26,7.41-3.56.53-1.34-.69-2.71-2-3.63-5.07-3.51-12.32-4.08-18.95-3.54s-13.15,2-19.82,2c-8.31,0-16.33-2.29-24.56-3.23-5.69-.65-11.91-.57-17.25,1.34C320.91,345.42,319.63,350.06,314.4,352.43Z"/><path class="cls-3" d="M365.62,309.47c6.57.25,13.44.43,19.38-2.55s10.53-10.19,8.54-16.82a33.38,33.38,0,0,0-3-6,36.45,36.45,0,0,1-.64-32.64c3.81-7.75,10.27-13.65,14.92-20.88s7.3-17.23,2.72-24.51c-3.13-5-8.95-7.4-14.58-8s-11.29.34-17,.57A69.48,69.48,0,0,1,344,192.22c-13.9-6.43-25.87-17.45-40.5-21.7a11.69,11.69,0,0,0-5.39-.58c-3.18.62-5.5,3.4-8,5.6-8,7-19,8.27-29.32,8.59s-21.1.08-30.44,4.77c-8.16,4.09-14.44,11.71-18.34,20.32s-5.6,18.17-6.24,27.69c-.38,5.67-.37,11.52,1.55,16.83,2.16,6,6.53,10.71,11.12,14.87,4.8,4.34,10,8.27,15.94,10.61,7.07,2.8,14.75,3.2,22.28,3.86a292.06,292.06,0,0,1,45.82,7.78c14.3,3.62,30,7.56,43,14.92C352,309.48,358.25,309.19,365.62,309.47Z"/><circle class="cls-4" cx="362.41" cy="181.53" r="4.27"/><path class="cls-4" d="M358.38,183.09a4.27,4.27,0,0,1,.83-6,4.41,4.41,0,0,1,1.93-.81,4.27,4.27,0,0,0-.24,8.54,5,5,0,0,0,.77-.05A4.26,4.26,0,0,1,358.38,183.09Z"/><circle class="cls-4" cx="357.98" cy="196.65" r="12.55"/><path class="cls-4" d="M346.29,192.08a12.55,12.55,0,0,1,16.25-6.34l-.38-.19a12.55,12.55,0,1,0-10.47,22.81l.39.17A12.55,12.55,0,0,1,346.29,192.08Z"/><polygon class="cls-5" points="373.65 250.09 369.4 253.27 367.28 246.9 372.06 245.31 373.65 250.09"/><polygon class="cls-4" points="371.26 259.91 379.76 303.99 390.91 336.92 372.86 340.63 355.33 274.78 354.8 337.98 331.96 338.51 337.27 300.8 339.93 258.32 371.26 259.91"/><path class="cls-4" d="M344.18,336.92v8.49l-.53,4.78s-1.06,4.25,5.31,3.19,3.18-5.84,3.18-5.84L350,343.29,349,336.38Z"/><path class="cls-4" d="M384.08,336.31l1.54,8.36,1.38,4.6s1.81,4-4.65,4.1-4.19-5.18-4.19-5.18l1.33-4.56-.2-7Z"/><circle class="cls-5" cx="357.99" cy="200.43" r="7.97"/><path class="cls-5" d="M353.21,205.21s1.06,8.5-3.19,10.62,8,5.31,8,5.31l7.43-8.5s-3.72-4.78-2.65-8Z"/><path class="cls-6" d="M364.36,211.05s-1.06,5.31-7.44,5.31-4.78-2.65-4.78-2.65L343.65,218l1.06,24.42-7.44,18.06a15,15,0,0,1,9.56,1.59c5.31,2.66,15.41.54,15.41.54s4.24-.54,6.9.53,3.19-2.13,3.19-2.13l-3.19-15.4,4.78-17-1.06-14.87Z"/><path class="cls-5" d="M334.09,264.16l-1.59,6.9s-5.85,10.09-1.6,10.62,5.31-10.62,5.31-10.62l2.66-6.9Z"/><path class="cls-6" d="M368.61,215.3l2.61-2.14,1.64.55s2.65-.53,5.31,3.71S392.51,236,390.91,237.6s-14.34,11.69-14.34,11.69.54,1.59,0,2.12-3.71,1.6-3.71,1.06-3.61-7.29-3.61-7.29,2.54-3.33,3.08-2.8a20.65,20.65,0,0,0,2.12,1.6l4.25-4.25s-.53-2.13,1.06-1.59.53-3.19.53-3.19l-9.56-9Z"/><path class="cls-6" d="M346.3,218l-1.43-.71s-3.35.71-4.41,2.83-3.72,23.9-3.72,23.9l-2.12,14.34a1.56,1.56,0,0,0-1.59,1.59c0,1.59-2.13,5.84-.53,5.84s8,0,9-1.06,3.19-5.31,2.66-5.84a2.62,2.62,0,0,0-1.59-.53l3.18-14.87Z"/><polygon class="cls-4" points="350.63 192.1 350.63 200.97 352.69 200.97 355.3 198.17 354.95 200.97 364.03 200.97 363.47 198.17 364.59 200.97 366.04 200.97 366.04 192.1 350.63 192.1"/><path class="cls-7" d="M294.75,266.49H206a4,4,0,0,1-4-4V205.82a3,3,0,0,1,3-2.95h90.87a3,3,0,0,1,3,3v56.59A4,4,0,0,1,294.75,266.49Z"/><path class="cls-8" d="M298.72,205.59H201.89v-2.05a4,4,0,0,1,4-4h88.75a4,4,0,0,1,4,4Z"/><circle class="cls-9" cx="209.23" cy="202.55" r="1.05"/><circle class="cls-9" cx="213.2" cy="202.55" r="1.05"/><circle class="cls-9" cx="217.17" cy="202.55" r="1.05"/><path class="cls-7" d="M187.49,291.14H134.72a2.39,2.39,0,0,1-2.39-2.39V255.08a1.75,1.75,0,0,1,1.75-1.75h54a1.78,1.78,0,0,1,1.78,1.78v33.64A2.39,2.39,0,0,1,187.49,291.14Z"/><path class="cls-9" d="M185.17,257.2H137a2.32,2.32,0,0,0-2.32,2.32v26.91a2.32,2.32,0,0,0,2.32,2.32h48.13a2.32,2.32,0,0,0,2.32-2.32h0V259.52a2.32,2.32,0,0,0-2.32-2.32Z"/><path class="cls-8" d="M189.85,254.94H132.3v-1.22a2.41,2.41,0,0,1,2.4-2.4h52.75a2.41,2.41,0,0,1,2.4,2.4Z"/><circle class="cls-9" cx="136.66" cy="253.14" r="0.62"/><circle class="cls-9" cx="139.02" cy="253.14" r="0.62"/><circle class="cls-9" cx="141.38" cy="253.14" r="0.62"/><ellipse class="cls-9" cx="162.34" cy="274" rx="4.34" ry="4.37"/><polygon class="cls-6" points="161.14 271.83 161.14 276.25 164.74 274.01 161.14 271.83"/><path class="cls-7" d="M179.56,245.5H90.79a4,4,0,0,1-4-4V184.83a3,3,0,0,1,2.95-3h90.88a3,3,0,0,1,3,3v56.59A4,4,0,0,1,179.56,245.5Z"/><path class="cls-9" d="M175.66,188.39h-81a3.91,3.91,0,0,0-3.9,3.91v45.27a3.9,3.9,0,0,0,3.9,3.9h81a3.9,3.9,0,0,0,3.9-3.9h0V192.3a3.9,3.9,0,0,0-3.9-3.91Z"/><path class="cls-8" d="M183.53,184.6H86.71v-2a4,4,0,0,1,4-4h88.74a4,4,0,0,1,4,4Z"/><circle class="cls-9" cx="94.05" cy="181.56" r="1.05"/><circle class="cls-9" cx="98.02" cy="181.56" r="1.05"/><circle class="cls-9" cx="101.98" cy="181.56" r="1.05"/><path class="cls-3" d="M96.14,163.1c-4.19-.2-8.57-.34-12.37,2a12.81,12.81,0,0,0-5.45,13.18A29.39,29.39,0,0,0,80.23,183a34.35,34.35,0,0,1,.4,25.55c-2.43,6.07-6.55,10.69-9.52,16.34s-4.65,13.5-1.73,19.19a11.88,11.88,0,0,0,9.3,6.26c3.59.46,7.21-.26,10.82-.45a37.49,37.49,0,0,1,20.45,5c8.87,5,16.5,13.67,25.84,17a6,6,0,0,0,3.43.45c2-.48,3.51-2.66,5.1-4.38,5.08-5.45,12.12-6.47,18.71-6.72s13.46-.06,19.42-3.74c5.2-3.2,9.21-9.17,11.7-15.9s3.57-14.23,4-21.68c.24-4.44.23-9-1-13.18-1.38-4.67-4.17-8.39-7.1-11.64-3.06-3.4-6.39-6.48-10.17-8.31-4.51-2.19-9.4-2.5-14.21-3a155.23,155.23,0,0,1-29.23-6.09c-9.12-2.83-19.14-5.92-27.45-11.69C104.81,163.09,100.84,163.32,96.14,163.1Z"/><path class="cls-9" d="M290.71,209.12h-81a3.91,3.91,0,0,0-3.9,3.9v45.27a3.91,3.91,0,0,0,3.9,3.91h81a3.9,3.9,0,0,0,3.9-3.91h0V213a3.89,3.89,0,0,0-3.9-3.9Z"/><path class="cls-4" d="M248.49,242.13v-.49a4.15,4.15,0,0,1-2.31-.52,1.51,1.51,0,0,1-.58-1.11.86.86,0,0,1,.28-.71,1.51,1.51,0,0,1,1.51,0l.4.19-.77-5.66-.48.06.66,4.82a1.71,1.71,0,0,0-1.63.23,1.33,1.33,0,0,0-.46,1.1,2,2,0,0,0,.78,1.48A4.62,4.62,0,0,0,248.49,242.13Z"/><rect class="cls-4" x="249.82" y="234.3" width="2.63" height="0.49"/><circle class="cls-4" cx="254.16" cy="216.73" r="2.97"/><path class="cls-4" d="M251.35,217.81a3,3,0,0,1,.58-4.17,2.85,2.85,0,0,1,1.34-.56,3,3,0,1,0-.16,5.94,3.14,3.14,0,0,0,.53,0A3,3,0,0,1,251.35,217.81Z"/><circle class="cls-4" cx="251.08" cy="227.25" r="8.74"/><path class="cls-4" d="M242.93,224.07a8.74,8.74,0,0,1,11.32-4.41l-.27-.13a8.74,8.74,0,0,0-7.29,15.88l.27.11A8.73,8.73,0,0,1,242.93,224.07Z"/><circle class="cls-5" cx="251.08" cy="229.89" r="5.55"/><path class="cls-5" d="M247.75,233.22s.74,5.91-2.22,7.39,5.55,3.7,5.55,3.7l5.18-5.92s-2.59-3.33-1.85-5.54Z"/><path class="cls-6" d="M261.43,239.13l-1.14-.38,0,0-4.75-1.49a5,5,0,0,1-5.18,3.7c-4.44,0-3.33-1.85-3.33-1.85l-5,2.5-.06,0s-2.34.49-3.08,2-2.59,16.64-2.59,16.64l-.33,2.25h29.9c2.66-2.12,7.37-5.89,8.16-6.68,1.11-1.11-7-11.1-8.88-14.06S261.43,239.13,261.43,239.13Zm4.81,17c-1.11-.37-.74,1.11-.74,1.11l-3,2.95a14.18,14.18,0,0,1-1.48-1.1c-.37-.37-2.14,1.94-2.14,1.94l.34.63-.32.11-.1-.47.08-.27,3.2-11.37,4.49,4.25S267.35,256.52,266.24,256.15Z"/><polygon class="cls-4" points="245.96 224.09 245.96 230.26 247.39 230.26 249.21 228.31 248.96 230.26 255.29 230.26 254.9 228.31 255.68 230.26 256.69 230.26 256.69 224.09 245.96 224.09"/><path class="cls-6" d="M256.63,228.29h.75a1.6,1.6,0,0,1,1.59,1.6v.17a1.6,1.6,0,0,1-1.59,1.6h-.75v-3.37Z"/><path class="cls-6" d="M256.44,227.74h.68a.67.67,0,0,1,.68.68h0v3.11a.67.67,0,0,1-.68.68h-.68v-4.47Z"/><path class="cls-6" d="M245.53,231.66h-.75a1.6,1.6,0,0,1-1.6-1.6v-.17a1.6,1.6,0,0,1,1.6-1.6h.75v3.37Z"/><path class="cls-6" d="M245.71,232.21H245a.68.68,0,0,1-.68-.68h0v-3.11a.68.68,0,0,1,.68-.68h.68v4.47Z"/><path class="cls-6" d="M257.43,228.53h-.5c0-3.52-2.6-6.38-5.8-6.38a6.12,6.12,0,0,0-5.81,6.38h-.49c0-3.79,2.82-6.88,6.3-6.88S257.43,224.74,257.43,228.53Z"/><ellipse class="cls-8" cx="250.16" cy="235.99" rx="7.3" ry="7.36"/><polygon class="cls-6" points="247.7 232.27 247.7 239.7 253.76 235.94 247.7 232.27"/><path class="cls-4" d="M130.75,221v-.49a4.06,4.06,0,0,1-2.31-.52,1.55,1.55,0,0,1-.58-1.11.84.84,0,0,1,.28-.7,1.48,1.48,0,0,1,1.51,0l.41.19-.78-5.66-.48.06.66,4.82a1.71,1.71,0,0,0-1.63.23,1.36,1.36,0,0,0-.46,1.1,2,2,0,0,0,.79,1.48A4.49,4.49,0,0,0,130.75,221Z"/><rect class="cls-4" x="132.09" y="213.18" width="2.63" height="0.49"/><circle class="cls-4" cx="136.42" cy="195.61" r="2.97"/><path class="cls-4" d="M133.61,196.69a3,3,0,0,1,.58-4.17,3.05,3.05,0,0,1,1.34-.56,3,3,0,1,0-.16,5.94,2.33,2.33,0,0,0,.53,0A3,3,0,0,1,133.61,196.69Z"/><circle class="cls-4" cx="133.34" cy="206.13" r="8.74"/><path class="cls-4" d="M125.2,203a8.73,8.73,0,0,1,11.31-4.41l-.27-.13A8.74,8.74,0,0,0,129,214.29l.28.12A8.73,8.73,0,0,1,125.2,203Z"/><circle class="cls-5" cx="133.34" cy="208.77" r="5.55"/><path class="cls-5" d="M130,212.1s.74,5.91-2.22,7.39,5.55,3.7,5.55,3.7l5.18-5.92s-2.59-3.32-1.85-5.54Z"/><path class="cls-6" d="M143.7,218l-1.14-.38,0,0-4.76-1.49a5,5,0,0,1-5.18,3.7c-4.44,0-3.33-1.85-3.33-1.85l-5,2.5-.06,0s-2.34.49-3.07,2-2.59,16.65-2.59,16.65l-.34,2.24h29.9c2.66-2.12,7.37-5.89,8.16-6.68,1.11-1.11-7-11.1-8.88-14.06S143.7,218,143.7,218Zm4.8,17c-1.11-.37-.74,1.11-.74,1.11l-2.95,3a14.64,14.64,0,0,1-1.48-1.11c-.37-.37-2.15,1.94-2.15,1.94l.34.63-.32.11-.09-.47.07-.27,3.2-11.37,4.49,4.25S149.61,235.4,148.5,235Z"/><polygon class="cls-4" points="128.22 202.97 128.22 209.14 129.65 209.14 131.47 207.19 131.23 209.14 137.55 209.14 137.16 207.19 137.94 209.14 138.95 209.14 138.95 202.97 128.22 202.97"/><path class="cls-6" d="M138.89,207.17h.75a1.6,1.6,0,0,1,1.6,1.6v.17a1.6,1.6,0,0,1-1.6,1.6h-.75v-3.37Z"/><path class="cls-6" d="M138.71,206.62h.68a.67.67,0,0,1,.67.68h0v3.11a.67.67,0,0,1-.67.68h-.68v-4.47Z"/><path class="cls-6" d="M127.79,210.54H127a1.6,1.6,0,0,1-1.6-1.6v-.17a1.6,1.6,0,0,1,1.6-1.6h.75v3.37Z"/><path class="cls-6" d="M128,211.09h-.68a.67.67,0,0,1-.67-.68h0V207.3a.67.67,0,0,1,.67-.68H128v4.47Z"/><path class="cls-6" d="M139.69,207.41h-.49a6.12,6.12,0,0,0-5.81-6.38c-3.2,0-5.8,2.86-5.8,6.38h-.5c0-3.79,2.83-6.88,6.3-6.88S139.69,203.62,139.69,207.41Z"/><ellipse class="cls-8" cx="133.1" cy="214.93" rx="7.3" ry="7.36"/><polygon class="cls-6" points="130.64 211.21 130.64 218.64 136.7 214.88 130.64 211.21"/></svg>