<svg id="레이어_1" data-name="레이어 1" xmlns="http://www.w3.org/2000/svg" viewBox="0 0 931 373"><defs><style>.cls-1{fill:#e9cad5;}.cls-2,.cls-3,.cls-5{fill:#fff;}.cls-2,.cls-3{opacity:0.15;}.cls-2{isolation:isolate;}.cls-4{fill:#f2f2f2;}.cls-6{fill:#638eff;}.cls-7{fill:#2f2e41;}.cls-8{fill:#ffb8b8;}.cls-9{fill:#ccc;}</style></defs><rect class="cls-1" y="-1" width="935" height="375"/><path class="cls-2" d="M660.15,291c24.45-28.55-2.44-36.3-7.68-52.94-.71-2.28-.89-5,3.68-9.25s12.84-9.27,19.71-14c25.58-17.58,30.21-30.78,21.77-36.35s-27.4-5.34-42.75-7.08c-26.56-3-42.84-13.13-26.55-36.37,1.5-2.13,3.27-4.47,1.86-5.32-3.14-1.89-18.37,4.38-27.77,6.5-17,3.86-16.42-5.73-37.33,2.37-12.25,4.75-23.4,12.61-30.39,18.71-26.78,23.34-26,38.09-15.85,47.07s28.55,13.79,34,25.07c6.73,14.1-6.91,37.35-8.53,55.27-1.1,12.4,4.65,22.62,25.86,23.63C593.11,309.41,635.09,292,660.15,291Z"/><path class="cls-3" d="M800.41,215.5c-4.37-.21-8.94-.36-12.9,2.07s-7,8.33-5.69,13.75a29.44,29.44,0,0,0,2,4.92,35.89,35.89,0,0,1,.42,26.67c-2.54,6.34-6.84,11.16-9.93,17.06s-4.86,14.08-1.82,20a12.4,12.4,0,0,0,9.71,6.53c3.75.48,7.53-.27,11.29-.47a39.18,39.18,0,0,1,21.35,5.24c9.25,5.26,17.23,14.27,27,17.74a6.39,6.39,0,0,0,3.59.47c2.12-.5,3.66-2.78,5.32-4.57,5.3-5.7,12.64-6.76,19.52-7s14-.06,20.27-3.89c5.44-3.35,9.62-9.57,12.22-16.6s3.73-14.85,4.15-22.63c.25-4.64.24-9.42-1-13.75-1.44-4.88-4.35-8.76-7.41-12.15-3.19-3.55-6.67-6.77-10.61-8.68-4.71-2.29-9.82-2.61-14.84-3.16a160.73,160.73,0,0,1-30.51-6.35c-9.52-3-20-6.18-28.65-12.2C809.47,215.48,805.32,215.72,800.41,215.5Z"/><path class="cls-2" d="M522,332.63c8.92,3,19.81,1.18,29.93,1.4a10.29,10.29,0,0,1,4,.64,9.06,9.06,0,0,1,2.42,2.1c2.84,2.7,8.65,3.57,13.73,3.11s9.74-2,14.54-3.13c8.29-2,17.76-2.91,25.94-.73a6.62,6.62,0,0,0,2.34.35c1.79-.17,2.33-1.63,3.58-2.45,2.26-1.5,7.18-1.09,8.17-3.07.58-1.15-.76-2.33-2.22-3.12-5.59-3-13.58-3.52-20.89-3.05s-14.5,1.75-21.85,1.75c-9.16,0-18-2-27.08-2.78-6.28-.56-13.13-.48-19,1.16C529.17,326.59,527.77,330.59,522,332.63Z"/><path class="cls-4" d="M722.67,329.51a102.87,102.87,0,0,1-20.07,1,92.23,92.23,0,0,1-45.66-14.36c-6-3.92-11.77-8.74-14.89-15.21-4.24-8.79-2.76-19.91,3.29-27.57a27.66,27.66,0,0,1,8-6.81c.45-.26.92-.51,1.39-.75a30.06,30.06,0,0,1,16.58-3A32.89,32.89,0,0,1,695.1,278c4.61,7.38,6.21,16.08,7.16,24.81.18,1.64.33,3.29.48,4.93a72.87,72.87,0,0,1-3.87,13.89,5.25,5.25,0,0,0-.22.67c1,2.15,1.94,4.32,2.83,6.51a5.8,5.8,0,0,0,2.74.69h18.45Z"/><path class="cls-5" d="M701.1,329.93a1,1,0,0,1-1.33-.51h0l-.23-.57q-1.06-2.59-2.24-5.15a156.87,156.87,0,0,0-43.65-56.48.74.74,0,0,1-.31-.68,1,1,0,0,1,1.17-.81.79.79,0,0,1,.22.06,1.07,1.07,0,0,1,.21.13,157.55,157.55,0,0,1,21.91,21.76,159.66,159.66,0,0,1,17.28,25.58c1.34,2.47,2.62,5,3.82,7.53.24.5.48,1,.71,1.52,1,2.15,1.94,4.32,2.83,6.51,0,0,0,.07,0,.11a.72.72,0,0,1-.33,1Z"/><circle class="cls-6" cx="635.44" cy="245.33" r="19.31"/><path class="cls-5" d="M633.52,252.69a2,2,0,0,1-1.2-.4h0l-4.54-3.48a2,2,0,0,1,2.45-3.2l2.94,2.26,7-9.06a2,2,0,0,1,2.82-.37h0l0,0,0,0a2,2,0,0,1,.38,2.82l-8.17,10.66A2,2,0,0,1,633.52,252.69Z"/><circle class="cls-7" cx="588.43" cy="151.27" r="14.33"/><ellipse class="cls-7" cx="574.1" cy="140.4" rx="5.93" ry="4.45" transform="translate(68.87 447.07) rotate(-45)"/><ellipse class="cls-7" cx="597.91" cy="136.66" rx="4.45" ry="5.93" transform="translate(237.36 632.82) rotate(-66.87)"/><path class="cls-8" d="M628.32,234a5.32,5.32,0,0,0-2.23-7.18,5,5,0,0,0-.86-.36l-20.7-43.79-9.47,6.64,23.32,41a5.35,5.35,0,0,0,9.94,3.73Z"/><path class="cls-9" d="M609.27,190l-11,4.92a2.38,2.38,0,0,1-3.15-1.2,2.19,2.19,0,0,1-.12-.33l-3.24-11.56a6.62,6.62,0,0,1,12.1-5.38l6.44,10.09a2.39,2.39,0,0,1-.73,3.3,1.82,1.82,0,0,1-.31.16Z"/><path class="cls-8" d="M558.49,238.33a5.32,5.32,0,0,0,4-6.39,5.78,5.78,0,0,0-.29-.89l19.61-44.29-11.22-2.83-15.74,44.43a5.35,5.35,0,0,0,3.66,10Z"/><polygon class="cls-8" points="553.15 318.62 558.85 320.69 569.58 299.68 561.16 296.62 553.15 318.62"/><path class="cls-7" d="M567.92,330,550,323.47h0l2.52-6.93h0l11,4a7.37,7.37,0,0,1,4.4,9.45Z"/><path class="cls-7" d="M566.64,306.52a2.33,2.33,0,0,1-1-.22l-6.56-3.11a2.38,2.38,0,0,1-1.22-3L576.35,249a2.38,2.38,0,0,1,3-1.43,2.44,2.44,0,0,1,1.24,1l9.78,16.3a2.41,2.41,0,0,1,0,2.41l-21.73,38A2.37,2.37,0,0,1,566.64,306.52Z"/><circle class="cls-8" cx="588.88" cy="154.69" r="12.16"/><path class="cls-9" d="M606.08,210l-21.53-5.92-11.45-22.9a7.21,7.21,0,0,1,6.46-10.44h17.13a7.17,7.17,0,0,1,4.81,1.84c4.6,4.12,14.25,16,4.68,37.21Z"/><path class="cls-9" d="M579.13,194.68l-10.91-5.11a2.38,2.38,0,0,1-1.14-3.17,1.28,1.28,0,0,1,.17-.3l6.63-10a6.62,6.62,0,0,1,12,5.65l-3.43,11.46a2.39,2.39,0,0,1-3,1.6l-.33-.12Z"/><polygon class="cls-8" points="592.33 324.36 598.4 324.36 601.29 300.94 592.33 300.94 592.33 324.36"/><path class="cls-7" d="M610.1,330H591v-7.37h11.7A7.37,7.37,0,0,1,610.1,330Z"/><path class="cls-7" d="M594.62,315.43a2.35,2.35,0,0,1-2.32-1.88c-1.75-8.22-10.81-50.33-17.88-72-7.2-22.06,5.06-32.11,7.59-33.9a1.89,1.89,0,0,0,.62-.75l1.83-4a2.38,2.38,0,0,1,2.18-1.4h0c13.77.08,18.4,4.42,19.76,6.29a2.35,2.35,0,0,1,.37,1.94l-8.72,36a2,2,0,0,0,0,.68l8.67,65.3a2.39,2.39,0,0,1-2.05,2.68h0l-9.72,1.12Z"/><path class="cls-7" d="M576.11,147a16.57,16.57,0,0,0,9.45,2.92,10.06,10.06,0,0,1-4,1.65,33.24,33.24,0,0,0,13.62.08,8.69,8.69,0,0,0,2.85-1,3.56,3.56,0,0,0,1.76-2.35c.3-1.71-1-3.26-2.41-4.31a17.81,17.81,0,0,0-15-3,8.15,8.15,0,0,0-4.44,2.51,4,4,0,0,0-.37,4.79Z"/><circle class="cls-6" cx="799.31" cy="193.35" r="6.44"/><path class="cls-5" d="M798.67,195.8a.68.68,0,0,1-.4-.13h0l-1.51-1.16a.66.66,0,0,1-.13-.94.67.67,0,0,1,.94-.12h0l1,.75,2.32-3a.67.67,0,0,1,.94-.12h0a.67.67,0,0,1,.12.94l-2.72,3.55A.68.68,0,0,1,798.67,195.8Z"/><circle class="cls-6" cx="799.31" cy="212.16" r="6.44"/><path class="cls-5" d="M798.67,214.61a.62.62,0,0,1-.4-.13h0l-1.51-1.15a.67.67,0,0,1,.81-1.07h0l1,.75,2.32-3a.67.67,0,0,1,.94-.12h0v0a.67.67,0,0,1,.12.94l-2.72,3.55A.65.65,0,0,1,798.67,214.61Z"/><circle class="cls-6" cx="802.77" cy="233.94" r="6.44"/><path class="cls-5" d="M802.13,236.4a.67.67,0,0,1-.4-.14h0l-1.51-1.16A.67.67,0,0,1,801,234h0l1,.75,2.31-3a.67.67,0,0,1,.95-.13h0l0,0,0,0a.67.67,0,0,1,.12.94l-2.72,3.55A.68.68,0,0,1,802.13,236.4Z"/><path class="cls-9" d="M864.83,287.68h-8.11V286.5h8c.18,0,4,.11,7.46-4.13,5.2-6.31,9.47-21.93.28-60.52-12.35-51.9-2.05-97.74,3-115a5.76,5.76,0,0,0-5.53-7.34H750.58a5.74,5.74,0,0,0-4.65,2.37c-2.12,2.92-5,8.52-6.85,18.65l-1.16-.21c1.86-10.35,4.86-16.12,7.06-19.13a7,7,0,0,1,5.6-2.86H869.91a6.93,6.93,0,0,1,6.66,8.84c-5,17.22-15.23,62.82-2.94,114.44,9.32,39.14,4.84,55.1-.56,61.6C869.51,287.46,865.59,287.68,864.83,287.68Z"/><path class="cls-9" d="M843.33,309.18h-8.11V308h8c.18,0,4,.11,7.46-4.12,5.2-6.32,9.47-21.94.28-60.53-12.35-51.9-2.05-97.74,3-115a5.76,5.76,0,0,0-5.53-7.34H729.08a5.74,5.74,0,0,0-4.65,2.37c-2.12,2.92-5,8.52-6.85,18.65l-1.16-.21c1.86-10.35,4.86-16.12,7.05-19.13a7,7,0,0,1,5.61-2.86H848.41a6.93,6.93,0,0,1,6.66,8.84c-5,17.22-15.23,62.82-2.94,114.44,9.32,39.14,4.84,55.1-.56,61.6C848,309,844.08,309.18,843.33,309.18Z"/><path class="cls-5" d="M830.63,264.58c-12.29-51.62-2-97.23,2.94-114.44a6.94,6.94,0,0,0-4.75-8.58,7.22,7.22,0,0,0-1.91-.27H707.58a7,7,0,0,0-5.61,2.86c-4.81,6.62-14.81,28.59-3.64,89.37,6,32.51,5.88,54.68,3.93,69.29a78.23,78.23,0,0,1-4.32,18l-.16.41a6.75,6.75,0,0,0-.49,2.5,6.82,6.82,0,0,0,2.24,5.15,6.31,6.31,0,0,0,1.57,1.09,6.58,6.58,0,0,0,1.5.55,6.77,6.77,0,0,0,1.62.19H821.83c.75,0,4.68-.22,8.24-4.51C835.46,319.67,840,303.71,830.63,264.58Zm-1.43,60.8c-3.49,4.23-7.28,4.12-7.46,4.12H704.22a5.77,5.77,0,0,1-4.77-2.53,5.64,5.64,0,0,1-.8-4.67,5.25,5.25,0,0,1,.22-.67,72.87,72.87,0,0,0,3.87-13.89c2.79-15.23,3.31-38.72-3.26-74.44-11.07-60.33-1.28-82,3.45-88.46a5.8,5.8,0,0,1,4.65-2.37H826.91a5.75,5.75,0,0,1,5.75,5.74,6,6,0,0,1-.22,1.59c-5,17.31-15.31,63.16-3,115.05C838.67,303.44,834.4,319.06,829.2,325.38Z"/><path class="cls-9" d="M773.94,197.5H712.46a4.71,4.71,0,1,1,0-9.42h61.49a4.71,4.71,0,1,1,0,9.42Z"/><path class="cls-9" d="M773.94,217.8H712.46a4.71,4.71,0,1,1,0-9.42h61.49a4.71,4.71,0,1,1,0,9.42Z"/><path class="cls-9" d="M778.89,238.6H717.41a4.72,4.72,0,1,1,0-9.43h61.49a4.72,4.72,0,0,1,0,9.43Z"/><path class="cls-9" d="M782.35,260.38H720.87a4.72,4.72,0,0,1,0-9.43h61.48a4.72,4.72,0,1,1,0,9.43Z"/><path class="cls-6" d="M782.38,160.91H738.2a4.71,4.71,0,0,1,0-9.42h44.18a4.71,4.71,0,1,1,0,9.42Z"/><circle class="cls-9" cx="806.73" cy="255.67" r="6.44"/><path class="cls-9" d="M785.32,281.67H723.84a4.72,4.72,0,0,1,0-9.43h61.48a4.72,4.72,0,1,1,0,9.43Z"/><circle class="cls-9" cx="809.7" cy="276.95" r="6.44"/></svg>