<svg id="레이어_1" data-name="레이어 1" xmlns="http://www.w3.org/2000/svg" xmlns:xlink="http://www.w3.org/1999/xlink" viewBox="0 0 1900 506"><defs><style>.cls-1{fill:#e6e6e6;}.cls-2,.cls-6,.cls-8{fill:#638eff;}.cls-12,.cls-2,.cls-4{opacity:0.1;}.cls-13,.cls-2,.cls-4,.cls-8,.cls-9{isolation:isolate;}.cls-3{fill:#d0d2d5;}.cls-13,.cls-5{fill:#444053;}.cls-7{fill:#fff;}.cls-8{opacity:0.3;}.cls-14,.cls-9{fill:#3f3d56;}.cls-9{opacity:0.2;}.cls-10{fill:#ee8e9e;}.cls-11{fill:#454b69;}.cls-13{opacity:0.6;}.cls-15{fill:url(#무제_그라디언트_3);}.cls-16{fill:#a26565;}.cls-17{fill:#efb7b9;}</style><linearGradient id="무제_그라디언트_3" x1="1419.08" y1="-4061.64" x2="1419.08" y2="-3845.22" gradientTransform="matrix(1, 0, 0, -1, -35, -3584.22)" gradientUnits="userSpaceOnUse"><stop offset="0" stop-color="gray" stop-opacity="0.25"/><stop offset="0.54" stop-color="gray" stop-opacity="0.12"/><stop offset="1" stop-color="gray" stop-opacity="0.1"/></linearGradient></defs><rect class="cls-1" width="1900" height="500"/><path class="cls-2" d="M1579.35,108.82c-38.24-1.32-74.67-13.68-109.44-27.18S1400.67,53.17,1363.35,46c-24-4.6-51.47-5.24-70.81,7.62-18.62,12.38-24.63,33.79-27.86,53.61-2.44,14.93-3.87,30.62,2.8,44.61,4.63,9.7,12.84,17.85,18.53,27.15,19.77,32.34,5.81,72.21-15.64,103.78-10,14.81-21.71,28.94-29.46,44.7s-11.35,33.83-4.57,49.91,22.76,27.92,40.13,36.34c35.26,17.1,76.83,22,117.35,24.77,89.72,6.12,179.91,3.48,269.86.84,33.29-1,66.72-2,99.48-7.14,18.18-2.85,36.95-7.39,50.15-18.34,16.76-13.9,20.91-37.45,9.68-54.9-18.84-29.24-70.93-36.51-84.09-67.89-7.25-17.27.19-36.52,10.73-52.54,22.59-34.37,60.46-64.52,62.46-103.8,1.37-27-16.84-54-45-66.77-29.51-13.39-70.42-11.7-92.19,10.45C1652.51,101.22,1613.11,110,1579.35,108.82Z"/><polygon class="cls-3" points="1583.38 442.03 1480.44 440.71 1480.74 438.07 1485.72 394.52 1576.13 394.52 1582.78 438.07 1583.28 441.38 1583.38 442.03"/><polygon class="cls-4" points="1583.28 441.38 1531.91 441.38 1480.44 440.71 1480.74 438.07 1582.78 438.07 1583.28 441.38"/><rect class="cls-3" x="1463.29" y="438.74" width="136.6" height="3.3"/><path class="cls-5" d="M1730.2,132.94a8.57,8.57,0,0,0-8.54-8.63H1340.19a8.59,8.59,0,0,0-8.55,8.62h0V364.16H1730.2Z"/><path class="cls-3" d="M1331.64,361.86v27.08a8.55,8.55,0,0,0,8.55,8.56h381.47a8.56,8.56,0,0,0,8.54-8.56V361.86Z"/><rect class="cls-2" x="1348.13" y="138.82" width="367.55" height="207.86"/><path class="cls-6" d="M1532.9,387.22a8.92,8.92,0,0,0,7-3.4h0a11.41,11.41,0,0,0,.69-1l-4.89-.8,5.28,0a8.91,8.91,0,0,0,.17-7.07l-7.09,3.7,6.54-4.8a8.9,8.9,0,1,0-15.38,9,8.19,8.19,0,0,0,.67,1h0A8.92,8.92,0,0,0,1532.9,387.22Z"/><polygon class="cls-4" points="1541.81 397.5 1582.88 438.74 1576.58 397.5 1541.81 397.5"/><rect class="cls-7" x="1358.93" y="176.32" width="241.25" height="144.65" rx="1.37"/><rect class="cls-7" x="1348.37" y="138.84" width="367.42" height="12.14"/><rect class="cls-6" x="1349.95" y="140.96" width="10.56" height="7.39" rx="0.41"/><rect class="cls-8" x="1475.6" y="140.96" width="110.86" height="7.39" rx="0.31"/><path class="cls-5" d="M1583.17,145.41h-.27l-.1-.08a2.3,2.3,0,0,0,.53-1.44,2.19,2.19,0,1,0-2.18,2.2,2.22,2.22,0,0,0,1.43-.53l.1.09v.27l1.69,1.69.53-.53Zm-2,0a1.53,1.53,0,1,1,1.52-1.53h0a1.52,1.52,0,0,1-1.5,1.52Z"/><circle class="cls-6" cx="1710.51" cy="144.65" r="3.7"/><rect class="cls-7" x="1617.6" y="164.18" width="34.31" height="23.23" rx="1.28"/><rect class="cls-7" x="1660.89" y="164.18" width="44.34" height="3.7" rx="0.32"/><rect class="cls-7" x="1660.89" y="172.1" width="44.34" height="3.7" rx="0.32"/><rect class="cls-7" x="1660.89" y="180.02" width="44.34" height="3.7" rx="0.32"/><rect class="cls-7" x="1617.6" y="200.61" width="34.31" height="23.23" rx="1.28"/><rect class="cls-7" x="1660.89" y="200.61" width="44.34" height="3.7" rx="0.32"/><rect class="cls-7" x="1660.89" y="208.53" width="44.34" height="3.7" rx="0.32"/><rect class="cls-7" x="1660.89" y="216.45" width="44.34" height="3.7" rx="0.35"/><rect class="cls-7" x="1617.6" y="237.03" width="34.31" height="23.23" rx="1.28"/><rect class="cls-7" x="1660.89" y="237.03" width="44.34" height="3.7" rx="0.35"/><rect class="cls-7" x="1660.89" y="244.95" width="44.34" height="3.7" rx="0.35"/><rect class="cls-7" x="1660.89" y="252.87" width="44.34" height="3.7" rx="0.35"/><rect class="cls-7" x="1617.6" y="273.46" width="34.31" height="23.23" rx="1.28"/><rect class="cls-7" x="1660.89" y="273.46" width="44.34" height="3.7" rx="0.35"/><rect class="cls-7" x="1660.89" y="281.38" width="44.34" height="3.7" rx="0.35"/><rect class="cls-7" x="1660.89" y="289.3" width="44.34" height="3.7" rx="0.35"/><rect class="cls-7" x="1617.6" y="309.88" width="34.31" height="23.23" rx="1.28"/><rect class="cls-7" x="1660.89" y="309.88" width="44.34" height="3.7" rx="0.35"/><rect class="cls-7" x="1660.89" y="317.8" width="44.34" height="3.7" rx="0.35"/><rect class="cls-7" x="1660.89" y="325.72" width="44.34" height="3.7" rx="0.35"/><rect class="cls-2" x="1393.73" y="214.66" width="54.28" height="2.81"/><rect class="cls-2" x="1398.55" y="199.78" width="5.23" height="14.88"/><rect class="cls-2" x="1406.19" y="199.78" width="5.23" height="14.88"/><rect class="cls-2" x="1413.83" y="199.78" width="5.23" height="14.88"/><rect class="cls-2" x="1421.47" y="199.78" width="5.23" height="14.88"/><rect class="cls-2" x="1429.11" y="199.78" width="5.23" height="14.88"/><rect class="cls-2" x="1436.75" y="199.78" width="5.23" height="14.88"/><rect class="cls-2" x="1398.55" y="202.59" width="5.23" height="1.61"/><rect class="cls-2" x="1406.19" y="202.59" width="5.23" height="1.61"/><rect class="cls-2" x="1413.83" y="202.59" width="5.23" height="1.61"/><rect class="cls-2" x="1421.47" y="202.59" width="5.23" height="1.61"/><rect class="cls-2" x="1429.11" y="202.59" width="5.23" height="1.61"/><rect class="cls-2" x="1436.75" y="202.59" width="5.23" height="1.61"/><rect class="cls-2" x="1398.55" y="209.83" width="5.23" height="1.61"/><rect class="cls-2" x="1406.19" y="209.83" width="5.23" height="1.61"/><rect class="cls-2" x="1413.83" y="209.83" width="5.23" height="1.61"/><rect class="cls-2" x="1421.47" y="209.83" width="5.23" height="1.61"/><rect class="cls-2" x="1429.11" y="209.83" width="5.23" height="1.61"/><rect class="cls-2" x="1436.75" y="209.83" width="5.23" height="1.61"/><rect class="cls-2" x="1512.74" y="221.89" width="54.28" height="2.81"/><rect class="cls-2" x="1517.57" y="207.02" width="5.23" height="14.88"/><rect class="cls-2" x="1525.21" y="207.02" width="5.23" height="14.88"/><rect class="cls-2" x="1532.85" y="207.02" width="5.23" height="14.88"/><rect class="cls-2" x="1540.49" y="207.02" width="5.23" height="14.88"/><rect class="cls-2" x="1548.13" y="207.02" width="5.23" height="14.88"/><rect class="cls-2" x="1555.77" y="207.02" width="5.23" height="14.88"/><rect class="cls-2" x="1517.57" y="209.83" width="5.23" height="1.61"/><rect class="cls-2" x="1525.21" y="209.83" width="5.23" height="1.61"/><rect class="cls-2" x="1532.85" y="209.83" width="5.23" height="1.61"/><rect class="cls-2" x="1540.49" y="209.83" width="5.23" height="1.61"/><rect class="cls-2" x="1548.13" y="209.83" width="5.23" height="1.61"/><rect class="cls-2" x="1555.77" y="209.83" width="5.23" height="1.61"/><rect class="cls-2" x="1517.57" y="217.07" width="5.23" height="1.61"/><rect class="cls-2" x="1525.21" y="217.07" width="5.23" height="1.61"/><rect class="cls-2" x="1532.85" y="217.07" width="5.23" height="1.61"/><rect class="cls-2" x="1540.49" y="217.07" width="5.23" height="1.61"/><rect class="cls-2" x="1548.13" y="217.07" width="5.23" height="1.61"/><rect class="cls-2" x="1555.77" y="217.07" width="5.23" height="1.61"/><rect class="cls-2" x="1512.74" y="242.4" width="54.28" height="2.81"/><rect class="cls-2" x="1517.57" y="227.52" width="5.23" height="14.88"/><rect class="cls-2" x="1525.21" y="227.52" width="5.23" height="14.88"/><rect class="cls-2" x="1532.85" y="227.52" width="5.23" height="14.88"/><rect class="cls-2" x="1540.49" y="227.52" width="5.23" height="14.88"/><rect class="cls-2" x="1548.13" y="227.52" width="5.23" height="14.88"/><rect class="cls-2" x="1555.77" y="227.52" width="5.23" height="14.88"/><rect class="cls-2" x="1517.57" y="230.33" width="5.23" height="1.61"/><rect class="cls-2" x="1525.21" y="230.33" width="5.23" height="1.61"/><rect class="cls-2" x="1532.85" y="230.33" width="5.23" height="1.61"/><rect class="cls-2" x="1540.49" y="230.33" width="5.23" height="1.61"/><rect class="cls-2" x="1548.13" y="230.33" width="5.23" height="1.61"/><rect class="cls-2" x="1555.77" y="230.33" width="5.23" height="1.61"/><rect class="cls-2" x="1517.57" y="237.57" width="5.23" height="1.61"/><rect class="cls-2" x="1525.21" y="237.57" width="5.23" height="1.61"/><rect class="cls-2" x="1532.85" y="237.57" width="5.23" height="1.61"/><rect class="cls-2" x="1540.49" y="237.57" width="5.23" height="1.61"/><rect class="cls-2" x="1548.13" y="237.57" width="5.23" height="1.61"/><rect class="cls-2" x="1555.77" y="237.57" width="5.23" height="1.61"/><path class="cls-2" d="M1427,246.47a13.77,13.77,0,0,1-1.11-1.63l7.82-1.28-8.45.06a14.27,14.27,0,0,1-.27-11.28l11.32,5.87-10.46-7.69a14.26,14.26,0,1,1,24.77,14.12,13.27,13.27,0,0,1-1.24,1.82,14,14,0,0,1,1.63,2.6l-10.15,5.28,10.82-3.63a14.24,14.24,0,0,1-2.3,13.36,14.25,14.25,0,1,1-22.38,0,14.25,14.25,0,0,1,0-17.61Z"/><path class="cls-2" d="M1452.46,255.28a14.15,14.15,0,0,1-3,8.79,14.25,14.25,0,1,1-22.38,0C1425.11,261.66,1452.46,253.68,1452.46,255.28Z"/><path class="cls-9" d="M1440.5,290.93a.75.75,0,0,1,.07.12h-4.84a.75.75,0,0,0,.07-.12,4.7,4.7,0,0,1-.62-2.38,5.07,5.07,0,0,1,.29-1.68h0c.27.05.6.09,1,.13a15.82,15.82,0,0,0,3.37,0l1-.12v0a5,5,0,0,1-.33,4Z"/><path class="cls-2" d="M1423.12,291.05H1396.2c-.06-.15-.11-.32-.16-.48a14.16,14.16,0,0,1,.31-9.31,14.24,14.24,0,0,1-5.2-16.83,15.24,15.24,0,0,1-1.53-1.23l7.08-3.54-8,2.56a14.23,14.23,0,0,1-3.59-10.7l12.56,2.27-12.25-4.26a14.25,14.25,0,1,1,27.84,6.13,16.31,16.31,0,0,1-.66,2.16,14.57,14.57,0,0,1,2.34,2l-8.14,8,9.26-6.66a14.24,14.24,0,0,1,1.75,13.46A14.24,14.24,0,0,1,1423.12,291.05Z"/><path class="cls-2" d="M1423.12,291.05H1396.2c-.06-.15-.11-.32-.16-.48a14.16,14.16,0,0,1,.31-9.31c-2.53-1.75,21.24-17.46,21.71-15.93a14.19,14.19,0,0,1-.31,9.32A14.26,14.26,0,0,1,1423.12,291.05Z"/><path class="cls-2" d="M1544.94,271.76a14.24,14.24,0,0,1-7.14,6,14.22,14.22,0,0,1,.06,3.06l-11.41-.69,11.15,2.42a14.31,14.31,0,0,1-1.7,4.31,14.15,14.15,0,0,1-3.8,4.17h-15.53v.4h-15.84c0-.13.06-.27.1-.4a14.25,14.25,0,0,1,8.68-9.67,14.27,14.27,0,0,1,9-15.12,13,13,0,0,1-.12-2l7.36,2.91-7.28-4.28a14.25,14.25,0,0,1,5.59-9.81l6.71,10.87-5-12a14.26,14.26,0,0,1,19.15,19.77Z"/><path class="cls-2" d="M1535.9,286.88a14.15,14.15,0,0,1-3.8,4.17h-15.53v.41h-15.84c0-.14.06-.27.1-.41a14.25,14.25,0,0,1,8.68-9.67c-.13-1.05,2.94-.89,7-.21C1524.56,282.52,1536.44,286,1535.9,286.88Z"/><path class="cls-10" d="M1468.58,248.86s2,10.56-2.41,14,3.7,24.11,17,21.7,18.71-19.75,18.71-19.75-13.31-2.75-8.38-16.76Z"/><path class="cls-4" d="M1468.58,248.86s2,10.56-2.41,14,3.7,24.11,17,21.7,18.71-19.75,18.71-19.75-13.31-2.75-8.38-16.76Z"/><circle class="cls-10" cx="1480.35" cy="234.57" r="22.04"/><path class="cls-6" d="M1516.57,276.47v15h-72.78V277.15a9.22,9.22,0,0,1,5.63-8.49l2.09-.89c5.28-2.25,11.69-5,13.79-6.2a3.92,3.92,0,0,0,.64-.42c1.15-1.15.92.34.92.34s0,.29,0,.78c-.13,3.37.36,16.63,15.89,15.52,15.16-1.05,15.84-11.3,15.69-14.32,0-.28,0-.56-.07-.83a19.2,19.2,0,0,1,3.06,1c3.17,1.17,7.85,3.05,9.1,3.94.39.27.87.56,1.38.85a9.51,9.51,0,0,1,1.64,1.16A9.28,9.28,0,0,1,1516.57,276.47Z"/><path class="cls-4" d="M1501.38,263.64c-1.28,5.94-5.31,17.08-19.82,17.37-15.47.3-16.37-15.08-16.27-19.44a4,4,0,0,0,.65-.42c1.15-1.15.92.34.92.34s-1.95,17.56,15.84,16.3,15.6-15.15,15.6-15.15A23.14,23.14,0,0,1,1501.38,263.64Z"/><path class="cls-11" d="M1454.26,235.68a3.75,3.75,0,0,1,4,1.45,7.12,7.12,0,0,1,1,3.78c1,.2,1.49-.88,1.58-1.7.35-3.33.38-6.73,1.5-10a11.86,11.86,0,0,1,7.32-7.56,8.33,8.33,0,0,1,4-.38c.8.13,1.55.41,2.34.53,2.75.45,5.73-.85,8.3.05a6.65,6.65,0,0,1,3.4,3.2A6.81,6.81,0,0,0,1489,227c1.1,1,2.81,1.23,4.38,1.54s3.27.84,3.94,2.05.16,2.35,0,3.54a8.72,8.72,0,0,0,.89,5.47c.29.53.89,1.17,1.59,1a1.39,1.39,0,0,0,.75-.6c1.8-2.53,1.75-5.81,4-8.09.75-.76,1.73-1.35,2.47-2.11a4.81,4.81,0,0,0,1.27-4.35c-.4-1.74-1.8-3.17-2.92-4.7a18.34,18.34,0,0,1-3.13-6.49,1.14,1.14,0,0,1,0-.85,2.22,2.22,0,0,1,.8-.66,3,3,0,0,0,1-3.87,6.43,6.43,0,0,0-3.62-2.89,24,24,0,0,0-5-1.05,2.68,2.68,0,0,1-2.75-1.36c-.15-.4-.15-.82-.31-1.22a2.78,2.78,0,0,0-2.11-1.48,6.26,6.26,0,0,0-2.82.2c-1.06.3-2.26.74-3.17.23-.48-.27-.74-.76-1.26-1-1.06-.44-2.14.46-2.9,1.2a7.11,7.11,0,0,1-2.61,1.75,3.87,3.87,0,0,1-3.24-.21,10.11,10.11,0,0,1-1.67-1.79,6.2,6.2,0,0,0-3.93-1.58,13.6,13.6,0,0,0-4.44.49,26.75,26.75,0,0,0-7.8,3.27,8.39,8.39,0,0,0-3,2.78,6.47,6.47,0,0,0-.67,2.87,10.34,10.34,0,0,0,3.62,8.59c-1.65.68-2.2,2.37-2.59,3.86a20.93,20.93,0,0,0-1,7.24,15.89,15.89,0,0,1,.27,3.76,7.87,7.87,0,0,0-.24,1.8A1.72,1.72,0,0,0,1454.26,235.68Z"/><g class="cls-12"><path d="M1507.92,224.48a5.17,5.17,0,0,1-1,1.4c-.73.78-1.71,1.37-2.47,2.12-2.26,2.26-2.21,5.56-4,8.08a1.37,1.37,0,0,1-.75.61c-.68.17-1.28-.45-1.58-1a9.42,9.42,0,0,1-.79-2.11l-.1.53a8.64,8.64,0,0,0,.89,5.47c.29.53.88,1.17,1.58,1a1.42,1.42,0,0,0,.75-.61c1.8-2.52,1.75-5.81,4-8.08.76-.76,1.74-1.35,2.47-2.12a4.77,4.77,0,0,0,1.28-4.34A5.08,5.08,0,0,0,1507.92,224.48Z"/><path d="M1503,208.85a2.24,2.24,0,0,0-.8.66,1.11,1.11,0,0,0,0,.84,18.35,18.35,0,0,0,.79,2.41h0a3,3,0,0,0,1-3.87,3.9,3.9,0,0,0-.37-.62A3,3,0,0,1,1503,208.85Z"/><path d="M1456.44,213.75a9.81,9.81,0,0,1-3.46-6.12,8.58,8.58,0,0,0-.16,1.44,11,11,0,0,0,1.74,6.53A3.69,3.69,0,0,1,1456.44,213.75Z"/><path d="M1497.28,230.26c.2-1.19.65-2.45,0-3.54s-2.38-1.74-3.94-2.05-3.28-.56-4.38-1.54a6.81,6.81,0,0,1-1.31-1.92,6.57,6.57,0,0,0-3.4-3.2c-2.57-.9-5.55.39-8.3,0-.79-.14-1.54-.41-2.34-.53a8.33,8.33,0,0,0-4,.38,11.88,11.88,0,0,0-7.32,7.56c-1.12,3.22-1.15,6.61-1.5,9.95-.09.81-.63,1.9-1.58,1.7a7.21,7.21,0,0,0-1-3.79,3.75,3.75,0,0,0-4-1.44,2,2,0,0,1-1.12-.72,5.94,5.94,0,0,1,0,1.46,8.38,8.38,0,0,0-.24,1.8,1.74,1.74,0,0,0,1.38,1.36,3.75,3.75,0,0,1,4,1.45,7.12,7.12,0,0,1,1,3.78c1,.2,1.49-.88,1.58-1.7.36-3.33.38-6.73,1.5-9.95a11.86,11.86,0,0,1,7.32-7.56,8.33,8.33,0,0,1,4-.38c.8.13,1.55.41,2.34.53,2.75.45,5.73-.85,8.3,0a6.65,6.65,0,0,1,3.4,3.2A6.64,6.64,0,0,0,1489,227c1.09,1,2.8,1.24,4.37,1.54s3.16.8,3.87,1.92A.44.44,0,0,1,1497.28,230.26Z"/><path d="M1453.12,228.61a10,10,0,0,0-.17-2.94,12.78,12.78,0,0,0-.1,3.09,6.9,6.9,0,0,0,.09.78C1453,229.23,1453.08,228.93,1453.12,228.61Z"/></g><path class="cls-5" d="M1427.29,312.76v-9.53a.27.27,0,0,1,.27-.27h1.08a.27.27,0,0,1,.27.27h0v4l4.39-4.07a.72.72,0,0,1,1,.09.8.8,0,0,1,.17.44v8.63a.71.71,0,0,1-.74.69.7.7,0,0,1-.44-.16l-4.39-4v3.94a.27.27,0,0,1-.27.27h-1.08A.26.26,0,0,1,1427.29,312.76Z"/><path class="cls-5" d="M1533.41,303.23v9.53a.28.28,0,0,1-.27.27h-1.06a.28.28,0,0,1-.27-.27h0v-4l-4.39,4.07a.73.73,0,0,1-1-.1.67.67,0,0,1-.16-.43v-8.66a.73.73,0,0,1,.75-.7.74.74,0,0,1,.43.17l4.39,4v-3.94a.27.27,0,0,1,.27-.27h1.06A.27.27,0,0,1,1533.41,303.23Z"/><path class="cls-5" d="M1478.56,313.17h-2.15a1.06,1.06,0,0,1-1.06-1.06v-7.88a1.06,1.06,0,0,1,1.06-1.06h2.15a1.05,1.05,0,0,1,1,1.06v7.88A1.05,1.05,0,0,1,1478.56,313.17Zm6.81-1.06v-7.88a1.06,1.06,0,0,0-1.06-1.06h-2.17a1.05,1.05,0,0,0-1.05,1.06v7.88a1.05,1.05,0,0,0,1.05,1.06h2.15a1.06,1.06,0,0,0,1.08-1Z"/><rect class="cls-13" x="1417" y="290.38" width="126.7" height="1.41"/><circle class="cls-5" cx="1456.12" cy="291.09" r="3.34"/><rect class="cls-5" x="1417" y="290.38" width="39.12" height="1.41"/><ellipse class="cls-6" cx="1738.01" cy="443.43" rx="31.39" ry="6.04"/><ellipse class="cls-14" cx="1737.48" cy="440.87" rx="3.65" ry="4.78"/><ellipse class="cls-14" cx="1737.48" cy="435.02" rx="3.65" ry="4.78"/><ellipse class="cls-14" cx="1737.48" cy="429.17" rx="3.65" ry="4.78"/><ellipse class="cls-14" cx="1737.48" cy="423.33" rx="3.65" ry="4.78"/><ellipse class="cls-14" cx="1737.48" cy="417.48" rx="3.65" ry="4.78"/><ellipse class="cls-14" cx="1737.48" cy="411.63" rx="3.65" ry="4.78"/><ellipse class="cls-14" cx="1737.48" cy="405.78" rx="3.65" ry="4.78"/><path class="cls-6" d="M1751.16,365.76a16,16,0,0,0,1.36-2l-9.6-1.59,10.39.08a17.55,17.55,0,0,0,.33-13.87l-13.93,7.23,12.85-9.44a17.51,17.51,0,0,0-30.31,17.53,16.89,16.89,0,0,0,1.39,2.06,18.33,18.33,0,0,0-2,3.17l12.47,6.48-13.3-4.46a17.56,17.56,0,0,0,2.82,16.44,17.51,17.51,0,1,0,27.53,0,17.53,17.53,0,0,0,0-21.65Z"/><path class="cls-4" d="M1719.9,376.58a17.44,17.44,0,0,0,3.74,10.83,17.51,17.51,0,1,0,27.53,0C1753.51,384.43,1719.9,374.62,1719.9,376.58Z"/><ellipse class="cls-2" cx="1385.85" cy="470.89" rx="52.26" ry="11.09"/><path class="cls-15" d="M1403.35,469.61a13.39,13.39,0,0,0-3.29-.45,10.19,10.19,0,0,1-6-2.93,11.22,11.22,0,0,1-2.41-3.7l1.05.4c-1.05-2.46,0-5.23,1-7.72q2.46-6.33,4.67-12.74c3.69-10.81,6.86-22.06,6.79-33.57,0-4.16-.76-8.09-.91-12.25-.11-3.08.36-6.16.34-9.25,0-.43,0-.86,0-1.29a8.22,8.22,0,0,0,2.78-6.68,14.09,14.09,0,0,0-.28-1.95,29.08,29.08,0,0,0-.74-3.3c-.35-1.15-.82-2.25-1.23-3.37-.78-2.16-1.32-4.42-2-6.63a2.26,2.26,0,0,1,.72.19,1.55,1.55,0,0,1-.34-.69,17.4,17.4,0,0,1-.63-4.31l.45-.2a11.18,11.18,0,0,0-.22-4.27c.26-2.27.65-4.55.89-6.8.09-.85.06-1.91-.72-2.11-.16-1.21-.22-2.44-.28-3.66q-.35-6.37-.66-12.75c-.23-4.28-.45-8.54-.53-12.82a37.2,37.2,0,0,0-.74-8.12,9.61,9.61,0,0,0-.37-3.69c-1-3.11-4-5.58-7.13-5.4a14,14,0,0,0-3.37-3.41c.62-1.39,1.36-2.81,2-3.93a12.79,12.79,0,0,0,8.58-12.3,13.42,13.42,0,0,0-1.46-6.12,5.37,5.37,0,0,0,0-4.14,10.21,10.21,0,0,0-.53-1.22c-.14-.27-.28-.53-.44-.78l-.27-.41a7.3,7.3,0,0,0-.52-.72,18.43,18.43,0,0,0-1.21-1.44,11.61,11.61,0,0,0-1.73-1.55,7.72,7.72,0,0,0-2.85-1.31,8.47,8.47,0,0,0-1.81-.16c-.36,0-.73,0-1.1,0-.74,0-1.47.09-2.2.09a4.53,4.53,0,0,1-.74,0,26.19,26.19,0,0,1-3.82-.8l-.63-.13c-.22,0-.43-.08-.65-.1A11.35,11.35,0,0,0,1379,261h-.58a17,17,0,0,0-1.75.18l-.58.09a16.51,16.51,0,0,0-4.25,1.26l-.53.27-.1.05-.43.24-.07.05-.45.28,0,0c-4.19,2.82-6.67,8.16-7.3,13.46-.7,5.95.53,11.95,1.76,17.8l1.11,5.28.15.71a11.61,11.61,0,0,0-3.48,4.82,20.62,20.62,0,0,0-1,8.36,16.9,16.9,0,0,0,.09,1.74c-.13,1.1-.25,2.2-.32,3.31-.33,5.12.29,10.27.13,15.4-.13,4-.73,7.92-.44,11.85A53.5,53.5,0,0,0,1363,356.4l1.33,4.8a1.26,1.26,0,0,0,.33.66,1,1,0,0,0,.74.15,45,45,0,0,0-2.16,6.06,18.47,18.47,0,0,0-.78,3.9,23.54,23.54,0,0,0,.94,7.16q1.27,5.28,2.53,10.61.88,3.72,1.76,7.43a78.91,78.91,0,0,1,2.55,14.84,32.4,32.4,0,0,1-.53,7.55,65.8,65.8,0,0,0-.65,22.61,111,111,0,0,0,4.27,18.69c.42-.23.86-.44,1.3-.63l-.18.34c-.61,1.05-1.18,2.14-1.69,3.25a19.51,19.51,0,0,0-.91,2.22,25,25,0,0,0-.87,6.58,3.2,3.2,0,0,0,.11,1.27,2.63,2.63,0,0,0,1.9,1.43,17.27,17.27,0,0,0,7,.11.88.88,0,0,0,0,.15A2.63,2.63,0,0,0,1382,477c3.26.93,6.7.05,10.06-.27s6.67-.08,9.91-.86a4.84,4.84,0,0,0,1.37-.52,4.53,4.53,0,0,0,1.73-2.41,3,3,0,0,0,.2-.78A2.66,2.66,0,0,0,1403.35,469.61Zm-11.16-48.89a13.28,13.28,0,0,1-1.06,3.58,68.05,68.05,0,0,0-5.41,17,77.23,77.23,0,0,0-1.2,11.75c-.06,2.9,0,5.94-1.15,8.55l.43-.07c-.13.25-.27.53-.39.73l-.07.11a11.37,11.37,0,0,1-1.44-4c0-.05-.23-.08-.6-.11a109.22,109.22,0,0,1-1.54-25.28,12,12,0,0,1,.42-3c.27-.85.73-1.63,1.06-2.45a17.78,17.78,0,0,0,1-4.3,60.83,60.83,0,0,0,.67-11.36c-.13-3.58.7-7.15,1.41-10.72.34-1.69.65-3.39.82-5.09l0-.34a51.21,51.21,0,0,1,6.48,16.83A24.15,24.15,0,0,1,1392.19,420.72Zm-22.6-76.29.17.14a11.63,11.63,0,0,1,1.41,1.48,2,2,0,0,1,.44.81c.16.77-.48,1.42-1,2a7.92,7.92,0,0,0-.64.77q-.17-2.6-.36-5.19Z"/><path class="cls-6" d="M1362.29,311.34l-.58,4.48c-.2,1.52-.39,3-.5,4.56-.35,5.08.3,10.18.13,15.27-.14,3.91-.76,7.82-.46,11.74a49.21,49.21,0,0,0,2.24,10.13l1.39,4.75a1.29,1.29,0,0,0,.35.66,1.21,1.21,0,0,0,.89.14l6.19-.56c-.4-1.81-.84-3.69-1.06-5.56-.17-1.45-.27-2.92-.37-4.39-.33-4.57-.71-9.14-1.06-13.73l-.66-8a60.35,60.35,0,0,0-1.45-10.37A20.65,20.65,0,0,0,1362.29,311.34Z"/><path class="cls-4" d="M1362.29,311.34l-.58,4.48c-.2,1.52-.39,3-.5,4.56-.35,5.08.3,10.18.13,15.27-.14,3.91-.76,7.82-.46,11.74a49.21,49.21,0,0,0,2.24,10.13l1.39,4.75a1.29,1.29,0,0,0,.35.66,1.21,1.21,0,0,0,.89.14l6.19-.56c-.4-1.81-.84-3.69-1.06-5.56-.17-1.45-.27-2.92-.37-4.39-.33-4.57-.71-9.14-1.06-13.73l-.66-8a60.35,60.35,0,0,0-1.45-10.37A20.65,20.65,0,0,0,1362.29,311.34Z"/><path class="cls-16" d="M1373.31,463.91a19.6,19.6,0,0,0-1,2.21,23.77,23.77,0,0,0-.92,6.52,3,3,0,0,0,.12,1.26,2.7,2.7,0,0,0,2,1.41c3.42.93,7,.06,10.56-.26s7-.08,10.4-.85a5,5,0,0,0,1.44-.5,4.52,4.52,0,0,0,1.82-2.37,3.09,3.09,0,0,0,.2-.78,2.7,2.7,0,0,0-2-2.55,15.31,15.31,0,0,0-3.45-.44,10.86,10.86,0,0,1-9.63-9.08c-.05-.25-5.73-.1-6.34.23a5.25,5.25,0,0,0-1.51,2C1374.43,461.74,1373.85,462.81,1373.31,463.91Z"/><path class="cls-4" d="M1373.31,463.91a19.6,19.6,0,0,0-1,2.21,23.77,23.77,0,0,0-.92,6.52,3,3,0,0,0,.12,1.26,2.7,2.7,0,0,0,2,1.41c3.42.93,7,.06,10.56-.26s7-.08,10.4-.85a5,5,0,0,0,1.44-.5,4.52,4.52,0,0,0,1.82-2.37,3.09,3.09,0,0,0,.2-.78,2.7,2.7,0,0,0-2-2.55,15.31,15.31,0,0,0-3.45-.44,10.86,10.86,0,0,1-9.63-9.08c-.05-.25-5.73-.1-6.34.23a5.25,5.25,0,0,0-1.51,2C1374.43,461.74,1373.85,462.81,1373.31,463.91Z"/><path class="cls-16" d="M1382.73,465.59a19.45,19.45,0,0,0-1,2.2,23.57,23.57,0,0,0-.92,6.53,3,3,0,0,0,.12,1.26,2.75,2.75,0,0,0,2,1.41c3.42.92,7,.05,10.55-.26s7-.09,10.4-.85a4.89,4.89,0,0,0,1.44-.53,4.47,4.47,0,0,0,1.83-2.38,3,3,0,0,0,.2-.78,2.71,2.71,0,0,0-2-2.54,15.32,15.32,0,0,0-3.46-.44,10.88,10.88,0,0,1-9.63-9.08c0-.25-5.72-.1-6.33.22a5.35,5.35,0,0,0-1.52,2C1383.87,463.41,1383.28,464.49,1382.73,465.59Z"/><path class="cls-11" d="M1407.3,409.51c.07,11.41-3.25,22.56-7.14,33.26q-2.31,6.36-4.9,12.62c-1,2.47-2.18,5.22-1.08,7.65a18.51,18.51,0,0,0-9.72-1.35c1.27-2.59,1.14-5.6,1.2-8.45a74.52,74.52,0,0,1,1.25-11.64,65,65,0,0,1,5.69-16.83,13.08,13.08,0,0,0,1.11-3.55,22.86,22.86,0,0,0-.47-8.19,49.05,49.05,0,0,0-6.81-16.68l0,.34a50.71,50.71,0,0,1-.86,5.05c-.74,3.53-1.61,7.07-1.48,10.62a57.34,57.34,0,0,1-.7,11.26,17.08,17.08,0,0,1-1.13,4.26,26.79,26.79,0,0,0-1.13,2.43,11.35,11.35,0,0,0-.44,3,102.27,102.27,0,0,0,1.75,25.73,16.37,16.37,0,0,0-8.51,1.94,105.39,105.39,0,0,1-4.49-18.53,61.7,61.7,0,0,1,.69-22.42,29.68,29.68,0,0,0,.55-7.47,74,74,0,0,0-2.67-14.71l-1.86-7.39q-1.32-5.28-2.63-10.51a22.4,22.4,0,0,1-1-7.11,17.6,17.6,0,0,1,.83-3.86,42.93,42.93,0,0,1,5.84-11.95c10.17.57,20.47-.38,30.62-1.16a2,2,0,0,1,1.43.24,2,2,0,0,1,.59,1.31l3.81,21.64a53.92,53.92,0,0,1,1.08,9.13c0,3.07-.47,6.12-.35,9.17C1406.49,401.49,1407.27,405.39,1407.3,409.51Z"/><path class="cls-4" d="M1386.41,396.69a50.71,50.71,0,0,1-.86,5.05c-2.21-3.83-4.6-7.56-6.63-11.48-.53-1-1-2-1.53-3.06l-1.5-3.06c-.28-.58-.56-1.15-.82-1.74a12.2,12.2,0,0,1-.94-2.64c.74-.13,2.56,1.86,3.11,2.38a42.18,42.18,0,0,1,3.17,3.51,37.47,37.47,0,0,1,3.3,4.33A21.07,21.07,0,0,1,1386.41,396.69Z"/><path class="cls-17" d="M1394.88,291.68s-5.65,9-4.6,10.89-17.79-1.68-17.79-1.68,10.25-9,9.2-12.77S1394.88,291.68,1394.88,291.68Z"/><circle class="cls-17" cx="1389.86" cy="281.64" r="12.77"/><path class="cls-6" d="M1395.07,301.12a13,13,0,0,0-5.37-4.32,19.93,19.93,0,0,0-3.82-.94l-5.09-.89a6.43,6.43,0,0,0-3.74.08,6.11,6.11,0,0,0-1.59,1.17c-1.77,1.64-3.48,3.44-5.7,4.39-.61.26-1.24.45-1.85.71a10.63,10.63,0,0,0-5.4,5.8,19.44,19.44,0,0,0-1,8.28,14.15,14.15,0,0,0,.29,2.91,19.43,19.43,0,0,0,1,2.68,47,47,0,0,1,1.77,5.66q2,7.58,3.29,15.31a5.75,5.75,0,0,0,.64,2.11,7.68,7.68,0,0,0,1.76,1.7,11.34,11.34,0,0,1,1.48,1.46,2,2,0,0,1,.48.78c.16.76-.53,1.41-1.06,2a9.51,9.51,0,0,0-2.38,4.15,1.66,1.66,0,0,0-.39,1.15,2,2,0,0,1,.13.91,2.15,2.15,0,0,1-.48.74,2.78,2.78,0,0,0-.53,2.26,35.91,35.91,0,0,0,12.5,2.93c1,.05,2.11.05,3.17.17.75.1,1.48.25,2.23.34a25.67,25.67,0,0,0,3.28.09c5.68-.12,11.53-.26,16.75-2.52.49-2.67-.57-5.4-1.23-8-1.06-4.22-1.32-8.55-2.11-12.81-.53-2.91-1.32-5.77-1.77-8.7a21.3,21.3,0,0,1,.25-8.82c.71-2.52.93-5.1,1.67-7.62s1.26-5.24.42-7.74A8,8,0,0,0,1395.07,301.12Z"/><path class="cls-16" d="M1401.34,274.86c.62-2.26-.6-4.62-2.06-6.46s-3.6-3.77-6.07-4.26c-2-.41-4.1.08-6.15-.08-1.81-.15-3.55-.8-5.35-1.06a17.13,17.13,0,0,0-4.9.19,18.25,18.25,0,0,0-4.46,1.24c-5.44,2.41-8.62,8.36-9.36,14.26s.55,11.84,1.84,17.64l1.17,5.25a104.25,104.25,0,0,1,2.75,16.53,35.08,35.08,0,0,1-2.58,16.42,35.3,35.3,0,0,0,16.22-18.37c.83-2.16,1.44-4.4,2.36-6.52.79-1.83,1.79-3.56,2.49-5.43a17.36,17.36,0,0,0,1.11-6.58c0-1.69-.32-3.37-.27-5.06a7,7,0,0,1,1.65-4.67,14.09,14.09,0,0,1,3.84-2.28,16.09,16.09,0,0,0,5.38-4.49,4.91,4.91,0,0,0,1.1-2.83C1400.26,277.05,1401,276.06,1401.34,274.86Z"/><path class="cls-17" d="M1401.36,370.79a32.38,32.38,0,0,0,.18,3.94c.21,1,.71,1.85,1,2.8a13.66,13.66,0,0,1,.45,3.36c0,.95,0,2.11-.88,2.56-.37.19-.81.19-1.2.36s-.71.63-.49,1,.6.3,1,.37.73.43.53.72a.64.64,0,0,1-.3.19,3.69,3.69,0,0,0-1,.48,1,1,0,0,0-.4,1,.59.59,0,0,0,.72.44l.13,0a2.58,2.58,0,0,0-.25,1.06c1.35.58,2.86-.18,4.13-.91a16.51,16.51,0,0,0,1.59-1,7.91,7.91,0,0,0,3.08-6.74,15.79,15.79,0,0,0-.3-1.93,30.48,30.48,0,0,0-.78-3.27c-.36-1.14-.86-2.22-1.29-3.33-.9-2.38-1.49-4.86-2.31-7.26a1.15,1.15,0,0,0-.4-.63,1.18,1.18,0,0,0-.59-.11,9.45,9.45,0,0,0-2.75.26,2.9,2.9,0,0,0-1.68,1.05c-.24.53.15,1,.39,1.41A12,12,0,0,1,1401.36,370.79Z"/><path class="cls-4" d="M1400.5,306.64a3.84,3.84,0,0,1,.67.94c1.82,3.3,1.84,7.25,1.92,11,.1,4.22.33,8.45.56,12.7l.69,12.67c.07,1.2.14,2.41.31,3.61.81.21.85,1.26.76,2.11-.59,5.17-2,10.48-.53,15.45a1.68,1.68,0,0,0,.35.69,4.12,4.12,0,0,0-2.36,0c-.75.16-1.48.44-2.24.62a4.72,4.72,0,0,0-2.7,1.05,50.23,50.23,0,0,1-1.77-6.82c-.36-2.11-.46-4.28-1.32-6.24-.34-.78-.81-1.51-1.23-2.27-2.21-3.95-3.3-8.41-4.36-12.81a19,19,0,0,1-.34-6.37,20.59,20.59,0,0,0,.27-2.93,23,23,0,0,0-.41-3.08,20.6,20.6,0,0,1,.62-8.93c.79-2.68,1.49-5.51,3.17-7.77S1397.69,306.68,1400.5,306.64Z"/><path class="cls-6" d="M1401.12,306.22a3.75,3.75,0,0,1,.68.95c1.82,3.29,1.84,7.24,1.92,11,.1,4.23.33,8.45.56,12.67l.69,12.67c.07,1.21.14,2.42.31,3.62.81.2.84,1.26.75,2.11-.58,5.16-2,10.47-.53,15.45a1.58,1.58,0,0,0,.35.68,4.12,4.12,0,0,0-2.36,0c-.75.16-1.48.44-2.24.61a4.79,4.79,0,0,0-2.7,1.05,50.58,50.58,0,0,1-1.75-6.85c-.36-2.11-.46-4.28-1.32-6.23a23.62,23.62,0,0,0-1.23-2.27c-2.22-3.95-3.3-8.42-4.36-12.82a18.69,18.69,0,0,1-.34-6.37,13.7,13.7,0,0,0-.14-6,20.54,20.54,0,0,1,.62-8.92c.79-2.69,1.49-5.52,3.17-7.78S1398.32,306.26,1401.12,306.22Z"/><g class="cls-12"><path d="M1399.28,268.4c-1.58-2-3.6-3.77-6.07-4.26-2-.41-4.1.08-6.15-.08-1.81-.15-3.55-.8-5.35-1.06a17.13,17.13,0,0,0-4.9.19,18.25,18.25,0,0,0-4.46,1.24,14,14,0,0,0-2.2,1.25,18.48,18.48,0,0,1,3.94-1.05,17.06,17.06,0,0,1,4.89-.19c1.81.23,3.55.88,5.36,1,2.05.16,4.13-.33,6.15.08a10.88,10.88,0,0,1,6.07,4.26c1.46,1.84,2.68,4.2,2.06,6.47-.32,1.19-1.09,2.24-1.29,3.47a5,5,0,0,1-1.1,2.83,16.4,16.4,0,0,1-3.88,3.6l1.22-.58a16.09,16.09,0,0,0,5.38-4.49,4.93,4.93,0,0,0,1.1-2.83c.21-1.25,1-2.27,1.29-3.47C1402,272.6,1400.74,270.24,1399.28,268.4Z"/><path d="M1389.73,287.93a5.19,5.19,0,0,1,.71-.61,11,11,0,0,0-3.44,2.11,7.06,7.06,0,0,0-1.64,4.67c-.07,1.69.23,3.37.27,5a17.81,17.81,0,0,1-1.11,6.59c-.7,1.86-1.71,3.59-2.49,5.42-.92,2.11-1.53,4.36-2.35,6.52a35.34,35.34,0,0,1-13.42,16.69l-.09.21a35.24,35.24,0,0,0,16.22-18.36c.83-2.16,1.44-4.4,2.36-6.53.79-1.82,1.79-3.55,2.49-5.42a17.36,17.36,0,0,0,1.11-6.58c0-1.69-.32-3.37-.27-5.06A7.07,7.07,0,0,1,1389.73,287.93Z"/></g><path class="cls-2" d="M1167.8,479.41c13.18-12.18,33.84-16.21,54.82-18.89s42.92-4.26,60.07-12.14c11-5.07,20.26-14,17-29.42-3.11-14.82-16.83-31.48-30.29-46.11-10.14-11-21.15-22.22-33.51-29.49-8.56-5-17.15-7.79-25.76-12.18-30-15.31-54.64-47.29-70.87-76.17-7.63-13.54-14.22-27.17-23.27-40.58s-21.11-27-35-35.62a71.84,71.84,0,0,0-39.37-11.07C1017.86,168.13,1001,179,986,191c-33.12,26.52-60,59.17-86.78,91.75-9.91,12.06-19.85,24.18-26.55,38.89-3.72,8.17-6.4,17.69-2.6,29.67,4.81,15.23,20.69,32.71,37,40.78,27.39,13.51,49.33.65,76.48,17.56,14.94,9.31,26.63,25,35,39.52,17.91,31.18,27.85,64.71,55.93,92.2,19.29,18.88,44.86,31.09,63.18,30.17,19.2-1,31-16.1,21.8-38.67C1150,509.62,1156.16,490.16,1167.8,479.41Z"/><path class="cls-2" d="M80.14,410.4c4.31,20.55-6,44.46-18,68s-26,47.39-29.39,69.74c-2.18,14.37,1.32,29,21,34.13,19,4.93,47.68-.26,73.89-6.3,19.73-4.55,40.3-9.92,57.39-18.87,11.84-6.21,21.12-13.69,32.27-20.3,38.8-23,92.69-31.2,137-32.27,20.78-.53,40.93.09,62.6-2s45.64-7.24,65.42-17.07c19.6-9.75,32.6-22.81,40.77-35.2,16.62-25.15,16.42-48.84,13.62-71.16-6.22-49.4-23.86-95.64-41.46-141.74-6.53-17.06-13.1-34.2-24.93-49.35-6.57-8.42-15.41-16.48-31.69-19.13-20.67-3.36-51.84,3.64-72.7,16.34-34.93,21.27-36.14,51.4-74.75,70.54-21.25,10.54-47.36,14.14-69.79,14.87-48.12,1.56-93.18-6.53-144.42,7.75-35.19,9.8-67.36,29.88-79.47,49.61-12.69,20.68-4.06,41.47,28.09,44.24C58.75,375,76.34,392.24,80.14,410.4Z"/><path class="cls-2" d="M486.06,97.93c-13.44,8.36-30.05,10.85-46.49,12.38s-33.27,2.26-48.4,7.52c-9.73,3.38-19.28,9.54-21.44,20.45-2.08,10.5,3.21,22.49,8.91,33,4.29,7.94,9.18,16,16.24,21.37,4.89,3.7,10.48,5.79,15.59,9,17.8,11.31,26.72,34.29,30.26,54.93,1.67,9.68,2.54,19.41,5.31,29s7.74,19.38,15.55,25.72,17.3,8.43,26.08,8.49c17.84.13,33.64-7.24,48.35-15.43,32.57-18.12,62.3-40.68,91.94-63.19,11-8.33,22-16.7,31.34-27,5.2-5.69,10-12.35,10.75-20.87.93-10.82-5.73-23.43-15.52-29.4-16.42-10-36.6-1.31-51.83-13.7-8.38-6.82-12.45-18.08-14.36-28.48-4.1-22.29-1.57-46.11-14.36-66-8.78-13.65-24.22-22.7-38.16-22.37-14.6.35-27.92,10.82-27.73,26.89C508.3,76.94,497.93,90.55,486.06,97.93Z"/><path class="cls-2" d="M188.89-37.25c-3.91-15.34-1.28-31.92,2.23-48s7.88-32.41,7.42-48.42c-.29-10.3-3.28-21.26-13-26.61-9.39-5.15-22.41-3.72-34.19-1.47-8.87,1.69-18,3.92-25.27,9-5,3.55-8.68,8.25-13.32,12.14C96.58-127.06,72-125.49,51.23-128.34,41.5-129.67,32-131.77,22-132S1.14-130.49-7.26-125s-13.25,13.95-16,22.31c-5.5,17-3.23,34.25.13,50.75,7.46,36.52,20,71.67,32.52,106.72,4.64,13,9.3,26,16.26,38,3.86,6.68,8.76,13.28,16.67,16.55,10,4.15,24.06,1.6,32.7-5.94,14.49-12.64,12.29-34.5,28.7-45.28,9-5.93,21-6.41,31.48-5.1,22.5,2.81,44.44,12.4,67.24,6.21,15.66-4.26,29-16.25,32.84-29.64,4.07-14-1.9-29.89-17.28-34.55C202.2-9.71,192.35-23.71,188.89-37.25Z"/><path class="cls-2" d="M947.68,1.78c-6.95-12.92-5.93-30.11-3.77-47.27s5.39-34.87,2.64-50.06c-1.76-9.77-7-18.91-19.83-19.48-12.38-.55-28.38,6.93-42.72,14.62-10.8,5.79-21.92,12.23-30.21,20.55-5.73,5.76-9.67,12-14.91,17.93-18.24,20.61-48.63,33.67-74.82,40.65-12.29,3.29-24.44,5.74-36.91,10.19S701.47.14,691.77,9.41A58.82,58.82,0,0,0,675,38.35c-4.54,18.91.63,34.47,7.06,48.77,14.25,31.63,34.64,59.56,55,87.41,7.54,10.3,15.11,20.64,25.4,28.94,5.71,4.61,12.71,8.66,23,8.1,13.05-.72,30.14-9.75,39.87-21.06,16.3-18.95,10.59-38.95,29.53-57,10.43-10,25.23-16,38.46-19.68,28.36-7.85,57-8.91,84.47-25.56,18.9-11.44,33.8-29.21,36.81-43.91,3.16-15.42-6.43-27.87-26.19-25.14C968,22,953.83,13.19,947.68,1.78Z"/></svg>